<?xml version="1.0" encoding="utf-8"?>
<!-- Generator: Adobe Illustrator 22.1.0, SVG Export Plug-In . SVG Version: 6.00 Build 0)  -->
<svg version="1.1" id="Ñëîé_1" xmlns="http://www.w3.org/2000/svg" xmlns:xlink="http://www.w3.org/1999/xlink" x="0px" y="0px"
	 viewBox="0 0 600 450" style="enable-background:new 0 0 600 450;" xml:space="preserve">
<style type="text/css">
	.st0{display:none;fill:url(#SVGID_1_);}
	.st1{fill:#3F5BFC;}
	.st2{display:none;}
	.st3{display:inline;fill:url(#SVGID_2_);}
	.st4{display:inline;fill:url(#SVGID_3_);}
	.st5{display:inline;fill:url(#SVGID_4_);}
	.st6{display:inline;opacity:0.6;fill:#020230;}
	.st7{display:inline;fill:url(#SVGID_5_);}
	.st8{display:inline;fill:url(#SVGID_6_);}
	.st9{display:inline;fill:url(#SVGID_7_);}
	.st10{display:inline;fill:url(#SVGID_8_);}
	.st11{display:inline;fill:#FFFFFF;}
	.st12{display:inline;opacity:0.4;}
	.st13{fill:#06033E;}
	.st14{display:inline;fill:url(#SVGID_9_);}
	.st15{display:inline;fill:url(#SVGID_10_);}
	.st16{display:inline;opacity:0.4;fill:#06033E;}
	.st17{display:inline;opacity:0.5;fill:#06033E;}
	.st18{display:inline;}
	.st19{fill:url(#SVGID_11_);}
	.st20{display:inline;opacity:0.5;}
	.st21{fill:#FFFFFF;}
	.st22{display:inline;fill:#E8975B;}
	.st23{display:inline;fill:#F8359E;}
	.st24{display:inline;fill:url(#SVGID_12_);}
	.st25{display:inline;fill:url(#SVGID_13_);}
	.st26{display:inline;fill:url(#SVGID_14_);}
	.st27{display:inline;fill:url(#SVGID_15_);}
	.st28{display:inline;fill:url(#SVGID_16_);}
	.st29{display:inline;fill:url(#SVGID_17_);}
	.st30{display:inline;fill:url(#SVGID_18_);}
	.st31{display:inline;fill:#0C0A78;}
	.st32{display:inline;fill:url(#SVGID_19_);}
	.st33{fill:#E8975B;}
	.st34{display:inline;opacity:0.5;fill:#FFFFFF;}
	.st35{fill:#D2ECFF;}
	.st36{opacity:0.22;fill:#364084;}
	.st37{fill:#EEF8FE;}
	.st38{opacity:0.25;fill:#354594;}
	.st39{fill:#3177A6;}
	.st40{fill:#AFD4F7;}
	.st41{fill:#074B94;}
	.st42{opacity:0.71;fill:#354594;}
	.st43{fill:#4390CD;}
	.st44{fill:#79B7EB;}
	.st45{fill:#CEE2F5;}
	.st46{fill:#03336C;}
	.st47{fill:#084C95;}
	.st48{fill:#CBE5F8;}
	.st49{opacity:0.73;}
	.st50{fill:#3DCDCC;}
	.st51{fill:#2BAAA7;}
	.st52{fill:#F9BEAE;}
	.st53{fill:#FDABAD;}
	.st54{fill:#FB689C;}
	.st55{fill:#E84697;}
	.st56{fill:#03284C;}
</style>
<radialGradient id="SVGID_1_" cx="171.4004" cy="135.2401" r="733.4801" gradientTransform="matrix(1.0858 0 0 1.088 -119.9181 -249.2813)" gradientUnits="userSpaceOnUse">
	<stop  offset="3.968250e-03" style="stop-color:#4C02F1"/>
	<stop  offset="8.168010e-03" style="stop-color:#4B02EF"/>
	<stop  offset="0.1263" style="stop-color:#3903C4"/>
	<stop  offset="0.2487" style="stop-color:#29039E"/>
	<stop  offset="0.3765" style="stop-color:#1D0380"/>
	<stop  offset="0.5099" style="stop-color:#130468"/>
	<stop  offset="0.6513" style="stop-color:#0C0457"/>
	<stop  offset="0.8062" style="stop-color:#07044D"/>
	<stop  offset="1" style="stop-color:#06044A"/>
</radialGradient>
<rect x="0" class="st0" width="600" height="450"/>
<rect x="0" class="st1" width="600" height="450"/>
<g class="st2">
	<linearGradient id="SVGID_2_" gradientUnits="userSpaceOnUse" x1="550.8366" y1="368.7768" x2="594.6669" y2="368.7768">
		<stop  offset="0" style="stop-color:#E39A65"/>
		<stop  offset="1" style="stop-color:#E95F8D"/>
	</linearGradient>
	<path class="st3" d="M572.8,381.7c-1.6,0-3.2-0.4-4.7-1.3l-15.8-9.1c-0.9-0.5-1.5-1.5-1.5-2.5c0-1.1,0.5-2,1.5-2.5l15.8-9.1
		c2.9-1.7,6.5-1.7,9.4,0l15.8,9.1c0.9,0.5,1.5,1.5,1.5,2.5c0,1.1-0.5,2-1.5,2.5l-15.8,9.1C576,381.2,574.4,381.7,572.8,381.7z
		 M572.8,358.4c-1.2,0-2.4,0.3-3.4,0.9l-15.8,9.1c-0.2,0.1-0.2,0.3-0.2,0.4c0,0.1,0,0.3,0.2,0.4l15.8,9.1c0,0,0,0,0,0
		c2.1,1.2,4.7,1.2,6.9,0l15.8-9.1c0.2-0.1,0.2-0.3,0.2-0.4c0-0.1,0-0.3-0.2-0.4l-15.8-9.1C575.1,358.7,573.9,358.4,572.8,358.4z"/>
	<linearGradient id="SVGID_3_" gradientUnits="userSpaceOnUse" x1="490.8242" y1="308.7083" x2="564.4475" y2="308.7083">
		<stop  offset="0" style="stop-color:#E39A65"/>
		<stop  offset="1" style="stop-color:#E95F8D"/>
	</linearGradient>
	<path class="st4" d="M527.6,330c-2.6,0-5.3-0.7-7.6-2l-27.1-15.7c-1.3-0.7-2.1-2.1-2.1-3.6c0-1.5,0.8-2.8,2.1-3.6l27.1-15.7
		c4.7-2.7,10.5-2.7,15.2,0l27.1,15.7c1.3,0.7,2.1,2.1,2.1,3.6c0,1.5-0.8,2.8-2.1,3.6L535.2,328C532.9,329.3,530.3,330,527.6,330z
		 M521.3,325.8c3.9,2.3,8.8,2.3,12.7,0l27.1-15.7c0.7-0.4,0.8-1.1,0.8-1.4c0-0.3-0.1-1-0.8-1.4L534,291.6c-3.9-2.3-8.8-2.3-12.7,0
		l-27.1,15.7c-0.7,0.4-0.8,1.1-0.8,1.4c0,0.3,0.1,1,0.8,1.4L521.3,325.8z"/>
	<linearGradient id="SVGID_4_" gradientUnits="userSpaceOnUse" x1="5.3331" y1="333.3742" x2="78.9563" y2="333.3742">
		<stop  offset="0" style="stop-color:#E39A65"/>
		<stop  offset="1" style="stop-color:#E95F8D"/>
	</linearGradient>
	<path class="st5" d="M42.1,354.7c-2.6,0-5.3-0.7-7.6-2L7.4,336.9c-1.3-0.7-2.1-2.1-2.1-3.6c0-1.5,0.8-2.8,2.1-3.6l27.1-15.7
		c4.7-2.7,10.5-2.7,15.2,0l27.1,15.7c1.3,0.7,2.1,2.1,2.1,3.6c0,1.5-0.8,2.8-2.1,3.6l-27.1,15.7C47.4,354,44.8,354.7,42.1,354.7z
		 M42.1,314.6c-2.2,0-4.4,0.6-6.4,1.7L8.6,332c-0.7,0.4-0.8,1.1-0.8,1.4c0,0.3,0.1,1,0.8,1.4l27.1,15.7l0,0c3.9,2.3,8.8,2.3,12.7,0
		l27.1-15.7c0.7-0.4,0.8-1.1,0.8-1.4c0-0.3-0.1-1-0.8-1.4l-27.1-15.7C46.5,315.2,44.3,314.6,42.1,314.6z"/>
	<path class="st6" d="M317.1,423L122.9,311c-2.8-1.6-2.5-4.5,0.8-6.4l124.6-71.9c3.3-1.9,8.2-2.1,11-0.5l194.1,112.1
		c2.8,1.6,2.5,4.5-0.8,6.4l-124.6,71.9C324.8,424.5,319.9,424.7,317.1,423z"/>
	<linearGradient id="SVGID_5_" gradientUnits="userSpaceOnUse" x1="91.0473" y1="328.6517" x2="483.9834" y2="328.6517">
		<stop  offset="0" style="stop-color:#E39A65"/>
		<stop  offset="1" style="stop-color:#E95F8D"/>
	</linearGradient>
	<path class="st7" d="M321.5,443.3c-2.3,0-4.4-0.5-6.1-1.4h0L93.9,313.9c-1.8-1-2.8-2.6-2.8-4.2c0-1.9,1.4-3.8,3.7-5.2l151-88.5
		c4.1-2.4,10.2-2.6,13.9-0.5l221.5,127.9c1.8,1,2.8,2.6,2.8,4.2c0,1.9-1.4,3.8-3.7,5.2l-151,88.5C327,442.6,324.2,443.3,321.5,443.3
		z M253.6,216.6c-2.3,0-4.7,0.5-6.5,1.6L96,306.6c-1.5,0.9-2.5,2-2.5,3c0,1,0.8,1.7,1.6,2.1l221.5,127.9c0,0,0,0,0,0
		c2.8,1.6,8,1.4,11.3-0.5l151-88.5c1.5-0.9,2.5-2,2.5-3c0-1-0.8-1.7-1.6-2.1L258.4,217.6C257.1,216.9,255.4,216.6,253.6,216.6z"/>
	<radialGradient id="SVGID_6_" cx="308.0886" cy="37.7322" r="300.1148" gradientUnits="userSpaceOnUse">
		<stop  offset="0" style="stop-color:#E39A65"/>
		<stop  offset="0.4742" style="stop-color:#A92FFB"/>
		<stop  offset="0.5947" style="stop-color:#891CFB"/>
		<stop  offset="0.7421" style="stop-color:#6507FA"/>
		<stop  offset="0.8016" style="stop-color:#0D0C6F"/>
	</radialGradient>
	<path class="st8" d="M505,156.4L311.7,44.7c-1.3-0.8-2.7-0.9-3.9-0.6v0l0,0c0,0,0,0,0,0l-3.6,1.2l1.3,0.3c-0.5,0.6-0.9,1.3-1.2,2.2
		l-43.7,142c-1.1,3.5,0.5,7.8,3.5,9.6l193.4,111.6c0.5,0.3,0.9,0.5,1.4,0.6l-0.5,1l3.4-1.2l0,0c1.4-0.6,2.6-1.8,3.1-3.6l43.7-142
		C509.7,162.4,508.1,158.1,505,156.4z"/>
	<radialGradient id="SVGID_7_" cx="124.532" cy="278.7462" r="328.1729" gradientUnits="userSpaceOnUse">
		<stop  offset="0" style="stop-color:#E39A65"/>
		<stop  offset="0.4742" style="stop-color:#A92FFB"/>
		<stop  offset="0.5679" style="stop-color:#891CFB"/>
		<stop  offset="0.6825" style="stop-color:#6507FA"/>
		<stop  offset="0.7381" style="stop-color:#0D0C6F"/>
	</radialGradient>
	<path class="st9" d="M450.5,316.4L450.5,316.4L259.6,206.2c-2.8-1.6-7.7-1.4-11,0.5l-123.4,71.2l-4.1-1.6l1.2,5.8l0,0
		c0.2,0.9,0.8,1.7,1.9,2.3l192.7,111.3c2.8,1.6,7.7,1.4,11-0.5l123.7-71.4c1.5-0.9,2.4-2,2.6-3.1l0,0l1.2-5.6L450.5,316.4z"/>
	<radialGradient id="SVGID_8_" cx="154.7151" cy="212.8764" r="294.287" gradientUnits="userSpaceOnUse">
		<stop  offset="0" style="stop-color:#E39A65"/>
		<stop  offset="0.4742" style="stop-color:#A92FFB"/>
		<stop  offset="0.5875" style="stop-color:#891CFB"/>
		<stop  offset="0.7262" style="stop-color:#6507FA"/>
		<stop  offset="1" style="stop-color:#3919BB"/>
	</radialGradient>
	<path class="st10" d="M317.1,390.6L122.9,278.5c-2.8-1.6-2.5-4.5,0.8-6.4l124.6-71.9c3.3-1.9,8.2-2.1,11-0.5l194.1,112.1
		c2.8,1.6,2.5,4.5-0.8,6.4l-124.6,71.9C324.8,392.1,319.9,392.3,317.1,390.6z"/>
	<path class="st11" d="M452.7,316.7l-124.6,71.9c-3.3,1.9-8.2,2.1-11,0.5L122.9,277c-1-0.6-1.5-1.3-1.8-2c-0.4,1.3,0.2,2.6,1.8,3.5
		l194.1,112.1c2.8,1.6,7.8,1.4,11-0.5l124.6-71.9c2.2-1.2,3-2.9,2.6-4.4C455,314.9,454.1,315.9,452.7,316.7z"/>
	<g class="st12">
		<path class="st13" d="M215.5,260.4l-6.6-3.8c-0.5-0.3-0.5-0.8,0.1-1.2l7.7-4.5c0.6-0.4,1.5-0.4,2.1-0.1l6.6,3.8
			c0.5,0.3,0.5,0.8-0.1,1.2l-7.7,4.5C217,260.6,216.1,260.7,215.5,260.4z"/>
		<path class="st13" d="M225.7,266.2l-6.6-3.8c-0.5-0.3-0.5-0.8,0.1-1.2l7.7-4.5c0.6-0.4,1.5-0.4,2.1-0.1l6.6,3.8
			c0.5,0.3,0.5,0.8-0.1,1.2l-7.7,4.5C227.1,266.5,226.2,266.5,225.7,266.2z"/>
		<path class="st13" d="M235.8,272l-6.6-3.8c-0.5-0.3-0.5-0.8,0.1-1.2l7.7-4.5c0.6-0.4,1.5-0.4,2.1-0.1l6.6,3.8
			c0.5,0.3,0.5,0.8-0.1,1.2l-7.7,4.5C237.2,272.3,236.3,272.4,235.8,272z"/>
		<path class="st13" d="M249.8,267.2l-6.6-3.8c-0.5-0.3-0.5-0.8,0.1-1.2l6.5-3.7c0.6-0.4,1.5-0.4,2.1-0.1l6.6,3.8
			c0.5,0.3,0.5,0.8-0.1,1.2l-6.5,3.7C251.2,267.5,250.3,267.5,249.8,267.2z"/>
		<path class="st13" d="M259.9,273.1l-6.6-3.8c-0.5-0.3-0.5-0.8,0.1-1.2l6.5-3.7c0.6-0.4,1.5-0.4,2.1-0.1l6.6,3.8
			c0.5,0.3,0.5,0.8-0.1,1.2l-6.5,3.7C261.3,273.3,260.4,273.4,259.9,273.1z"/>
		<path class="st13" d="M270,278.9l-6.6-3.8c-0.5-0.3-0.5-0.8,0.1-1.2l6.5-3.7c0.6-0.4,1.5-0.4,2.1-0.1l6.6,3.8
			c0.5,0.3,0.5,0.8-0.1,1.2l-6.5,3.7C271.5,279.2,270.5,279.2,270,278.9z"/>
		<path class="st13" d="M280.1,284.8l-6.6-3.8c-0.5-0.3-0.5-0.8,0.1-1.2l6.5-3.7c0.6-0.4,1.5-0.4,2.1-0.1l6.6,3.8
			c0.5,0.3,0.5,0.8-0.1,1.2l-6.5,3.7C281.6,285,280.7,285.1,280.1,284.8z"/>
		<path class="st13" d="M290.3,290.6l-6.6-3.8c-0.5-0.3-0.5-0.8,0.1-1.2l6.5-3.7c0.6-0.4,1.5-0.4,2.1-0.1l6.6,3.8
			c0.5,0.3,0.5,0.8-0.1,1.2l-6.5,3.7C291.7,290.9,290.8,290.9,290.3,290.6z"/>
		<path class="st13" d="M300.4,296.4l-6.6-3.8c-0.5-0.3-0.5-0.8,0.1-1.2l6.5-3.7c0.6-0.4,1.5-0.4,2.1-0.1l6.6,3.8
			c0.5,0.3,0.5,0.8-0.1,1.2l-6.5,3.7C301.8,296.7,300.9,296.7,300.4,296.4z"/>
		<path class="st13" d="M310.5,302.3l-6.6-3.8c-0.5-0.3-0.5-0.8,0.1-1.2l6.5-3.7c0.6-0.4,1.5-0.4,2.1-0.1l6.6,3.8
			c0.5,0.3,0.5,0.8-0.1,1.2l-6.5,3.7C311.9,302.5,311,302.6,310.5,302.3z"/>
		<path class="st13" d="M320.6,308.1l-6.6-3.8c-0.5-0.3-0.5-0.8,0.1-1.2l6.5-3.7c0.6-0.4,1.5-0.4,2.1-0.1l6.6,3.8
			c0.5,0.3,0.5,0.8-0.1,1.2l-6.5,3.7C322.1,308.4,321.1,308.4,320.6,308.1z"/>
		<path class="st13" d="M330.7,314l-6.6-3.8c-0.5-0.3-0.5-0.8,0.1-1.2l6.5-3.7c0.6-0.4,1.5-0.4,2.1-0.1l6.6,3.8
			c0.5,0.3,0.5,0.8-0.1,1.2l-6.5,3.7C332.2,314.2,331.3,314.3,330.7,314z"/>
		<path class="st13" d="M340.9,319.8l-6.6-3.8c-0.5-0.3-0.5-0.8,0.1-1.2l6.5-3.7c0.6-0.4,1.5-0.4,2.1-0.1l6.6,3.8
			c0.5,0.3,0.5,0.8-0.1,1.2l-6.5,3.7C342.3,320.1,341.4,320.1,340.9,319.8z"/>
		<path class="st13" d="M264.7,264.5l-6.6-3.8c-0.5-0.3-0.5-0.8,0.1-1.2l6.5-3.7c0.6-0.4,1.5-0.4,2.1-0.1l6.6,3.8
			c0.5,0.3,0.5,0.8-0.1,1.2l-6.5,3.7C266.1,264.7,265.2,264.8,264.7,264.5z"/>
		<path class="st13" d="M254.4,258.5l-6.6-3.8c-0.5-0.3-0.5-0.8,0.1-1.2l6.5-3.7c0.6-0.4,1.5-0.4,2.1-0.1l6.6,3.8
			c0.5,0.3,0.5,0.8-0.1,1.2l-6.5,3.7C255.9,258.8,254.9,258.8,254.4,258.5z"/>
		<path class="st13" d="M244.1,252.6l-14.1-8.1c-0.5-0.3-0.5-0.8,0.1-1.2l6.5-3.7c0.6-0.4,1.5-0.4,2.1-0.1l14.1,8.1
			c0.5,0.3,0.5,0.8-0.1,1.2l-6.5,3.7C245.6,252.9,244.7,252.9,244.1,252.6z"/>
		<path class="st13" d="M251.3,245.4l-11.5-6.6c-0.5-0.3-0.5-0.8,0.1-1.2l6.5-3.7c0.6-0.4,1.5-0.4,2.1-0.1l11.5,6.6
			c0.5,0.3,0.5,0.8-0.1,1.2l-6.5,3.7C252.8,245.6,251.8,245.7,251.3,245.4z"/>
		<path class="st13" d="M274.8,270.3l-6.6-3.8c-0.5-0.3-0.5-0.8,0.1-1.2l6.5-3.7c0.6-0.4,1.5-0.4,2.1-0.1l6.6,3.8
			c0.5,0.3,0.5,0.8-0.1,1.2l-6.5,3.7C276.3,270.6,275.3,270.6,274.8,270.3z"/>
		<path class="st13" d="M284.9,276.1l-6.6-3.8c-0.5-0.3-0.5-0.8,0.1-1.2l6.5-3.7c0.6-0.4,1.5-0.4,2.1-0.1l6.6,3.8
			c0.5,0.3,0.5,0.8-0.1,1.2l-6.5,3.7C286.4,276.4,285.5,276.4,284.9,276.1z"/>
		<path class="st13" d="M295,282l-6.6-3.8c-0.5-0.3-0.5-0.8,0.1-1.2l6.5-3.7c0.6-0.4,1.5-0.4,2.1-0.1l6.6,3.8
			c0.5,0.3,0.5,0.8-0.1,1.2l-6.5,3.7C296.5,282.3,295.6,282.3,295,282z"/>
		<path class="st13" d="M305.2,287.8l-6.6-3.8c-0.5-0.3-0.5-0.8,0.1-1.2l6.5-3.7c0.6-0.4,1.5-0.4,2.1-0.1l6.6,3.8
			c0.5,0.3,0.5,0.8-0.1,1.2l-6.5,3.7C306.6,288.1,305.7,288.1,305.2,287.8z"/>
		<path class="st13" d="M315.3,293.7l-6.6-3.8c-0.5-0.3-0.5-0.8,0.1-1.2l6.5-3.7c0.6-0.4,1.5-0.4,2.1-0.1l6.6,3.8
			c0.5,0.3,0.5,0.8-0.1,1.2l-6.5,3.7C316.7,293.9,315.8,294,315.3,293.7z"/>
		<path class="st13" d="M325.4,299.5l-6.6-3.8c-0.5-0.3-0.5-0.8,0.1-1.2l6.5-3.7c0.6-0.4,1.5-0.4,2.1-0.1l6.6,3.8
			c0.5,0.3,0.5,0.8-0.1,1.2l-6.5,3.7C326.9,299.8,325.9,299.8,325.4,299.5z"/>
		<path class="st13" d="M335.5,305.4l-6.6-3.8c-0.5-0.3-0.5-0.8,0.1-1.2l6.5-3.7c0.6-0.4,1.5-0.4,2.1-0.1l6.6,3.8
			c0.5,0.3,0.5,0.8-0.1,1.2l-6.5,3.7C337,305.6,336.1,305.7,335.5,305.4z"/>
		<path class="st13" d="M345.7,311.2l-6.6-3.8c-0.5-0.3-0.5-0.8,0.1-1.2l6.5-3.7c0.6-0.4,1.5-0.4,2.1-0.1l6.6,3.8
			c0.5,0.3,0.5,0.8-0.1,1.2l-6.5,3.7C347.1,311.5,346.2,311.5,345.7,311.2z"/>
		<path class="st13" d="M355.8,317l-6.6-3.8c-0.5-0.3-0.5-0.8,0.1-1.2l6.5-3.7c0.6-0.4,1.5-0.4,2.1-0.1l6.6,3.8
			c0.5,0.3,0.5,0.8-0.1,1.2l-6.5,3.7C357.2,317.3,356.3,317.3,355.8,317z"/>
		<path class="st13" d="M373.8,327.4l-14.3-8.3c-0.5-0.3-0.5-0.8,0.1-1.2l6.5-3.7c0.6-0.4,1.5-0.4,2.1-0.1l14.3,8.3
			c0.5,0.3,0.5,0.8-0.1,1.2l-6.5,3.7C375.2,327.7,374.3,327.7,373.8,327.4z"/>
		<path class="st13" d="M393.5,316.1l-12.1-7c-0.5-0.3-0.5-0.8,0.1-1.2l6.5-3.7c0.6-0.4,1.5-0.4,2.1-0.1l12.1,7
			c0.5,0.3,0.5,0.8-0.1,1.2l-6.5,3.7C394.9,316.3,394,316.4,393.5,316.1z"/>
		<path class="st13" d="M292.5,269.2l-6.6-3.8c-0.5-0.3-0.5-0.8,0.1-1.2l6.5-3.7c0.6-0.4,1.5-0.4,2.1-0.1l6.6,3.8
			c0.5,0.3,0.5,0.8-0.1,1.2l-6.5,3.7C294,269.4,293.1,269.5,292.5,269.2z"/>
		<path class="st13" d="M282.2,263.2l-6.6-3.8c-0.5-0.3-0.5-0.8,0.1-1.2l6.5-3.7c0.6-0.4,1.5-0.4,2.1-0.1l6.6,3.8
			c0.5,0.3,0.5,0.8-0.1,1.2l-6.5,3.7C283.6,263.4,282.7,263.5,282.2,263.2z"/>
		<path class="st13" d="M271.8,257.2l-6.6-3.8c-0.5-0.3-0.5-0.8,0.1-1.2l6.5-3.7c0.6-0.4,1.5-0.4,2.1-0.1l6.6,3.8
			c0.5,0.3,0.5,0.8-0.1,1.2l-6.5,3.7C273.2,257.4,272.3,257.5,271.8,257.2z"/>
		<path class="st13" d="M261.4,251.2l-6.6-3.8c-0.5-0.3-0.5-0.8,0.1-1.2l6.5-3.7c0.6-0.4,1.5-0.4,2.1-0.1l6.6,3.8
			c0.5,0.3,0.5,0.8-0.1,1.2l-6.5,3.7C262.9,251.5,261.9,251.5,261.4,251.2z"/>
		<path class="st13" d="M302.7,275l-6.6-3.8c-0.5-0.3-0.5-0.8,0.1-1.2l6.5-3.7c0.6-0.4,1.5-0.4,2.1-0.1l6.6,3.8
			c0.5,0.3,0.5,0.8-0.1,1.2l-6.5,3.7C304.1,275.3,303.2,275.3,302.7,275z"/>
		<path class="st13" d="M312.8,280.8l-6.6-3.8c-0.5-0.3-0.5-0.8,0.1-1.2l6.5-3.7c0.6-0.4,1.5-0.4,2.1-0.1l6.6,3.8
			c0.5,0.3,0.5,0.8-0.1,1.2l-6.5,3.7C314.2,281.1,313.3,281.1,312.8,280.8z"/>
		<path class="st13" d="M322.9,286.7l-6.6-3.8c-0.5-0.3-0.5-0.8,0.1-1.2l6.5-3.7c0.6-0.4,1.5-0.4,2.1-0.1l6.6,3.8
			c0.5,0.3,0.5,0.8-0.1,1.2l-6.5,3.7C324.3,287,323.4,287,322.9,286.7z"/>
		<path class="st13" d="M333,292.5l-6.6-3.8c-0.5-0.3-0.5-0.8,0.1-1.2l6.5-3.7c0.6-0.4,1.5-0.4,2.1-0.1l6.6,3.8
			c0.5,0.3,0.5,0.8-0.1,1.2l-6.5,3.7C334.5,292.8,333.5,292.8,333,292.5z"/>
		<path class="st13" d="M343.1,298.4l-6.6-3.8c-0.5-0.3-0.5-0.8,0.1-1.2l6.5-3.7c0.6-0.4,1.5-0.4,2.1-0.1l6.6,3.8
			c0.5,0.3,0.5,0.8-0.1,1.2l-6.5,3.7C344.6,298.6,343.7,298.7,343.1,298.4z"/>
		<path class="st13" d="M353.3,304.2l-6.6-3.8c-0.5-0.3-0.5-0.8,0.1-1.2l6.5-3.7c0.6-0.4,1.5-0.4,2.1-0.1l6.6,3.8
			c0.5,0.3,0.5,0.8-0.1,1.2l-6.5,3.7C354.7,304.5,353.8,304.5,353.3,304.2z"/>
		<path class="st13" d="M363.4,310.1l-6.6-3.8c-0.5-0.3-0.5-0.8,0.1-1.2l6.5-3.7c0.6-0.4,1.5-0.4,2.1-0.1l6.6,3.8
			c0.5,0.3,0.5,0.8-0.1,1.2l-6.5,3.7C364.8,310.3,363.9,310.4,363.4,310.1z"/>
		<path class="st13" d="M373.5,315.9l-6.6-3.8c-0.5-0.3-0.5-0.8,0.1-1.2l6.5-3.7c0.6-0.4,1.5-0.4,2.1-0.1l6.6,3.8
			c0.5,0.3,0.5,0.8-0.1,1.2l-6.5,3.7C374.9,316.2,374,316.2,373.5,315.9z"/>
		<path class="st13" d="M383.6,321.7l-6.6-3.8c-0.5-0.3-0.5-0.8,0.1-1.2l6.5-3.7c0.6-0.4,1.5-0.4,2.1-0.1l6.6,3.8
			c0.5,0.3,0.5,0.8-0.1,1.2l-6.5,3.7C385.1,322,384.1,322,383.6,321.7z"/>
		<path class="st13" d="M287.2,254.7l-6.6-3.8c-0.5-0.3-0.5-0.8,0.1-1.2l6.5-3.7c0.6-0.4,1.5-0.4,2.1-0.1l6.6,3.8
			c0.5,0.3,0.5,0.8-0.1,1.2l-6.5,3.7C288.6,255,287.7,255,287.2,254.7z"/>
		<path class="st13" d="M277.1,248.9l-6.6-3.8c-0.5-0.3-0.5-0.8,0.1-1.2l6.5-3.7c0.6-0.4,1.5-0.4,2.1-0.1l6.6,3.8
			c0.5,0.3,0.5,0.8-0.1,1.2l-6.5,3.7C278.6,249.2,277.7,249.2,277.1,248.9z"/>
		<path class="st13" d="M267.1,243.1l-6.6-3.8c-0.5-0.3-0.5-0.8,0.1-1.2l6.5-3.7c0.6-0.4,1.5-0.4,2.1-0.1l6.6,3.8
			c0.5,0.3,0.5,0.8-0.1,1.2l-6.5,3.7C268.5,243.3,267.6,243.4,267.1,243.1z"/>
		<path class="st13" d="M257,237.3l-6.6-3.8c-0.5-0.3-0.5-0.8,0.1-1.2l6.5-3.7c0.6-0.4,1.5-0.4,2.1-0.1l6.6,3.8
			c0.5,0.3,0.5,0.8-0.1,1.2l-6.5,3.7C258.4,237.5,257.5,237.6,257,237.3z"/>
		<path class="st13" d="M267.3,231.3l-6.6-3.8c-0.5-0.3-0.5-0.8,0.1-1.2l2.1-1.2c0.6-0.4,1.5-0.4,2.1-0.1l6.6,3.8
			c0.5,0.3,0.5,0.8-0.1,1.2l-2.1,1.2C268.8,231.5,267.9,231.6,267.3,231.3z"/>
		<path class="st13" d="M280.5,238.9l-6.6-3.8c-0.5-0.3-0.5-0.8,0.1-1.2l2.1-1.2c0.6-0.4,1.5-0.4,2.1-0.1l6.6,3.8
			c0.5,0.3,0.5,0.8-0.1,1.2l-2.1,1.2C281.9,239.1,281,239.2,280.5,238.9z"/>
		<path class="st13" d="M290.5,244.7l-6.6-3.8c-0.5-0.3-0.5-0.8,0.1-1.2l2.1-1.2c0.6-0.4,1.5-0.4,2.1-0.1l6.6,3.8
			c0.5,0.3,0.5,0.8-0.1,1.2l-2.1,1.2C292,244.9,291,245,290.5,244.7z"/>
		<path class="st13" d="M300.5,250.4l-6.6-3.8c-0.5-0.3-0.5-0.8,0.1-1.2l2.1-1.2c0.6-0.4,1.5-0.4,2.1-0.1l6.6,3.8
			c0.5,0.3,0.5,0.8-0.1,1.2l-2.1,1.2C302,250.7,301.1,250.8,300.5,250.4z"/>
		<path class="st13" d="M310.6,256.2l-6.6-3.8c-0.5-0.3-0.5-0.8,0.1-1.2l2.1-1.2c0.6-0.4,1.5-0.4,2.1-0.1l6.6,3.8
			c0.5,0.3,0.5,0.8-0.1,1.2l-2.1,1.2C312,256.5,311.1,256.5,310.6,256.2z"/>
		<path class="st13" d="M366.6,288.6l-6.6-3.8c-0.5-0.3-0.5-0.8,0.1-1.2l2.1-1.2c0.6-0.4,1.5-0.4,2.1-0.1l6.6,3.8
			c0.5,0.3,0.5,0.8-0.1,1.2l-2.1,1.2C368,288.8,367.1,288.9,366.6,288.6z"/>
		<path class="st13" d="M376.6,294.4l-6.6-3.8c-0.5-0.3-0.5-0.8,0.1-1.2l2.1-1.2c0.6-0.4,1.5-0.4,2.1-0.1l6.6,3.8
			c0.5,0.3,0.5,0.8-0.1,1.2l-2.1,1.2C378,294.6,377.1,294.7,376.6,294.4z"/>
		<path class="st13" d="M386.6,300.1l-6.6-3.8c-0.5-0.3-0.5-0.8,0.1-1.2l2.1-1.2c0.6-0.4,1.5-0.4,2.1-0.1l6.6,3.8
			c0.5,0.3,0.5,0.8-0.1,1.2l-2.1,1.2C388.1,300.4,387.1,300.4,386.6,300.1z"/>
		<path class="st13" d="M396.6,305.9l-6.6-3.8c-0.5-0.3-0.5-0.8,0.1-1.2l2.1-1.2c0.6-0.4,1.5-0.4,2.1-0.1l6.6,3.8
			c0.5,0.3,0.5,0.8-0.1,1.2l-2.1,1.2C398.1,306.2,397.2,306.2,396.6,305.9z"/>
		<path class="st13" d="M297.3,260.5l-6.6-3.8c-0.5-0.3-0.5-0.8,0.1-1.2l6.5-3.7c0.6-0.4,1.5-0.4,2.1-0.1l6.6,3.8
			c0.5,0.3,0.5,0.8-0.1,1.2l-6.5,3.7C298.8,260.8,297.8,260.8,297.3,260.5z"/>
		<path class="st13" d="M307.4,266.4l-6.6-3.8c-0.5-0.3-0.5-0.8,0.1-1.2l6.5-3.7c0.6-0.4,1.5-0.4,2.1-0.1l6.6,3.8
			c0.5,0.3,0.5,0.8-0.1,1.2l-6.5,3.7C308.9,266.7,308,266.7,307.4,266.4z"/>
		<path class="st13" d="M317.6,272.2l-6.6-3.8c-0.5-0.3-0.5-0.8,0.1-1.2l6.5-3.7c0.6-0.4,1.5-0.4,2.1-0.1l6.6,3.8
			c0.5,0.3,0.5,0.8-0.1,1.2l-6.5,3.7C319,272.5,318.1,272.5,317.6,272.2z"/>
		<path class="st13" d="M327.7,278.1l-6.6-3.8c-0.5-0.3-0.5-0.8,0.1-1.2l6.5-3.7c0.6-0.4,1.5-0.4,2.1-0.1l6.6,3.8
			c0.5,0.3,0.5,0.8-0.1,1.2l-6.5,3.7C329.1,278.3,328.2,278.4,327.7,278.1z"/>
		<path class="st13" d="M337.8,283.9l-6.6-3.8c-0.5-0.3-0.5-0.8,0.1-1.2l6.5-3.7c0.6-0.4,1.5-0.4,2.1-0.1l6.6,3.8
			c0.5,0.3,0.5,0.8-0.1,1.2l-6.5,3.7C339.2,284.2,338.3,284.2,337.8,283.9z"/>
		<path class="st13" d="M347.9,289.8l-6.6-3.8c-0.5-0.3-0.5-0.8,0.1-1.2l6.5-3.7c0.6-0.4,1.5-0.4,2.1-0.1l6.6,3.8
			c0.5,0.3,0.5,0.8-0.1,1.2l-6.5,3.7C349.4,290,348.5,290.1,347.9,289.8z"/>
		<path class="st13" d="M358,295.6l-6.6-3.8c-0.5-0.3-0.5-0.8,0.1-1.2l6.5-3.7c0.6-0.4,1.5-0.4,2.1-0.1l6.6,3.8
			c0.5,0.3,0.5,0.8-0.1,1.2l-6.5,3.7C359.5,295.9,358.6,295.9,358,295.6z"/>
		<path class="st13" d="M368.2,301.4l-6.6-3.8c-0.5-0.3-0.5-0.8,0.1-1.2l6.5-3.7c0.6-0.4,1.5-0.4,2.1-0.1l6.6,3.8
			c0.5,0.3,0.5,0.8-0.1,1.2l-6.5,3.7C369.6,301.7,368.7,301.8,368.2,301.4z"/>
		<path class="st13" d="M378.3,307.3l-6.6-3.8c-0.5-0.3-0.5-0.8,0.1-1.2l6.5-3.7c0.6-0.4,1.5-0.4,2.1-0.1l6.6,3.8
			c0.5,0.3,0.5,0.8-0.1,1.2l-6.5,3.7C379.7,307.6,378.8,307.6,378.3,307.3z"/>
		<path class="st13" d="M239.5,261.3l-19.3-11.1c-0.5-0.3-0.5-0.8,0.1-1.2l6.5-3.7c0.6-0.4,1.5-0.4,2.1-0.1l19.3,11.1
			c0.5,0.3,0.5,0.8-0.1,1.2l-6.5,3.7C240.9,261.5,240,261.6,239.5,261.3z"/>
		<path class="st13" d="M363.8,333.1l-19.3-11.1c-0.5-0.3-0.5-0.8,0.1-1.2l6.5-3.7c0.6-0.4,1.5-0.4,2.1-0.1l19.3,11.1
			c0.5,0.3,0.5,0.8-0.1,1.2l-6.5,3.7C365.2,333.3,364.3,333.4,363.8,333.1z"/>
		<path class="st13" d="M323.3,322.6l-6.6-3.8c-0.5-0.3-0.5-0.8,0.1-1.2l7.7-4.5c0.6-0.4,1.5-0.4,2.1-0.1l6.6,3.8
			c0.5,0.3,0.5,0.8-0.1,1.2l-7.7,4.5C324.8,322.9,323.8,322.9,323.3,322.6z"/>
		<path class="st13" d="M249.8,280.2l-10.5-6.1c-0.5-0.3-0.5-0.8,0.1-1.2l7.7-4.5c0.6-0.4,1.5-0.4,2.1-0.1l10.5,6.1
			c0.5,0.3,0.5,0.8-0.1,1.2l-7.7,4.5C251.3,280.4,250.3,280.5,249.8,280.2z"/>
		<path class="st13" d="M313.6,317l-10.5-6.1c-0.5-0.3-0.5-0.8,0.1-1.2l7.7-4.5c0.6-0.4,1.5-0.4,2.1-0.1l10.5,6.1
			c0.5,0.3,0.5,0.8-0.1,1.2l-7.7,4.5C315,317.2,314.1,317.3,313.6,317z"/>
		<path class="st13" d="M264.4,288.6l-10.5-6.1c-0.5-0.3-0.5-0.8,0.1-1.2l7.7-4.5c0.6-0.4,1.5-0.4,2.1-0.1l10.5,6.1
			c0.5,0.3,0.5,0.8-0.1,1.2l-7.7,4.5C265.9,288.9,265,288.9,264.4,288.6z"/>
		<path class="st13" d="M264,276.8l45.6,26.3c0.6,0.3,0.6,0.9,0,1.2l-7.9,4.6c-0.6,0.3-1.5,0.3-2,0L254,282.6L264,276.8z"/>
		<path class="st13" d="M351.6,333.2l7.3,4.2c0.4,0.2,0.4,0.7-0.1,1l-3.2,1.8c-0.5,0.3-1.3,0.3-1.7,0.1l-7.3-4.2
			c-0.4-0.2-0.4-0.7,0.1-1l3.2-1.8C350.4,333,351.2,332.9,351.6,333.2z"/>
		<path class="st13" d="M341.4,327.3l7.3,4.2c0.4,0.2,0.4,0.7-0.1,1l-3.2,1.8c-0.5,0.3-1.3,0.3-1.7,0.1l-7.3-4.2
			c-0.4-0.2-0.4-0.7,0.1-1l3.2-1.8C340.2,327.1,341,327,341.4,327.3z"/>
		<path class="st13" d="M331.3,321.5l7.3,4.2c0.4,0.2,0.4,0.7-0.1,1l-3.2,1.8c-0.5,0.3-1.3,0.3-1.7,0.1l-7.3-4.2
			c-0.4-0.2-0.4-0.7,0.1-1l3.2-1.8C330.1,321.2,330.9,321.2,331.3,321.5z"/>
		<path class="st13" d="M347,324.1l7.3,4.2c0.4,0.2,0.4,0.7-0.1,1l-3.2,1.8c-0.5,0.3-1.3,0.3-1.7,0.1l-7.3-4.2
			c-0.4-0.2-0.4-0.7,0.1-1l3.2-1.8C345.8,323.9,346.6,323.8,347,324.1z"/>
	</g>
	<g class="st12">
		<path class="st13" d="M215.5,260.4l-6.6-3.8c-0.5-0.3-0.5-0.8,0.1-1.2l7.7-4.5c0.6-0.4,1.5-0.4,2.1-0.1l6.6,3.8
			c0.5,0.3,0.5,0.8-0.1,1.2l-7.7,4.5C217,260.6,216.1,260.7,215.5,260.4z"/>
		<path class="st13" d="M225.7,266.2l-6.6-3.8c-0.5-0.3-0.5-0.8,0.1-1.2l7.7-4.5c0.6-0.4,1.5-0.4,2.1-0.1l6.6,3.8
			c0.5,0.3,0.5,0.8-0.1,1.2l-7.7,4.5C227.1,266.5,226.2,266.5,225.7,266.2z"/>
		<path class="st13" d="M235.8,272l-6.6-3.8c-0.5-0.3-0.5-0.8,0.1-1.2l7.7-4.5c0.6-0.4,1.5-0.4,2.1-0.1l6.6,3.8
			c0.5,0.3,0.5,0.8-0.1,1.2l-7.7,4.5C237.2,272.3,236.3,272.4,235.8,272z"/>
		<path class="st13" d="M249.8,267.2l-6.6-3.8c-0.5-0.3-0.5-0.8,0.1-1.2l6.5-3.7c0.6-0.4,1.5-0.4,2.1-0.1l6.6,3.8
			c0.5,0.3,0.5,0.8-0.1,1.2l-6.5,3.7C251.2,267.5,250.3,267.5,249.8,267.2z"/>
		<path class="st13" d="M259.9,273.1l-6.6-3.8c-0.5-0.3-0.5-0.8,0.1-1.2l6.5-3.7c0.6-0.4,1.5-0.4,2.1-0.1l6.6,3.8
			c0.5,0.3,0.5,0.8-0.1,1.2l-6.5,3.7C261.3,273.3,260.4,273.4,259.9,273.1z"/>
		<path class="st13" d="M270,278.9l-6.6-3.8c-0.5-0.3-0.5-0.8,0.1-1.2l6.5-3.7c0.6-0.4,1.5-0.4,2.1-0.1l6.6,3.8
			c0.5,0.3,0.5,0.8-0.1,1.2l-6.5,3.7C271.5,279.2,270.5,279.2,270,278.9z"/>
		<path class="st13" d="M280.1,284.8l-6.6-3.8c-0.5-0.3-0.5-0.8,0.1-1.2l6.5-3.7c0.6-0.4,1.5-0.4,2.1-0.1l6.6,3.8
			c0.5,0.3,0.5,0.8-0.1,1.2l-6.5,3.7C281.6,285,280.7,285.1,280.1,284.8z"/>
		<path class="st13" d="M290.3,290.6l-6.6-3.8c-0.5-0.3-0.5-0.8,0.1-1.2l6.5-3.7c0.6-0.4,1.5-0.4,2.1-0.1l6.6,3.8
			c0.5,0.3,0.5,0.8-0.1,1.2l-6.5,3.7C291.7,290.9,290.8,290.9,290.3,290.6z"/>
		<path class="st13" d="M300.4,296.4l-6.6-3.8c-0.5-0.3-0.5-0.8,0.1-1.2l6.5-3.7c0.6-0.4,1.5-0.4,2.1-0.1l6.6,3.8
			c0.5,0.3,0.5,0.8-0.1,1.2l-6.5,3.7C301.8,296.7,300.9,296.7,300.4,296.4z"/>
		<path class="st13" d="M310.5,302.3l-6.6-3.8c-0.5-0.3-0.5-0.8,0.1-1.2l6.5-3.7c0.6-0.4,1.5-0.4,2.1-0.1l6.6,3.8
			c0.5,0.3,0.5,0.8-0.1,1.2l-6.5,3.7C311.9,302.5,311,302.6,310.5,302.3z"/>
		<path class="st13" d="M320.6,308.1l-6.6-3.8c-0.5-0.3-0.5-0.8,0.1-1.2l6.5-3.7c0.6-0.4,1.5-0.4,2.1-0.1l6.6,3.8
			c0.5,0.3,0.5,0.8-0.1,1.2l-6.5,3.7C322.1,308.4,321.1,308.4,320.6,308.1z"/>
		<path class="st13" d="M330.7,314l-6.6-3.8c-0.5-0.3-0.5-0.8,0.1-1.2l6.5-3.7c0.6-0.4,1.5-0.4,2.1-0.1l6.6,3.8
			c0.5,0.3,0.5,0.8-0.1,1.2l-6.5,3.7C332.2,314.2,331.3,314.3,330.7,314z"/>
		<path class="st13" d="M340.9,319.8l-6.6-3.8c-0.5-0.3-0.5-0.8,0.1-1.2l6.5-3.7c0.6-0.4,1.5-0.4,2.1-0.1l6.6,3.8
			c0.5,0.3,0.5,0.8-0.1,1.2l-6.5,3.7C342.3,320.1,341.4,320.1,340.9,319.8z"/>
		<path class="st13" d="M264.7,264.5l-6.6-3.8c-0.5-0.3-0.5-0.8,0.1-1.2l6.5-3.7c0.6-0.4,1.5-0.4,2.1-0.1l6.6,3.8
			c0.5,0.3,0.5,0.8-0.1,1.2l-6.5,3.7C266.1,264.7,265.2,264.8,264.7,264.5z"/>
		<path class="st13" d="M254.4,258.5l-6.6-3.8c-0.5-0.3-0.5-0.8,0.1-1.2l6.5-3.7c0.6-0.4,1.5-0.4,2.1-0.1l6.6,3.8
			c0.5,0.3,0.5,0.8-0.1,1.2l-6.5,3.7C255.9,258.8,254.9,258.8,254.4,258.5z"/>
		<path class="st13" d="M244.1,252.6l-14.1-8.1c-0.5-0.3-0.5-0.8,0.1-1.2l6.5-3.7c0.6-0.4,1.5-0.4,2.1-0.1l14.1,8.1
			c0.5,0.3,0.5,0.8-0.1,1.2l-6.5,3.7C245.6,252.9,244.7,252.9,244.1,252.6z"/>
		<path class="st13" d="M251.3,245.4l-11.5-6.6c-0.5-0.3-0.5-0.8,0.1-1.2l6.5-3.7c0.6-0.4,1.5-0.4,2.1-0.1l11.5,6.6
			c0.5,0.3,0.5,0.8-0.1,1.2l-6.5,3.7C252.8,245.6,251.8,245.7,251.3,245.4z"/>
		<path class="st13" d="M274.8,270.3l-6.6-3.8c-0.5-0.3-0.5-0.8,0.1-1.2l6.5-3.7c0.6-0.4,1.5-0.4,2.1-0.1l6.6,3.8
			c0.5,0.3,0.5,0.8-0.1,1.2l-6.5,3.7C276.3,270.6,275.3,270.6,274.8,270.3z"/>
		<path class="st13" d="M284.9,276.1l-6.6-3.8c-0.5-0.3-0.5-0.8,0.1-1.2l6.5-3.7c0.6-0.4,1.5-0.4,2.1-0.1l6.6,3.8
			c0.5,0.3,0.5,0.8-0.1,1.2l-6.5,3.7C286.4,276.4,285.5,276.4,284.9,276.1z"/>
		<path class="st13" d="M295,282l-6.6-3.8c-0.5-0.3-0.5-0.8,0.1-1.2l6.5-3.7c0.6-0.4,1.5-0.4,2.1-0.1l6.6,3.8
			c0.5,0.3,0.5,0.8-0.1,1.2l-6.5,3.7C296.5,282.3,295.6,282.3,295,282z"/>
		<path class="st13" d="M305.2,287.8l-6.6-3.8c-0.5-0.3-0.5-0.8,0.1-1.2l6.5-3.7c0.6-0.4,1.5-0.4,2.1-0.1l6.6,3.8
			c0.5,0.3,0.5,0.8-0.1,1.2l-6.5,3.7C306.6,288.1,305.7,288.1,305.2,287.8z"/>
		<path class="st13" d="M315.3,293.7l-6.6-3.8c-0.5-0.3-0.5-0.8,0.1-1.2l6.5-3.7c0.6-0.4,1.5-0.4,2.1-0.1l6.6,3.8
			c0.5,0.3,0.5,0.8-0.1,1.2l-6.5,3.7C316.7,293.9,315.8,294,315.3,293.7z"/>
		<path class="st13" d="M325.4,299.5l-6.6-3.8c-0.5-0.3-0.5-0.8,0.1-1.2l6.5-3.7c0.6-0.4,1.5-0.4,2.1-0.1l6.6,3.8
			c0.5,0.3,0.5,0.8-0.1,1.2l-6.5,3.7C326.9,299.8,325.9,299.8,325.4,299.5z"/>
		<path class="st13" d="M335.5,305.4l-6.6-3.8c-0.5-0.3-0.5-0.8,0.1-1.2l6.5-3.7c0.6-0.4,1.5-0.4,2.1-0.1l6.6,3.8
			c0.5,0.3,0.5,0.8-0.1,1.2l-6.5,3.7C337,305.6,336.1,305.7,335.5,305.4z"/>
		<path class="st13" d="M345.7,311.2l-6.6-3.8c-0.5-0.3-0.5-0.8,0.1-1.2l6.5-3.7c0.6-0.4,1.5-0.4,2.1-0.1l6.6,3.8
			c0.5,0.3,0.5,0.8-0.1,1.2l-6.5,3.7C347.1,311.5,346.2,311.5,345.7,311.2z"/>
		<path class="st13" d="M355.8,317l-6.6-3.8c-0.5-0.3-0.5-0.8,0.1-1.2l6.5-3.7c0.6-0.4,1.5-0.4,2.1-0.1l6.6,3.8
			c0.5,0.3,0.5,0.8-0.1,1.2l-6.5,3.7C357.2,317.3,356.3,317.3,355.8,317z"/>
		<path class="st13" d="M373.8,327.4l-14.3-8.3c-0.5-0.3-0.5-0.8,0.1-1.2l6.5-3.7c0.6-0.4,1.5-0.4,2.1-0.1l14.3,8.3
			c0.5,0.3,0.5,0.8-0.1,1.2l-6.5,3.7C375.2,327.7,374.3,327.7,373.8,327.4z"/>
		<path class="st13" d="M393.5,316.1l-12.1-7c-0.5-0.3-0.5-0.8,0.1-1.2l6.5-3.7c0.6-0.4,1.5-0.4,2.1-0.1l12.1,7
			c0.5,0.3,0.5,0.8-0.1,1.2l-6.5,3.7C394.9,316.3,394,316.4,393.5,316.1z"/>
		<path class="st13" d="M292.5,269.2l-6.6-3.8c-0.5-0.3-0.5-0.8,0.1-1.2l6.5-3.7c0.6-0.4,1.5-0.4,2.1-0.1l6.6,3.8
			c0.5,0.3,0.5,0.8-0.1,1.2l-6.5,3.7C294,269.4,293.1,269.5,292.5,269.2z"/>
		<path class="st13" d="M282.2,263.2l-6.6-3.8c-0.5-0.3-0.5-0.8,0.1-1.2l6.5-3.7c0.6-0.4,1.5-0.4,2.1-0.1l6.6,3.8
			c0.5,0.3,0.5,0.8-0.1,1.2l-6.5,3.7C283.6,263.4,282.7,263.5,282.2,263.2z"/>
		<path class="st13" d="M271.8,257.2l-6.6-3.8c-0.5-0.3-0.5-0.8,0.1-1.2l6.5-3.7c0.6-0.4,1.5-0.4,2.1-0.1l6.6,3.8
			c0.5,0.3,0.5,0.8-0.1,1.2l-6.5,3.7C273.2,257.4,272.3,257.5,271.8,257.2z"/>
		<path class="st13" d="M261.4,251.2l-6.6-3.8c-0.5-0.3-0.5-0.8,0.1-1.2l6.5-3.7c0.6-0.4,1.5-0.4,2.1-0.1l6.6,3.8
			c0.5,0.3,0.5,0.8-0.1,1.2l-6.5,3.7C262.9,251.5,261.9,251.5,261.4,251.2z"/>
		<path class="st13" d="M302.7,275l-6.6-3.8c-0.5-0.3-0.5-0.8,0.1-1.2l6.5-3.7c0.6-0.4,1.5-0.4,2.1-0.1l6.6,3.8
			c0.5,0.3,0.5,0.8-0.1,1.2l-6.5,3.7C304.1,275.3,303.2,275.3,302.7,275z"/>
		<path class="st13" d="M312.8,280.8l-6.6-3.8c-0.5-0.3-0.5-0.8,0.1-1.2l6.5-3.7c0.6-0.4,1.5-0.4,2.1-0.1l6.6,3.8
			c0.5,0.3,0.5,0.8-0.1,1.2l-6.5,3.7C314.2,281.1,313.3,281.1,312.8,280.8z"/>
		<path class="st13" d="M322.9,286.7l-6.6-3.8c-0.5-0.3-0.5-0.8,0.1-1.2l6.5-3.7c0.6-0.4,1.5-0.4,2.1-0.1l6.6,3.8
			c0.5,0.3,0.5,0.8-0.1,1.2l-6.5,3.7C324.3,287,323.4,287,322.9,286.7z"/>
		<path class="st13" d="M333,292.5l-6.6-3.8c-0.5-0.3-0.5-0.8,0.1-1.2l6.5-3.7c0.6-0.4,1.5-0.4,2.1-0.1l6.6,3.8
			c0.5,0.3,0.5,0.8-0.1,1.2l-6.5,3.7C334.5,292.8,333.5,292.8,333,292.5z"/>
		<path class="st13" d="M343.1,298.4l-6.6-3.8c-0.5-0.3-0.5-0.8,0.1-1.2l6.5-3.7c0.6-0.4,1.5-0.4,2.1-0.1l6.6,3.8
			c0.5,0.3,0.5,0.8-0.1,1.2l-6.5,3.7C344.6,298.6,343.7,298.7,343.1,298.4z"/>
		<path class="st13" d="M353.3,304.2l-6.6-3.8c-0.5-0.3-0.5-0.8,0.1-1.2l6.5-3.7c0.6-0.4,1.5-0.4,2.1-0.1l6.6,3.8
			c0.5,0.3,0.5,0.8-0.1,1.2l-6.5,3.7C354.7,304.5,353.8,304.5,353.3,304.2z"/>
		<path class="st13" d="M363.4,310.1l-6.6-3.8c-0.5-0.3-0.5-0.8,0.1-1.2l6.5-3.7c0.6-0.4,1.5-0.4,2.1-0.1l6.6,3.8
			c0.5,0.3,0.5,0.8-0.1,1.2l-6.5,3.7C364.8,310.3,363.9,310.4,363.4,310.1z"/>
		<path class="st13" d="M373.5,315.9l-6.6-3.8c-0.5-0.3-0.5-0.8,0.1-1.2l6.5-3.7c0.6-0.4,1.5-0.4,2.1-0.1l6.6,3.8
			c0.5,0.3,0.5,0.8-0.1,1.2l-6.5,3.7C374.9,316.2,374,316.2,373.5,315.9z"/>
		<path class="st13" d="M383.6,321.7l-6.6-3.8c-0.5-0.3-0.5-0.8,0.1-1.2l6.5-3.7c0.6-0.4,1.5-0.4,2.1-0.1l6.6,3.8
			c0.5,0.3,0.5,0.8-0.1,1.2l-6.5,3.7C385.1,322,384.1,322,383.6,321.7z"/>
		<path class="st13" d="M287.2,254.7l-6.6-3.8c-0.5-0.3-0.5-0.8,0.1-1.2l6.5-3.7c0.6-0.4,1.5-0.4,2.1-0.1l6.6,3.8
			c0.5,0.3,0.5,0.8-0.1,1.2l-6.5,3.7C288.6,255,287.7,255,287.2,254.7z"/>
		<path class="st13" d="M277.1,248.9l-6.6-3.8c-0.5-0.3-0.5-0.8,0.1-1.2l6.5-3.7c0.6-0.4,1.5-0.4,2.1-0.1l6.6,3.8
			c0.5,0.3,0.5,0.8-0.1,1.2l-6.5,3.7C278.6,249.2,277.7,249.2,277.1,248.9z"/>
		<path class="st13" d="M267.1,243.1l-6.6-3.8c-0.5-0.3-0.5-0.8,0.1-1.2l6.5-3.7c0.6-0.4,1.5-0.4,2.1-0.1l6.6,3.8
			c0.5,0.3,0.5,0.8-0.1,1.2l-6.5,3.7C268.5,243.3,267.6,243.4,267.1,243.1z"/>
		<path class="st13" d="M257,237.3l-6.6-3.8c-0.5-0.3-0.5-0.8,0.1-1.2l6.5-3.7c0.6-0.4,1.5-0.4,2.1-0.1l6.6,3.8
			c0.5,0.3,0.5,0.8-0.1,1.2l-6.5,3.7C258.4,237.5,257.5,237.6,257,237.3z"/>
		<path class="st13" d="M267.3,231.3l-6.6-3.8c-0.5-0.3-0.5-0.8,0.1-1.2l2.1-1.2c0.6-0.4,1.5-0.4,2.1-0.1l6.6,3.8
			c0.5,0.3,0.5,0.8-0.1,1.2l-2.1,1.2C268.8,231.5,267.9,231.6,267.3,231.3z"/>
		<path class="st13" d="M280.5,238.9l-6.6-3.8c-0.5-0.3-0.5-0.8,0.1-1.2l2.1-1.2c0.6-0.4,1.5-0.4,2.1-0.1l6.6,3.8
			c0.5,0.3,0.5,0.8-0.1,1.2l-2.1,1.2C281.9,239.1,281,239.2,280.5,238.9z"/>
		<path class="st13" d="M290.5,244.7l-6.6-3.8c-0.5-0.3-0.5-0.8,0.1-1.2l2.1-1.2c0.6-0.4,1.5-0.4,2.1-0.1l6.6,3.8
			c0.5,0.3,0.5,0.8-0.1,1.2l-2.1,1.2C292,244.9,291,245,290.5,244.7z"/>
		<path class="st13" d="M300.5,250.4l-6.6-3.8c-0.5-0.3-0.5-0.8,0.1-1.2l2.1-1.2c0.6-0.4,1.5-0.4,2.1-0.1l6.6,3.8
			c0.5,0.3,0.5,0.8-0.1,1.2l-2.1,1.2C302,250.7,301.1,250.8,300.5,250.4z"/>
		<path class="st13" d="M310.6,256.2l-6.6-3.8c-0.5-0.3-0.5-0.8,0.1-1.2l2.1-1.2c0.6-0.4,1.5-0.4,2.1-0.1l6.6,3.8
			c0.5,0.3,0.5,0.8-0.1,1.2l-2.1,1.2C312,256.5,311.1,256.5,310.6,256.2z"/>
		<path class="st13" d="M366.6,288.6l-6.6-3.8c-0.5-0.3-0.5-0.8,0.1-1.2l2.1-1.2c0.6-0.4,1.5-0.4,2.1-0.1l6.6,3.8
			c0.5,0.3,0.5,0.8-0.1,1.2l-2.1,1.2C368,288.8,367.1,288.9,366.6,288.6z"/>
		<path class="st13" d="M376.6,294.4l-6.6-3.8c-0.5-0.3-0.5-0.8,0.1-1.2l2.1-1.2c0.6-0.4,1.5-0.4,2.1-0.1l6.6,3.8
			c0.5,0.3,0.5,0.8-0.1,1.2l-2.1,1.2C378,294.6,377.1,294.7,376.6,294.4z"/>
		<path class="st13" d="M386.6,300.1l-6.6-3.8c-0.5-0.3-0.5-0.8,0.1-1.2l2.1-1.2c0.6-0.4,1.5-0.4,2.1-0.1l6.6,3.8
			c0.5,0.3,0.5,0.8-0.1,1.2l-2.1,1.2C388.1,300.4,387.1,300.4,386.6,300.1z"/>
		<path class="st13" d="M396.6,305.9l-6.6-3.8c-0.5-0.3-0.5-0.8,0.1-1.2l2.1-1.2c0.6-0.4,1.5-0.4,2.1-0.1l6.6,3.8
			c0.5,0.3,0.5,0.8-0.1,1.2l-2.1,1.2C398.1,306.2,397.2,306.2,396.6,305.9z"/>
		<path class="st13" d="M297.3,260.5l-6.6-3.8c-0.5-0.3-0.5-0.8,0.1-1.2l6.5-3.7c0.6-0.4,1.5-0.4,2.1-0.1l6.6,3.8
			c0.5,0.3,0.5,0.8-0.1,1.2l-6.5,3.7C298.8,260.8,297.8,260.8,297.3,260.5z"/>
		<path class="st13" d="M307.4,266.4l-6.6-3.8c-0.5-0.3-0.5-0.8,0.1-1.2l6.5-3.7c0.6-0.4,1.5-0.4,2.1-0.1l6.6,3.8
			c0.5,0.3,0.5,0.8-0.1,1.2l-6.5,3.7C308.9,266.7,308,266.7,307.4,266.4z"/>
		<path class="st13" d="M317.6,272.2l-6.6-3.8c-0.5-0.3-0.5-0.8,0.1-1.2l6.5-3.7c0.6-0.4,1.5-0.4,2.1-0.1l6.6,3.8
			c0.5,0.3,0.5,0.8-0.1,1.2l-6.5,3.7C319,272.5,318.1,272.5,317.6,272.2z"/>
		<path class="st13" d="M327.7,278.1l-6.6-3.8c-0.5-0.3-0.5-0.8,0.1-1.2l6.5-3.7c0.6-0.4,1.5-0.4,2.1-0.1l6.6,3.8
			c0.5,0.3,0.5,0.8-0.1,1.2l-6.5,3.7C329.1,278.3,328.2,278.4,327.7,278.1z"/>
		<path class="st13" d="M337.8,283.9l-6.6-3.8c-0.5-0.3-0.5-0.8,0.1-1.2l6.5-3.7c0.6-0.4,1.5-0.4,2.1-0.1l6.6,3.8
			c0.5,0.3,0.5,0.8-0.1,1.2l-6.5,3.7C339.2,284.2,338.3,284.2,337.8,283.9z"/>
		<path class="st13" d="M347.9,289.8l-6.6-3.8c-0.5-0.3-0.5-0.8,0.1-1.2l6.5-3.7c0.6-0.4,1.5-0.4,2.1-0.1l6.6,3.8
			c0.5,0.3,0.5,0.8-0.1,1.2l-6.5,3.7C349.4,290,348.5,290.1,347.9,289.8z"/>
		<path class="st13" d="M358,295.6l-6.6-3.8c-0.5-0.3-0.5-0.8,0.1-1.2l6.5-3.7c0.6-0.4,1.5-0.4,2.1-0.1l6.6,3.8
			c0.5,0.3,0.5,0.8-0.1,1.2l-6.5,3.7C359.5,295.9,358.6,295.9,358,295.6z"/>
		<path class="st13" d="M368.2,301.4l-6.6-3.8c-0.5-0.3-0.5-0.8,0.1-1.2l6.5-3.7c0.6-0.4,1.5-0.4,2.1-0.1l6.6,3.8
			c0.5,0.3,0.5,0.8-0.1,1.2l-6.5,3.7C369.6,301.7,368.7,301.8,368.2,301.4z"/>
		<path class="st13" d="M378.3,307.3l-6.6-3.8c-0.5-0.3-0.5-0.8,0.1-1.2l6.5-3.7c0.6-0.4,1.5-0.4,2.1-0.1l6.6,3.8
			c0.5,0.3,0.5,0.8-0.1,1.2l-6.5,3.7C379.7,307.6,378.8,307.6,378.3,307.3z"/>
		<path class="st13" d="M239.5,261.3l-19.3-11.1c-0.5-0.3-0.5-0.8,0.1-1.2l6.5-3.7c0.6-0.4,1.5-0.4,2.1-0.1l19.3,11.1
			c0.5,0.3,0.5,0.8-0.1,1.2l-6.5,3.7C240.9,261.5,240,261.6,239.5,261.3z"/>
		<path class="st13" d="M363.8,333.1l-19.3-11.1c-0.5-0.3-0.5-0.8,0.1-1.2l6.5-3.7c0.6-0.4,1.5-0.4,2.1-0.1l19.3,11.1
			c0.5,0.3,0.5,0.8-0.1,1.2l-6.5,3.7C365.2,333.3,364.3,333.4,363.8,333.1z"/>
		<path class="st13" d="M323.3,322.6l-6.6-3.8c-0.5-0.3-0.5-0.8,0.1-1.2l7.7-4.5c0.6-0.4,1.5-0.4,2.1-0.1l6.6,3.8
			c0.5,0.3,0.5,0.8-0.1,1.2l-7.7,4.5C324.8,322.9,323.8,322.9,323.3,322.6z"/>
		<path class="st13" d="M249.8,280.2l-10.5-6.1c-0.5-0.3-0.5-0.8,0.1-1.2l7.7-4.5c0.6-0.4,1.5-0.4,2.1-0.1l10.5,6.1
			c0.5,0.3,0.5,0.8-0.1,1.2l-7.7,4.5C251.3,280.4,250.3,280.5,249.8,280.2z"/>
		<path class="st13" d="M313.6,317l-10.5-6.1c-0.5-0.3-0.5-0.8,0.1-1.2l7.7-4.5c0.6-0.4,1.5-0.4,2.1-0.1l10.5,6.1
			c0.5,0.3,0.5,0.8-0.1,1.2l-7.7,4.5C315,317.2,314.1,317.3,313.6,317z"/>
		<path class="st13" d="M264.4,288.6l-10.5-6.1c-0.5-0.3-0.5-0.8,0.1-1.2l7.7-4.5c0.6-0.4,1.5-0.4,2.1-0.1l10.5,6.1
			c0.5,0.3,0.5,0.8-0.1,1.2l-7.7,4.5C265.9,288.9,265,288.9,264.4,288.6z"/>
		<path class="st13" d="M264,276.8l45.6,26.3c0.6,0.3,0.6,0.9,0,1.2l-7.9,4.6c-0.6,0.3-1.5,0.3-2,0L254,282.6L264,276.8z"/>
		<path class="st13" d="M351.6,333.2l7.3,4.2c0.4,0.2,0.4,0.7-0.1,1l-3.2,1.8c-0.5,0.3-1.3,0.3-1.7,0.1l-7.3-4.2
			c-0.4-0.2-0.4-0.7,0.1-1l3.2-1.8C350.4,333,351.2,332.9,351.6,333.2z"/>
		<path class="st13" d="M341.4,327.3l7.3,4.2c0.4,0.2,0.4,0.7-0.1,1l-3.2,1.8c-0.5,0.3-1.3,0.3-1.7,0.1l-7.3-4.2
			c-0.4-0.2-0.4-0.7,0.1-1l3.2-1.8C340.2,327.1,341,327,341.4,327.3z"/>
		<path class="st13" d="M331.3,321.5l7.3,4.2c0.4,0.2,0.4,0.7-0.1,1l-3.2,1.8c-0.5,0.3-1.3,0.3-1.7,0.1l-7.3-4.2
			c-0.4-0.2-0.4-0.7,0.1-1l3.2-1.8C330.1,321.2,330.9,321.2,331.3,321.5z"/>
		<path class="st13" d="M347,324.1l7.3,4.2c0.4,0.2,0.4,0.7-0.1,1l-3.2,1.8c-0.5,0.3-1.3,0.3-1.7,0.1l-7.3-4.2
			c-0.4-0.2-0.4-0.7,0.1-1l3.2-1.8C345.8,323.9,346.6,323.8,347,324.1z"/>
	</g>
	<radialGradient id="SVGID_9_" cx="228.028" cy="100.3334" r="300.175" gradientUnits="userSpaceOnUse">
		<stop  offset="0" style="stop-color:#E39A65"/>
		<stop  offset="0.4742" style="stop-color:#A92FFB"/>
		<stop  offset="0.5875" style="stop-color:#891CFB"/>
		<stop  offset="0.7262" style="stop-color:#6507FA"/>
		<stop  offset="1" style="stop-color:#3919BB"/>
	</radialGradient>
	<path class="st14" d="M454.1,312.2L260.8,200.6c-3-1.8-4.6-6-3.5-9.6l43.7-142c1.1-3.5,4.4-5,7.5-3.2l193.4,111.6
		c3,1.8,4.6,6,3.5,9.6l-43.7,142C460.5,312.6,457.1,314,454.1,312.2z"/>
	<linearGradient id="SVGID_10_" gradientUnits="userSpaceOnUse" x1="261.0207" y1="179.1299" x2="501.5553" y2="179.1299">
		<stop  offset="0" style="stop-color:#3919BB"/>
		<stop  offset="1" style="stop-color:#6507FA"/>
	</linearGradient>
	<path class="st15" d="M452.3,307.3L264.7,198.9c-2.9-1.7-4.4-5.8-3.4-9.1L303.2,54c1-3.4,4.2-4.7,7.1-3.1l187.5,108.4
		c2.9,1.7,4.4,5.8,3.4,9.1l-41.8,135.7C458.4,307.6,455.2,309,452.3,307.3z"/>
	<path class="st16" d="M452.3,307.3L264.7,198.9c-2.9-1.7-4.4-5.8-3.4-9.1L303.2,54c1-3.4,4.2-4.7,7.1-3.1l187.5,108.4
		c2.9,1.7,4.4,5.8,3.4,9.1l-41.8,135.7C458.4,307.6,455.2,309,452.3,307.3z"/>
	<path class="st16" d="M452.3,307.3L264.7,198.9c-2.9-1.7-4.4-5.8-3.4-9.1L303.2,54c1-3.4,4.2-4.7,7.1-3.1l187.5,108.4
		c2.9,1.7,4.4,5.8,3.4,9.1l-41.8,135.7C458.4,307.6,455.2,309,452.3,307.3z"/>
	<path class="st17" d="M442.2,265.8l-127-73.3c-2-1.2-3-4-2.3-6.3L341.6,93c0.7-2.3,2.9-3.3,4.9-2.1l127,73.3c2,1.2,3,4,2.3,6.3
		l-28.7,93.2C446.4,266,444.2,267,442.2,265.8z"/>
	<g class="st18">
		<radialGradient id="SVGID_11_" cx="118.4476" cy="36.2325" r="467.5147" gradientUnits="userSpaceOnUse">
			<stop  offset="0" style="stop-color:#E39A65"/>
			<stop  offset="0.4742" style="stop-color:#A92FFB"/>
			<stop  offset="0.5875" style="stop-color:#891CFB"/>
			<stop  offset="0.7262" style="stop-color:#6507FA"/>
			<stop  offset="1" style="stop-color:#3919BB"/>
		</radialGradient>
		<path class="st19" d="M425.1,268l-127-73.3c-2-1.2-3-4-2.3-6.3l28.7-93.2c0.7-2.3,2.9-3.3,4.9-2.1l127,73.3c2,1.2,3,4,2.3,6.3
			L430,266C429.2,268.3,427,269.2,425.1,268z"/>
	</g>
	<g class="st20">
		<path class="st13" d="M425.1,268l-127-73.3c-2-1.2-3-4-2.3-6.3l28.7-93.2c0.7-2.3,2.9-3.3,4.9-2.1l127,73.3c2,1.2,3,4,2.3,6.3
			L430,266C429.2,268.3,427,269.2,425.1,268z"/>
	</g>
	<path class="st11" d="M456.3,166.5l-127-73.3c-1.3-0.7-2.6-0.6-3.6,0.1c0.6,0,1.2,0.1,1.8,0.5l127,73.3c2,1.2,3,4,2.3,6.3
		l-28.7,93.2c-0.3,0.9-0.7,1.5-1.3,2c1.4,0,2.6-1,3.1-2.6l28.7-93.2C459.4,170.4,458.3,167.6,456.3,166.5z"/>
	<path class="st16" d="M264.9,344.2c-1.7,0-3.4-0.4-4.7-1.1v0l-50.9-29.4c-1.3-0.8-2.1-1.9-2.1-3.1c0-1.4,1-2.9,2.8-3.9l26.2-15.1
		c3.2-1.8,7.9-2,10.7-0.4l50.9,29.4c1.3,0.8,2.1,1.9,2.1,3.1c0,1.4-1,2.9-2.8,3.9l-26.2,15.1C269.2,343.7,267,344.2,264.9,344.2z
		 M242.3,291.5c-1.8,0-3.8,0.4-5.3,1.3L210.8,308c-1.3,0.8-2.1,1.7-2.1,2.6c0,0.9,0.7,1.5,1.4,1.9l50.9,29.4
		c2.3,1.3,6.5,1.1,9.2-0.4l26.2-15.1c1.3-0.8,2.1-1.7,2.1-2.6c0-0.9-0.7-1.5-1.4-1.9l-50.9-29.4
		C245.2,291.8,243.8,291.5,242.3,291.5z"/>
	<g class="st18">
		<path class="st21" d="M360.3,142.1l-7.8-4.5c-0.7-0.4-1.1-1.4-0.9-2.3l0,0c0.2-0.8,1-1.2,1.8-0.7l7.8,4.5c0.7,0.4,1.1,1.4,0.9,2.3
			l0,0C361.8,142.2,361,142.5,360.3,142.1z"/>
		<path class="st21" d="M379,152.9l-11.6-6.7c-0.7-0.4-1.1-1.4-0.9-2.3l0,0c0.2-0.8,1-1.2,1.8-0.7l11.6,6.7c0.7,0.4,1.1,1.4,0.9,2.3
			l0,0C380.5,153,379.7,153.3,379,152.9z"/>
		<path class="st21" d="M344.5,177l-7.8-4.5c-0.7-0.4-1.1-1.4-0.9-2.3l0,0c0.2-0.8,1-1.2,1.8-0.7l7.8,4.5c0.7,0.4,1.1,1.4,0.9,2.3
			l0,0C346,177.1,345.2,177.4,344.5,177z"/>
		<path class="st21" d="M361.1,186.6l-11.6-6.7c-0.7-0.4-1.1-1.4-0.9-2.3l0,0c0.2-0.8,1-1.2,1.8-0.7l11.6,6.7
			c0.7,0.4,1.1,1.4,0.9,2.3l0,0C362.7,186.7,361.9,187.1,361.1,186.6z"/>
		<path class="st21" d="M336.8,135.8l-4.9-2.8c-0.7-0.4-1.1-1.4-0.9-2.3l0,0c0.2-0.8,1-1.2,1.8-0.7l4.9,2.8c0.7,0.4,1.1,1.4,0.9,2.3
			l0,0C338.3,135.9,337.5,136.3,336.8,135.8z"/>
		<path class="st21" d="M351.5,151.7l-15-8.6c-0.7-0.4-1.1-1.4-0.9-2.3l0,0c0.2-0.8,1-1.2,1.8-0.7l15,8.6c0.7,0.4,1.1,1.4,0.9,2.3
			l0,0C353.1,151.8,352.3,152.1,351.5,151.7z"/>
		<path class="st21" d="M337.7,158.4l-4.9-2.8c-0.7-0.4-1.1-1.4-0.9-2.3l0,0c0.2-0.8,1-1.2,1.8-0.7l4.9,2.8c0.7,0.4,1.1,1.4,0.9,2.3
			h0C339.2,158.5,338.5,158.8,337.7,158.4z"/>
		<path class="st21" d="M362.9,202.4l-13.1-7.6c-0.7-0.4-1.1-1.4-0.9-2.3l0,0c0.2-0.8,1-1.2,1.8-0.7l13.1,7.6
			c0.7,0.4,1.1,1.4,0.9,2.3l0,0C364.5,202.5,363.7,202.8,362.9,202.4z"/>
		<path class="st21" d="M332.2,169.9l-3.1-1.8c-0.7-0.4-1.1-1.4-0.9-2.3l0,0c0.2-0.8,1-1.2,1.8-0.7l3.1,1.8c0.7,0.4,1.1,1.4,0.9,2.3
			l0,0C333.8,170,333,170.4,332.2,169.9z"/>
		<path class="st21" d="M329.3,182.9l-3.9-2.3c-0.7-0.4-1.1-1.4-0.9-2.3v0c0.2-0.8,1-1.2,1.8-0.7l3.9,2.3c0.7,0.4,1.1,1.4,0.9,2.3
			l0,0C330.8,183,330,183.3,329.3,182.9z"/>
		<path class="st21" d="M344.5,191.7l-10.3-5.9c-0.7-0.4-1.1-1.4-0.9-2.3l0,0c0.2-0.8,1-1.2,1.8-0.7l10.3,5.9
			c0.7,0.4,1.1,1.4,0.9,2.3l0,0C346,191.8,345.2,192.1,344.5,191.7z"/>
		<path class="st21" d="M330.9,191.2l-7.4-4.3c-0.7-0.4-1.1-1.4-0.9-2.3l0,0c0.2-0.8,1-1.2,1.8-0.7l7.4,4.3c0.7,0.4,1.1,1.4,0.9,2.3
			l0,0C332.4,191.3,331.6,191.6,330.9,191.2z"/>
		<path class="st21" d="M374.2,208.9l-4.8-2.7c-0.7-0.4-1.1-1.4-0.9-2.3l0,0c0.2-0.8,1-1.2,1.8-0.7l4.8,2.7c0.7,0.4,1.1,1.4,0.9,2.3
			l0,0C375.7,209,374.9,209.3,374.2,208.9z"/>
		<path class="st21" d="M356,169l-13.1-7.6c-0.7-0.4-1.1-1.4-0.9-2.3l0,0c0.2-0.8,1-1.2,1.8-0.7l13.1,7.6c0.7,0.4,1.1,1.4,0.9,2.3
			l0,0C357.5,169,356.7,169.4,356,169z"/>
	</g>
	<path class="st22" d="M357.5,162.5l-22.8-13.2c-0.7-0.4-1.1-1.4-0.9-2.3l0,0c0.2-0.8,1-1.2,1.8-0.7l22.8,13.2
		c0.7,0.4,1.1,1.4,0.9,2.3l0,0C359,162.6,358.2,162.9,357.5,162.5z"/>
	<path class="st22" d="M344.1,169.4l-13.1-7.6c-0.7-0.4-1.1-1.4-0.9-2.3l0,0c0.2-0.8,1-1.2,1.8-0.7l13.1,7.6
		c0.7,0.4,1.1,1.4,0.9,2.3l0,0C345.6,169.5,344.8,169.8,344.1,169.4z"/>
	<path class="st22" d="M365.9,174.7l-4.8-2.7c-0.7-0.4-1.1-1.4-0.9-2.3l0,0c0.2-0.8,1-1.2,1.8-0.7l4.8,2.7c0.7,0.4,1.1,1.4,0.9,2.3
		l0,0C367.4,174.8,366.6,175.1,365.9,174.7z"/>
	<path class="st22" d="M414.3,173.2L386.1,157c-0.7-0.4-1.1-1.4-0.9-2.3l0,0c0.2-0.8,1-1.2,1.8-0.7l28.2,16.3
		c0.7,0.4,1.1,1.4,0.9,2.3l0,0C415.8,173.3,415,173.7,414.3,173.2z"/>
	<path class="st23" d="M343,183.5l-15.7-9.1c-0.7-0.4-1.1-1.4-0.9-2.3l0,0c0.2-0.8,1-1.2,1.8-0.7l15.7,9.1c0.7,0.4,1.1,1.4,0.9,2.3
		l0,0C344.5,183.6,343.7,183.9,343,183.5z"/>
	<path class="st23" d="M345.3,133.4l-11.6-6.7c-0.7-0.4-1.1-1.4-0.9-2.3l0,0c0.2-0.8,1-1.2,1.8-0.7l11.6,6.7
		c0.7,0.4,1.1,1.4,0.9,2.3l0,0C346.8,133.5,346.1,133.8,345.3,133.4z"/>
	<path class="st22" d="M328.5,197.2l-13.4-7.7c-0.7-0.4-1.1-1.4-0.9-2.3l0,0c0.2-0.8,1-1.2,1.8-0.7l13.4,7.7
		c0.7,0.4,1.1,1.4,0.9,2.3l0,0C330,197.2,329.2,197.6,328.5,197.2z"/>
	<path class="st11" d="M417.5,158.7l-5.7-3.3c-0.5-0.3-0.8-1-0.6-1.6l0,0c0.2-0.6,0.8-0.8,1.3-0.5l5.7,3.3c0.5,0.3,0.8,1,0.6,1.6
		l0,0C418.6,158.8,418,159.1,417.5,158.7z"/>
	<path class="st11" d="M428.4,165.1l-5.7-3.3c-0.5-0.3-0.8-1-0.6-1.6l0,0c0.2-0.6,0.8-0.8,1.3-0.5l5.7,3.3c0.5,0.3,0.8,1,0.6,1.6
		l0,0C429.5,165.1,428.9,165.4,428.4,165.1z"/>
	<path class="st11" d="M439.3,171.4l-5.7-3.3c-0.5-0.3-0.8-1-0.6-1.6l0,0c0.2-0.6,0.8-0.8,1.3-0.5l5.7,3.3c0.5,0.3,0.8,1,0.6,1.6
		l0,0C440.5,171.5,439.9,171.7,439.3,171.4z"/>
	<path class="st23" d="M444.7,174.5l-0.2-0.1c-0.5-0.3-0.8-1-0.6-1.6l0,0c0.2-0.6,0.8-0.8,1.3-0.5l0.2,0.1c0.5,0.3,0.8,1,0.6,1.6
		l0,0C445.8,174.6,445.3,174.8,444.7,174.5z"/>
	<linearGradient id="SVGID_12_" gradientUnits="userSpaceOnUse" x1="97.0285" y1="212.0335" x2="200.2163" y2="212.0335">
		<stop  offset="0" style="stop-color:#E39A65"/>
		<stop  offset="1" style="stop-color:#E95F8D"/>
	</linearGradient>
	<path class="st24" d="M148.6,241.6c-3.6,0-7.3-0.9-10.5-2.8l0,0l-38.4-22.2c-1.7-1-2.7-2.7-2.7-4.6c0-1.9,1-3.6,2.7-4.6l38.4-22.2
		c6.5-3.7,14.5-3.7,21,0l38.4,22.2c1.7,1,2.7,2.7,2.7,4.6c0,1.9-1,3.6-2.7,4.6l-38.4,22.2C155.9,240.7,152.3,241.6,148.6,241.6z
		 M139.4,236.7c5.7,3.3,12.8,3.3,18.5,0l38.4-22.2c0.9-0.5,1.4-1.4,1.4-2.4c0-1-0.5-1.9-1.4-2.4l-38.4-22.2
		c-5.7-3.3-12.8-3.3-18.5,0l-38.4,22.2c-0.9,0.5-1.4,1.4-1.4,2.4c0,1,0.5,1.9,1.4,2.4L139.4,236.7z"/>
	<ellipse class="st6" cx="148.4" cy="212.6" rx="26.4" ry="15.2"/>
	<radialGradient id="SVGID_13_" cx="106.1767" cy="127.8634" r="222.2327" gradientUnits="userSpaceOnUse">
		<stop  offset="0" style="stop-color:#E39A65"/>
		<stop  offset="0.1528" style="stop-color:#A92FFB"/>
		<stop  offset="0.4087" style="stop-color:#3919BB"/>
		<stop  offset="0.9311" style="stop-color:#3919BB"/>
	</radialGradient>
	<path class="st25" d="M187.6,103.9h-75.2l7,81.4l0,0c0,4.5,3,9,9,12.5c12,6.9,31.3,6.9,43.3,0c6-3.4,9-8,9-12.5L187.6,103.9z"/>
	<path class="st16" d="M187.6,103.9h-75.2l1.2,13.4c1.7,2.2,4,4.3,7,6.3c14.4,9.5,38.1,11.4,54.2,4.5l-2.5,59.5
		c-0.1,2.6-1,5.1-2.7,7.1c-2.4,2.9-7.1,6.2-16.1,8.1c6.6-0.4,13.1-2.1,18.2-5.1c6-3.4,9-8,9-12.5l5.6-65.3l0,0L187.6,103.9z"/>
	<ellipse class="st16" cx="150" cy="103.9" rx="37.6" ry="21.7"/>
	<ellipse class="st16" cx="150" cy="96.3" rx="32.4" ry="18.7"/>
	<linearGradient id="SVGID_14_" gradientUnits="userSpaceOnUse" x1="110.1098" y1="100.3333" x2="189.8229" y2="100.3333">
		<stop  offset="0" style="stop-color:#E39A65"/>
		<stop  offset="0.252" style="stop-color:#A92FFB"/>
		<stop  offset="0.5556" style="stop-color:#3919BB"/>
	</linearGradient>
	<path class="st26" d="M189.8,102.9L189.8,102.9L189.8,102.9c0-0.1,0-0.1,0-0.2l-0.7-7.3l0,0.1c-0.3-5.5-4.1-11-11.4-15.2
		c-15.3-8.8-40-8.8-55.3,0c-7.5,4.3-11.3,9.9-11.4,15.6l0,0l-0.7,6.5c0,0.2,0,0.3-0.1,0.5l0,0.1l0,0c-0.4,6.2,3.5,12.4,11.6,17.2
		c15.6,9,40.8,9,56.4,0C186.4,115.4,190.3,109.1,189.8,102.9z"/>
	<linearGradient id="SVGID_15_" gradientUnits="userSpaceOnUse" x1="117.5842" y1="96.2829" x2="182.3449" y2="96.2829">
		<stop  offset="0" style="stop-color:#4F1FEC"/>
		<stop  offset="1" style="stop-color:#A92FFB"/>
	</linearGradient>
	<ellipse class="st27" cx="150" cy="96.3" rx="32.4" ry="18.7"/>
	<linearGradient id="SVGID_16_" gradientUnits="userSpaceOnUse" x1="116.0478" y1="96.2829" x2="180.8085" y2="96.2829">
		<stop  offset="0" style="stop-color:#4F1FEC"/>
		<stop  offset="1" style="stop-color:#A92FFB"/>
	</linearGradient>
	<ellipse class="st28" cx="148.4" cy="96.3" rx="32.4" ry="18.7"/>
	<path class="st16" d="M130.9,85.8c12.6-7.3,33.1-7.3,45.8,0c0.2,0.1,0.3,0.2,0.5,0.3c-1.2-1.1-2.6-2.1-4.3-3.1
		c-12.6-7.3-33.1-7.3-45.8,0c-12.5,7.2-12.6,18.8-0.5,26.1C118.5,102,119.9,92.2,130.9,85.8z"/>
	<linearGradient id="SVGID_17_" gradientUnits="userSpaceOnUse" x1="117.5895" y1="87.7469" x2="199.2418" y2="87.7469">
		<stop  offset="0" style="stop-color:#131060"/>
		<stop  offset="0.1857" style="stop-color:#141062"/>
		<stop  offset="0.2823" style="stop-color:#19106A"/>
		<stop  offset="0.3584" style="stop-color:#221078"/>
		<stop  offset="0.4238" style="stop-color:#2E0F8B"/>
		<stop  offset="0.4823" style="stop-color:#3E0FA3"/>
		<stop  offset="0.5359" style="stop-color:#510EC2"/>
		<stop  offset="0.5847" style="stop-color:#680DE5"/>
		<stop  offset="0.6071" style="stop-color:#740DF8"/>
		<stop  offset="0.6179" style="stop-color:#7A14F0"/>
		<stop  offset="0.6826" style="stop-color:#9B3CC3"/>
		<stop  offset="0.7477" style="stop-color:#B75D9D"/>
		<stop  offset="0.8123" style="stop-color:#CC7680"/>
		<stop  offset="0.8762" style="stop-color:#DC886C"/>
		<stop  offset="0.9391" style="stop-color:#E5935F"/>
		<stop  offset="1" style="stop-color:#E8975B"/>
	</linearGradient>
	<path class="st29" d="M127.1,86.3c12.6-7.3,33.1-7.3,45.8,0c5.6,3.2,8.7,7.4,9.4,11.6c0.8-5.3-2.3-10.8-9.4-14.8
		c-12.6-7.3-33.1-7.3-45.8,0c-7,4.1-10.2,9.5-9.4,14.8C118.3,93.7,121.5,89.5,127.1,86.3z"/>
	<radialGradient id="SVGID_18_" cx="100.1604" cy="77.7804" r="145.3755" gradientUnits="userSpaceOnUse">
		<stop  offset="0" style="stop-color:#E39A65"/>
		<stop  offset="0.252" style="stop-color:#A92FFB"/>
		<stop  offset="0.7357" style="stop-color:#3919BB"/>
	</radialGradient>
	<path class="st30" d="M177.8,80.5c-15.2-9-40.1-9.2-55.5-0.5s-15.5,23-0.3,32c15.2,9,40.1,9.2,55.5,0.5
		C193,103.8,193.1,89.5,177.8,80.5z M172.9,109.5c-4.2,2.4-9.3,4-14.7,4.9l-0.6-1.9c-0.2-0.8-1-1.3-1.8-1.3h-11.6
		c-0.8,0-1.5,0.5-1.8,1.3l-0.6,1.9c-5.4-0.8-10.5-2.4-14.7-4.9c-12.6-7.3-12.6-19.1,0-26.4c12.6-7.3,33.1-7.3,45.8,0
		C185.5,90.4,185.5,102.2,172.9,109.5z"/>
	<g class="st18">
		<path class="st21" d="M172.9,81.7c-12.6-7.3-33.1-7.3-45.8,0c-6.6,3.8-9.8,8.9-9.5,13.9c0.3-4.6,3.4-9.1,9.5-12.5
			c12.6-7.3,33.1-7.3,45.8,0c6,3.5,9.2,8,9.5,12.5C182.6,90.6,179.5,85.5,172.9,81.7z"/>
		<path class="st21" d="M177.6,111.2c-15.4,8.7-40.2,8.5-55.5-0.5c-7.3-4.3-11-9.8-11.3-15.3c-0.3,6,3.5,12,11.3,16.7
			c15.2,9,40.1,9.2,55.5,0.5c8.1-4.6,11.9-10.7,11.6-16.8C188.9,101.4,185,106.9,177.6,111.2z"/>
	</g>
	<path class="st31" d="M153.9,115.4H146c-0.2,0-0.4-0.2-0.4-0.4v-1c0-0.2,0.2-0.4,0.4-0.4h7.8c0.2,0,0.4,0.2,0.4,0.4v1
		C154.3,115.2,154.1,115.4,153.9,115.4z"/>
	<linearGradient id="SVGID_19_" gradientUnits="userSpaceOnUse" x1="144.8394" y1="114.0994" x2="156.1354" y2="114.0994">
		<stop  offset="0" style="stop-color:#131060"/>
		<stop  offset="0.1857" style="stop-color:#141062"/>
		<stop  offset="0.2823" style="stop-color:#19106A"/>
		<stop  offset="0.3584" style="stop-color:#221078"/>
		<stop  offset="0.4238" style="stop-color:#2E0F8B"/>
		<stop  offset="0.4823" style="stop-color:#3E0FA3"/>
		<stop  offset="0.5359" style="stop-color:#510EC2"/>
		<stop  offset="0.5847" style="stop-color:#680DE5"/>
		<stop  offset="0.6071" style="stop-color:#740DF8"/>
		<stop  offset="0.6179" style="stop-color:#7A14F0"/>
		<stop  offset="0.6826" style="stop-color:#9B3CC3"/>
		<stop  offset="0.7477" style="stop-color:#B75D9D"/>
		<stop  offset="0.8123" style="stop-color:#CC7680"/>
		<stop  offset="0.8762" style="stop-color:#DC886C"/>
		<stop  offset="0.9391" style="stop-color:#E5935F"/>
		<stop  offset="1" style="stop-color:#E8975B"/>
	</linearGradient>
	<path class="st32" d="M153.4,113.5h-6.9c-0.5,0-0.9,0.4-0.9,0.9v0.1c0,0.1,0,0.2,0,0.2c0.1-0.4,0.4-0.6,0.8-0.6h6.9
		c0.4,0,0.7,0.3,0.8,0.6c0-0.1,0-0.2,0-0.2v-0.1C154.3,113.9,153.9,113.5,153.4,113.5z"/>
	<g class="st18">
		<path class="st33" d="M151,177c-0.9,3.2-4.1,5.1-7.3,4.3c-3.2-0.9-5.1-4.1-4.3-7.3c0.9-3.2,3.9-4.1,7.1-3.3
			C149.7,171.5,151.9,173.8,151,177z"/>
		<path class="st33" d="M155.8,170.6c-1.2,1.2-2.8,1-3.8,0s-1.1-2.6,0.1-3.8c1.2-1.2,3.5-1.8,4.5-0.7
			C157.6,167.2,157,169.5,155.8,170.6z"/>
		<path class="st33" d="M149.5,165.6c-0.3,1.7-1.6,2.4-3.1,2.2c-1.4-0.3-2.4-1.5-2.1-3.1c0.3-1.7,1.8-3.5,3.3-3.2
			C149,161.7,149.8,164,149.5,165.6z"/>
		<path class="st33" d="M141.7,164.9c0.6,1.6-0.1,2.9-1.4,3.5c-1.4,0.6-2.8,0.1-3.5-1.5c-0.6-1.6-0.3-3.9,1-4.5
			C139.2,161.8,141.1,163.3,141.7,164.9z"/>
	</g>
	<path class="st34" d="M152.4,114.4c0,0,21-7,12.5-31.2s-25.1-31.5-18.4-50.8c0,0-10.5,15.6-0.7,36.8s11.9,18.7,11.8,28.9
		c-0.1,12-9.9,16.4-9.9,16.4H152.4z"/>
	<path class="st34" d="M154.3,35.7c0,0-2.2-14.4,11.4-29c0,0-12,26.8-8.1,40C157.6,46.7,154.4,38.3,154.3,35.7z"/>
</g>
<g class="st2">
	<g class="st18">
		
			<image style="overflow:visible;" width="512" height="512" xlink:href="../../../Vector Resources/publisher.png"  transform="matrix(0.2605 0 0 0.2605 233.7836 257.135)">
		</image>
		
			<image style="overflow:visible;" width="512" height="512" xlink:href="../../../Vector Resources/word.png"  transform="matrix(0.2853 0 0 0.2925 33.913 251.5651)">
		</image>
		
			<image style="overflow:visible;" width="512" height="512" xlink:href="../../../Vector Resources/excel.png"  transform="matrix(0.2816 0 0 0.2816 421.8895 254.3501)">
		</image>
	</g>
	
		<image style="display:inline;overflow:visible;" width="512" height="512" xlink:href="../../../Vector Resources/office.png"  transform="matrix(0.3189 0 0 0.3189 218.3659 48.6675)">
	</image>
</g>
<g>
	<polygon class="st35" points="476.3,361.2 504.9,378.8 509.8,375.9 476.3,355.4 460.8,364.6 369.1,312.1 428,277.8 456.5,294 
		461.5,291.1 428,272 412.2,281.1 385.5,265.8 428.6,240.1 476.3,268.4 523.6,240.8 518.6,238 476.3,262.6 433.5,237.2 444.9,230.3 
		439.9,227.5 412.7,243.8 384.7,227.4 379.8,230.4 407.7,246.7 375.6,265.9 407.2,284.1 364.1,309.2 256.3,247.4 284.6,230.4 
		279.6,227.6 266.8,235.3 238.7,218.9 251.4,211.5 246.3,208.6 233.7,216 222.6,209.6 217.6,212.5 261.9,238.2 246.4,247.5 
		293.9,274.8 266.4,290.6 239.8,275.4 234.8,278.3 266.4,296.4 298.9,277.7 359,312.1 284.7,355.3 252.6,337 232.4,348 237.4,350.9 
		252.5,342.8 262.3,348.3 202.8,383.8 207.7,386.7 267.3,351.2 295.3,367.1 235.5,402.9 240.5,405.8 251.3,399.3 264.8,406.8 
		269.8,403.9 256.3,396.3 305.2,367 289.8,358.2 315.9,343 366.7,373.2 371.6,370.3 320.8,340.1 364.1,315 455.8,367.5 406.9,396.4 
		439.8,415.6 428.2,423.2 433.1,426.1 445,418.6 470.6,433.6 475.5,430.6 416.8,396.3 443.9,380.3 521,424.8 525.9,421.9 
		448.9,377.4 	"/>
	<g>
		<path class="st36" d="M328.4,225.4l197.2,112.4c4.5,2.6,4.5,9.1,0,11.7l-157.3,91.1c-3.4,2-7.6,2-11.1,0L159.4,326.3
			c-3.8-2.2-3.8-7.7,0-9.9l158-91.1C320.8,223.4,325,223.4,328.4,225.4z"/>
		<path class="st37" d="M154,251.7v20.6c-0.1,2,0.9,4,2.8,5.1l197.9,114.3c2.1,1.2,4.4,1.7,6.7,1.4c1.5-0.2,3-0.6,4.3-1.4L523,300.5
			c1.7-1,2.7-2.5,3.1-4.1l0.5,0.4v-22.7l-14.6,8.6l-14.3-8.2l-172-98.1c-3.4-1.9-7.6-1.9-11,0l-146.3,84.3L154,251.7z"/>
		<path class="st35" d="M361.4,332.7v60.3c1.5-0.2,3-0.6,4.3-1.4L523,300.5c1.7-1,2.7-2.5,3.1-4.1l0.5,0.4v-22.7l-14.6,8.6
			l-14.3-8.2L361.4,332.7z"/>
		<path class="st21" d="M325.8,155.9L523,268.3c4.5,2.6,4.5,9.1,0,11.7l-157.3,91.1c-3.4,2-7.6,2-11.1,0L156.8,256.8
			c-3.8-2.2-3.8-7.7,0-9.9l158-91.1C318.2,153.9,322.4,153.9,325.8,155.9z"/>
		<path class="st37" d="M325.9,154.1l197.2,112.4c4.5,2.6,4.5,9.1,0,11.7l-157.3,91.1c-3.4,2-7.6,2-11.1,0L156.9,255.1
			c-3.8-2.2-3.8-7.7,0-9.9l158-91.1C318.3,152.2,322.5,152.2,325.9,154.1z"/>
	</g>
	<g>
		<path class="st38" d="M509.4,125.7c0-0.3-0.1-0.5-0.3-0.8c-0.1-0.1-0.2-0.3-0.4-0.4l-84.2-48.1c-0.2-0.1-0.4-0.2-0.6-0.2
			c-0.3,0-0.7,0.1-0.9,0.4c-0.3,0.2-0.4,0.6-0.4,0.9l0,60.8l86.8,49.7L509.4,125.7z"/>
		<path class="st38" d="M377.5,117.2c0-0.3-0.1-0.5-0.3-0.8c-0.1-0.1-0.2-0.3-0.4-0.4L292.6,68c-0.2-0.1-0.4-0.2-0.6-0.2
			c-0.3,0-0.7,0.1-0.9,0.4c-0.3,0.2-0.4,0.6-0.4,0.9l0,60.8l86.8,49.7L377.5,117.2z"/>
		<path class="st38" d="M466.2,80.1c0-0.2-0.1-0.4-0.2-0.5c-0.1-0.1-0.2-0.2-0.3-0.2l-59.1-33.7c-0.1-0.1-0.3-0.1-0.4-0.1
			c-0.2,0-0.5,0.1-0.6,0.3c-0.2,0.2-0.3,0.4-0.3,0.6l0,42.7l60.9,34.9L466.2,80.1z"/>
		<path class="st38" d="M354.9,32.5c0-0.1,0-0.2-0.1-0.3c0-0.1-0.1-0.1-0.2-0.1l-34.4-19.6c-0.1,0-0.2-0.1-0.3-0.1
			c-0.1,0-0.3,0.1-0.4,0.2c-0.1,0.1-0.2,0.2-0.2,0.4l0,24.8L354.9,58L354.9,32.5z"/>
	</g>
	<g>
		<polygon class="st39" points="151,166.7 151,222.5 153.2,224.3 219.4,183.4 221.6,129.4 219.4,127.7 		"/>
		<polygon class="st40" points="221.6,129.4 221.6,185.2 153.2,224.3 153.2,168.5 		"/>
		<g>
			<polygon class="st41" points="214.3,140.8 214.3,146.2 177.1,167.8 177.3,162.2 			"/>
			<polygon class="st41" points="195.7,185.8 195.7,191.2 158.5,212.8 158.7,207.2 			"/>
			<g>
				<polygon class="st41" points="172.8,164.9 172.8,170.1 158.8,178.2 158.8,173 				"/>
			</g>
			<g>
				<polygon class="st41" points="208.3,167.6 208.3,172.8 194.3,180.9 194.3,175.7 				"/>
			</g>
			<polygon class="st41" points="212.8,177 212.8,182.2 198.9,190.3 198.9,185.1 			"/>
			<polygon class="st41" points="191.3,164.9 158.9,183.6 158.9,189 191.4,170.1 			"/>
			<polygon class="st41" points="191.3,176.3 158.9,195 158.9,200.4 191.4,181.5 			"/>
		</g>
	</g>
	<g>
		<polygon class="st39" points="230.4,122 230.4,177.8 232.6,179.6 298.8,138.8 301,84.7 298.8,83 		"/>
		<polygon class="st40" points="301,84.7 301,140.5 232.6,179.6 232.6,123.8 		"/>
		<g>
			<polygon class="st41" points="293.7,96.1 293.7,101.5 256.5,123.1 256.7,117.5 			"/>
			<polygon class="st41" points="275.1,141.1 275.1,146.5 237.9,168.1 238.1,162.5 			"/>
			<g>
				<polygon class="st41" points="252.2,120.2 252.2,125.4 238.3,133.5 238.3,128.3 				"/>
			</g>
			<g>
				<polygon class="st41" points="287.7,122.9 287.7,128.2 273.7,136.3 273.7,131 				"/>
			</g>
			<polygon class="st41" points="292.3,132.3 292.3,137.5 278.3,145.6 278.3,140.4 			"/>
			<polygon class="st41" points="270.8,120.2 238.3,138.9 238.3,144.4 270.8,125.4 			"/>
			<polygon class="st41" points="270.8,131.6 238.3,150.3 238.3,155.8 270.8,136.8 			"/>
		</g>
	</g>
	<path class="st42" d="M295,299.7c-30.7,8.9-20.3,35.6,16.2,14.9C318.6,310.3,313.7,294.3,295,299.7z"/>
	<path class="st42" d="M234,263.5c-30.7,8.9-20.3,35.6,16.2,14.9C257.6,274.2,252.7,258.1,234,263.5z"/>
	<polygon class="st42" points="299.3,180.9 203.2,221.6 215.9,240.7 339.4,296.7 	"/>
	<g>
		<path class="st37" d="M187,310.8v16l-0.1-0.1c-0.2,1.4-1.1,2.7-2.5,3.6l-53.8,31c-0.8,0.5-1.7,0.7-2.6,0.7c-0.9,0-1.8-0.2-2.5-0.7
			l-53.8-31.2c-1.7-1-2.5-2.7-2.5-4.4v-14.9l11.3,5.5l45-25.9c1.6-0.9,3.5-0.9,5.1,0l34.8,20l9,5.2L187,310.8z"/>
		<path class="st35" d="M187,310.8v16l-0.1-0.1c-0.2,1.4-1.1,2.7-2.5,3.6l-53.8,31c-0.8,0.5-1.7,0.7-2.6,0.7v-19.3l37.2-32.3l9,5.2
			L187,310.8z"/>
		<path class="st21" d="M125.4,275.3l-53.7,30.9c-3.4,2-3.4,6.9,0,8.9l53.8,31.2c1.6,0.9,3.5,0.9,5.1,0l53.8-31c3.4-2,3.4-6.9,0-8.9
			l-53.9-31C129,274.4,127,274.4,125.4,275.3z"/>
		<path class="st37" d="M125.4,274.8l-53.7,30.9c-3.4,2-3.4,6.9,0,8.9l53.8,31.2c1.6,0.9,3.5,0.9,5.1,0l53.8-31c3.4-2,3.4-6.9,0-8.9
			l-53.9-31C129,273.9,127,273.9,125.4,274.8z"/>
	</g>
	<g>
		<polygon class="st42" points="86.6,312 127.6,288.1 169.2,312 128.2,336.5 		"/>
		<polygon class="st43" points="128.1,310.8 128.1,325.1 169.2,301.5 169.2,286.5 		"/>
		<polygon class="st44" points="86.6,286.5 86.6,301.3 128.1,325.1 128.1,310.8 		"/>
		<polygon class="st45" points="86.6,286.5 127.6,262.6 169.2,286.5 128.2,311 		"/>
		<g>
			<g>
				<polygon class="st46" points="144.4,311.6 152.9,306.7 152.9,300.3 144.4,305.3 				"/>
			</g>
			<g>
				<polygon class="st46" points="157.2,304.3 165.6,299.4 165.6,292.8 157.2,297.8 				"/>
			</g>
			<g>
				<polygon class="st46" points="140.2,307.8 131.7,312.8 131.7,318.9 140.2,314 				"/>
			</g>
		</g>
		<g>
			<g>
				<polygon class="st41" points="111.4,311.6 103,306.7 103,300.3 111.4,305.3 				"/>
			</g>
			<g>
				<polygon class="st41" points="98.7,304.3 90.3,299.4 90.3,292.8 98.7,297.8 				"/>
			</g>
			<g>
				<polygon class="st41" points="115.7,307.8 124.2,312.8 124.2,318.9 115.7,314 				"/>
			</g>
		</g>
	</g>
	<g>
		<polygon class="st43" points="128.1,284.7 128.1,299 169.2,275.4 169.2,260.4 		"/>
		<polygon class="st44" points="86.6,260.4 86.6,275.2 128.1,299 128.1,284.7 		"/>
		<polygon class="st45" points="86.6,260.4 127.6,236.4 169.2,260.4 128.2,284.9 		"/>
		<g>
			<g>
				<polygon class="st46" points="144.4,285.5 152.9,280.6 152.9,274.2 144.4,279.2 				"/>
			</g>
			<g>
				<polygon class="st46" points="157.2,278.1 165.6,273.3 165.6,266.7 157.2,271.7 				"/>
			</g>
			<g>
				<polygon class="st46" points="140.2,281.7 131.7,286.7 131.7,292.8 140.2,287.9 				"/>
			</g>
		</g>
		<g>
			<g>
				<polygon class="st41" points="111.4,285.5 103,280.6 103,274.2 111.4,279.2 				"/>
			</g>
			<g>
				<polygon class="st41" points="98.7,278.1 90.3,273.3 90.3,266.7 98.7,271.7 				"/>
			</g>
			<g>
				<polygon class="st41" points="115.7,281.7 124.2,286.7 124.2,292.8 115.7,287.9 				"/>
			</g>
		</g>
	</g>
	<g>
		<path class="st38" d="M492.5,204.9c0-0.3-0.1-0.6-0.3-0.8c-0.1-0.2-0.3-0.3-0.4-0.4l-93.9-53.6c-0.2-0.1-0.5-0.2-0.7-0.2
			c-0.4,0-0.7,0.2-1,0.4c-0.3,0.3-0.4,0.6-0.4,1l0,44.1l96.8,55.4L492.5,204.9z"/>
		<g>
			<path class="st39" d="M321.1,63.7l0,100l143.6,87.7l1.9-1c1-0.5,1.8-1.3,2.4-2.2c0.6-0.9,0.9-2,0.9-3.1l-0.1-104.7
				c0-1.5-0.5-3-1.4-4.2c-0.6-0.8-1.3-1.5-2.2-2L331.7,57.5c-2.2-1.3-4.6-1.2-6.6-0.2c-0.6,0.3-5.1,2.5-5.1,2.5
				S321.1,61.5,321.1,63.7z"/>
			<path class="st39" d="M229.1,223l87.4-50.2l148.2,78.6v2.9c0,1.4-0.5,2.6-1.2,3.7c-0.5,0.6-1.1,1.2-1.8,1.6l-85.3,49.6
				c-5.5,3.2-12.3,3.2-17.8,0l-129.5-75c-2.2-1.2-3.2-3.4-3.2-5.6c0-0.3,0.1-6.9,0.1-6.9S228,223.7,229.1,223z"/>
			<path class="st40" d="M229.1,216.6l87.4-50.2l148.2,85l-88.3,51.4c-5.5,3.2-12.3,3.2-17.8,0l-129.5-75c-2.2-1.2-3.2-3.4-3.2-5.6
				C225.8,220,226.9,217.8,229.1,216.6z"/>
			<path class="st46" d="M266.2,201.5l41.5-23.9c0.6-0.4,1.4-0.4,2.1,0l133.5,76.6c1.4,0.8,1.4,2.8,0,3.6l-41.3,24
				c-0.4,0.2-0.9,0.3-1.4,0.3c-0.2,0-0.5-0.1-0.7-0.2l-133.8-76.8C264.8,204.4,264.8,202.3,266.2,201.5z"/>
			<path class="st38" d="M314.4,173.2l2-1.1c0.5-0.2,1.1-0.1,1.6,0.2l133.5,76.6c1.4,0.8,1.4,2.8,0,3.6l-2.4,1.4c-0.1,0-0.2,0-0.3,0
				c-0.2,0-0.5-0.1-0.7-0.2l-133.8-76.8C313,176,313,174,314.4,173.2z"/>
			<g>
				<path class="st41" d="M310.7,215.2l11.7,6.7c0.2,0.1,0.5,0.1,0.8,0l7-4c0.5-0.3,0.5-1.1,0-1.4l-11.7-6.7c-0.2-0.1-0.5-0.1-0.8,0
					l-7,4c-0.3,0.1-0.4,0.4-0.4,0.7C310.3,214.8,310.4,215.1,310.7,215.2z"/>
				<path class="st41" d="M417.4,266.6l-10.2-5.8c-0.4-0.2-0.9-0.2-1.4,0l-5.9,3.4c-0.5,0.3-0.7,0.7-0.7,1.2c0,0.5,0.2,0.9,0.7,1.2
					l10.2,5.9c0.4,0.2,0.9,0.2,1.4,0l5.9-3.4C418.3,268.4,418.3,267.1,417.4,266.6z"/>
				<path class="st41" d="M384.9,257.8l11.1,6.4c0.3,0.2,0.8,0.2,1.1,0l6.4-3.7c0.7-0.4,0.7-1.5,0-1.9l-11.1-6.4
					c-0.3-0.2-0.8-0.2-1.1,0l-6.4,3.7c-0.4,0.2-0.6,0.6-0.6,1C384.3,257.2,384.5,257.6,384.9,257.8z"/>
				<path class="st41" d="M370.1,249.4l11.1,6.4c0.3,0.2,0.8,0.2,1.1,0l6.4-3.7c0.7-0.4,0.7-1.5,0-1.9l-11.1-6.4
					c-0.3-0.2-0.8-0.2-1.1,0l-6.4,3.7c-0.3,0.2-0.5,0.5-0.5,0.8C369.5,248.6,369.7,249.1,370.1,249.4z"/>
				<path class="st41" d="M355.4,240.9l11,6.3c0.4,0.2,0.8,0.2,1.1,0l6.3-3.6c0.8-0.4,0.8-1.5,0-2l-11-6.3c-0.4-0.2-0.8-0.2-1.1,0
					l-6.3,3.6c-0.5,0.3-0.7,0.9-0.5,1.4C355,240.6,355.2,240.8,355.4,240.9z"/>
				<path class="st41" d="M340.9,232.6l10.7,6.1c0.4,0.2,0.9,0.2,1.3,0l6-3.5c0.9-0.5,0.9-1.7,0-2.2l-10.7-6.1
					c-0.4-0.2-0.9-0.2-1.3,0l-6,3.5c-0.4,0.2-0.6,0.6-0.6,1C340.2,231.8,340.4,232.3,340.9,232.6z"/>
				<path class="st41" d="M325.9,224l11,6.3c0.3,0.2,0.8,0.2,1.1,0l6.4-3.6c0.8-0.4,0.8-1.5,0-2l-11-6.3c-0.3-0.2-0.8-0.2-1.1,0
					l-6.4,3.6c-0.4,0.2-0.6,0.6-0.6,0.9C325.3,223.4,325.5,223.8,325.9,224z"/>
				<path class="st41" d="M302.8,201.5l-6.3,3.6c-0.4,0.2-0.6,0.6-0.6,1c0,0.4,0.2,0.8,0.6,1l11,6.3c0.4,0.2,0.8,0.2,1.2,0l6.3-3.6
					c0.8-0.4,0.8-1.6,0-2l-11-6.3C303.6,201.3,303.1,201.3,302.8,201.5z"/>
				<path class="st41" d="M282.2,198.9l10.4,6c0.4,0.3,1,0.3,1.4,0l5.8-3.3c1-0.5,1-1.9,0-2.5l-10.4-6c-0.4-0.3-1-0.3-1.4,0
					l-5.8,3.3c-0.6,0.3-0.8,1-0.7,1.6C281.6,198.4,281.8,198.7,282.2,198.9z"/>
				<path class="st41" d="M407.8,272.6l-10.7-6.1c-0.3-0.2-0.8-0.2-1.1,0l-6.2,3.6c-0.4,0.2-0.6,0.6-0.6,1s0.2,0.8,0.6,1l10.7,6.2
					c0.4,0.2,0.8,0.2,1.1,0l6.2-3.6C408.5,274.1,408.5,273.1,407.8,272.6z"/>
				<path class="st41" d="M393.3,264.3l-10.9-6.3c-0.4-0.2-0.8-0.2-1.2,0l-6.1,3.5c-0.4,0.2-0.6,0.6-0.6,1s0.2,0.8,0.6,1l10.9,6.3
					c0.4,0.2,0.8,0.2,1.2,0l6.1-3.5C394.1,265.9,394.1,264.8,393.3,264.3z"/>
				<path class="st41" d="M378.5,255.8l-10.9-6.2c-0.4-0.2-0.8-0.2-1.2,0l-6,3.5c-0.4,0.2-0.6,0.6-0.6,1c0,0.4,0.2,0.9,0.6,1.1
					l10.9,6.2c0.4,0.2,0.8,0.2,1.2,0l6-3.5C379.3,257.4,379.3,256.3,378.5,255.8z"/>
				<path class="st41" d="M363.7,247.3l-40.3-23.1c-0.4-0.2-0.9-0.2-1.2,0l-6,3.4c-0.4,0.2-0.6,0.7-0.6,1.1c0,0.4,0.2,0.8,0.6,1.1
					l40.3,23.1c0.4,0.2,0.9,0.2,1.2,0l6-3.4C364.5,249,364.5,247.8,363.7,247.3z"/>
				<path class="st41" d="M319.7,222.1l-11.2-6.4c-0.3-0.2-0.7-0.2-1,0l-6.4,3.7c-0.3,0.2-0.5,0.4-0.5,0.7c-0.1,0.4,0.1,0.9,0.5,1.1
					l11.2,6.4c0.3,0.2,0.7,0.2,1,0l6.4-3.7C320.4,223.5,320.4,222.5,319.7,222.1z"/>
				<path class="st41" d="M304.6,213.4l-10.7-6.2c-0.4-0.2-0.9-0.2-1.3,0l-5.9,3.4c-0.6,0.3-0.8,1-0.6,1.6c0.1,0.3,0.3,0.5,0.6,0.6
					l10.7,6.2c0.4,0.2,0.9,0.2,1.3,0l5.9-3.4C305.5,215.2,305.5,213.9,304.6,213.4z"/>
				<path class="st41" d="M289.6,204.8l-10.3-5.9c-0.5-0.3-1-0.3-1.5,0l-5.5,3.2c-0.6,0.4-0.9,1.1-0.7,1.7c0.1,0.3,0.3,0.6,0.7,0.8
					l10.3,5.9c0.5,0.3,1,0.3,1.5,0l5.5-3.2C290.6,206.8,290.6,205.4,289.6,204.8z"/>
				<path class="st41" d="M427.6,260.9l-10.3-5.9c-0.4-0.2-0.9-0.2-1.3,0l-6.1,3.5c-0.4,0.2-0.6,0.6-0.6,1c0,0.5,0.2,0.9,0.6,1.2
					l10.3,5.9c0.4,0.2,0.9,0.2,1.3,0l6-3.5C428.4,262.6,428.4,261.3,427.6,260.9z"/>
				<path class="st41" d="M407.2,258.3l6.1-3.5c0.8-0.5,0.8-1.7,0-2.2l-10.8-6.2c-0.4-0.2-0.9-0.2-1.3,0l-6.1,3.5
					c-0.4,0.2-0.6,0.7-0.6,1.1c0,0.4,0.2,0.9,0.6,1.1l10.8,6.2C406.3,258.6,406.8,258.6,407.2,258.3z"/>
				<path class="st41" d="M379.9,243.1c0.1,0.2,0.3,0.4,0.5,0.6l10.9,6.2c0.4,0.2,0.8,0.2,1.2,0l6.2-3.6c0.8-0.5,0.8-1.6,0-2.1
					l-10.9-6.2c-0.4-0.2-0.8-0.2-1.2,0l-6.2,3.6C379.8,241.9,379.6,242.6,379.9,243.1z"/>
				<path class="st41" d="M384.1,235.9l-11.7-6.7h0l-7,4c-0.4,0.2-0.6,0.7-0.5,1.1c0.1,0.3,0.2,0.5,0.5,0.7l11.2,6.4
					c0.3,0.2,0.7,0.2,1.1,0l6.5-3.7C384.8,237.3,384.8,236.3,384.1,235.9z"/>
				<path class="st41" d="M369.4,227.5l-11.3-6.5c-0.3-0.2-0.7-0.2-1,0l-6.6,3.8c-0.4,0.3-0.6,0.8-0.5,1.2c0.1,0.2,0.2,0.4,0.5,0.6
					l11.3,6.5c0.3,0.2,0.7,0.2,1,0l6.6-3.8C370.1,228.9,370.1,227.9,369.4,227.5z"/>
				<path class="st41" d="M354.4,218.9l-10.9-6.3c-0.4-0.2-0.8-0.2-1.2,0l-6.2,3.6c-0.4,0.2-0.6,0.6-0.6,1c0,0.4,0.2,0.8,0.6,1
					l10.9,6.3c0.4,0.2,0.8,0.2,1.2,0l6.2-3.6C355.2,220.5,355.2,219.3,354.4,218.9z"/>
				<path class="st41" d="M339.8,210.5l-11.1-6.4c-0.3-0.2-0.7-0.2-1.1,0l-6.4,3.7c-0.2,0.1-0.3,0.2-0.4,0.4
					c-0.3,0.5-0.1,1.2,0.4,1.5l11.1,6.4c0.3,0.2,0.7,0.2,1.1,0l6.4-3.7C340.6,212,340.6,210.9,339.8,210.5z"/>
				<path class="st41" d="M325.1,202l-11.1-6.4c-0.3-0.2-0.7-0.2-1.1,0l-6.5,3.7c-0.4,0.2-0.5,0.6-0.5,0.9c0,0.4,0.2,0.7,0.5,0.9
					l11.1,6.4c0.3,0.2,0.7,0.2,1.1,0l6.5-3.7C325.8,203.5,325.8,202.5,325.1,202z"/>
				<path class="st41" d="M291.7,192.8l11.1,6.4c0.3,0.2,0.7,0.2,1,0l6.5-3.7c0.7-0.4,0.7-1.4,0-1.8l-11.1-6.4c-0.3-0.2-0.7-0.2-1,0
					l-6.5,3.7c-0.3,0.2-0.5,0.5-0.5,0.8C291.1,192.2,291.3,192.6,291.7,192.8z"/>
				<path class="st41" d="M437.7,255.1l-10.4-6c-0.4-0.2-0.8-0.2-1.2,0l-6.2,3.6c-0.2,0.1-0.3,0.2-0.4,0.4c-0.3,0.5-0.2,1.3,0.4,1.6
					l10.4,6c0.4,0.2,0.8,0.2,1.2,0l6.2-3.6C438.5,256.7,438.5,255.6,437.7,255.1z"/>
				<path class="st41" d="M404.6,245.1c-0.1,0.5,0.1,1,0.6,1.3l10.8,6.2c0.4,0.2,0.8,0.2,1.2,0l6.2-3.5c0.8-0.5,0.8-1.7,0-2.1
					l-10.8-6.2c-0.4-0.2-0.8-0.2-1.2,0l-6.2,3.5C404.9,244.4,404.7,244.7,404.6,245.1z"/>
				<path class="st41" d="M389.9,236.8c0,0.4,0.2,0.9,0.7,1.1l10.6,6.1c0.4,0.2,0.9,0.2,1.3,0l6-3.4c0.9-0.5,0.9-1.8,0-2.3
					l-10.6-6.1c-0.4-0.2-0.9-0.2-1.3,0l-6,3.4C390.2,235.9,389.9,236.4,389.9,236.8z"/>
				<path class="st41" d="M375,228.4c0,0.4,0.2,0.8,0.6,1l10.9,6.3c0.4,0.2,0.8,0.2,1.2,0l6.3-3.6c0.8-0.4,0.8-1.6,0-2l-10.9-6.3
					c-0.4-0.2-0.8-0.2-1.2,0l-6.3,3.6C375.2,227.6,375,228,375,228.4z"/>
				<path class="st41" d="M360.3,219.9c0,0.4,0.2,0.8,0.6,1l11,6.3c0.4,0.2,0.8,0.2,1.2,0l6.3-3.6c0.8-0.4,0.8-1.6,0-2l-11-6.3
					c-0.4-0.2-0.8-0.2-1.2,0l-6.3,3.6C360.5,219.1,360.3,219.5,360.3,219.9z"/>
				<path class="st41" d="M345.6,211.4c0,0.4,0.2,0.8,0.6,1.1l10.9,6.2c0.4,0.2,0.8,0.2,1.2,0l6.2-3.6c0.8-0.5,0.8-1.6,0-2.1
					l-10.9-6.2c-0.4-0.2-0.8-0.2-1.2,0l-6.2,3.6C345.8,210.6,345.6,211,345.6,211.4z"/>
				<path class="st41" d="M330.7,202.8c-0.1,0.4,0.1,0.9,0.5,1.1l11.2,6.4c0.3,0.2,0.7,0.2,1,0l6.5-3.7c0.7-0.4,0.7-1.4,0-1.8
					l-11.2-6.4c-0.3-0.2-0.7-0.2-1,0l-6.5,3.7C330.9,202.2,330.8,202.5,330.7,202.8z"/>
				<path class="st41" d="M316,194.5c0,0.4,0.2,0.7,0.5,0.9l11.1,6.4c0.3,0.2,0.8,0.2,1.1,0l6.4-3.7c0.7-0.4,0.7-1.5,0-1.9
					l-11.1-6.4c-0.3-0.2-0.8-0.2-1.1,0l-6.4,3.7C316.2,193.8,316,194.2,316,194.5z"/>
				<path class="st41" d="M302.2,187.2l10.6,6.1c0.4,0.2,0.9,0.2,1.3,0l6-3.4c0.9-0.5,0.9-1.8,0-2.3l-10.6-6.1
					c-0.4-0.2-0.9-0.2-1.3,0l-6,3.4c-0.4,0.2-0.6,0.6-0.6,0.9C301.4,186.4,301.6,186.9,302.2,187.2z"/>
			</g>
			<path class="st47" d="M277.1,245.6c0,0.5,0.3,1,0.8,1.3l41.8,24c0.5,0.3,1.1,0.3,1.7,0l0.9-0.5l20.1-11.7c1.1-0.6,1.1-2.2,0-2.9
				l-41.6-23.9c-0.5-0.3-1.1-0.3-1.7,0l-1.6,0.9l-19.5,11.2C277.3,244.4,277.1,245,277.1,245.6z"/>
			<path class="st38" d="M278.6,245.5c0,0.5,0.3,1,0.8,1.3l39.7,22.8c0.5,0.3,1.1,0.3,1.6,0l0.9-0.5c-16.6-10.9-26-21.8-23.6-35.6
				l-18.5,10.6C278.9,244.4,278.6,245,278.6,245.5z"/>
			<path class="st48" d="M315.9,66.2l0,100l148.7,85.1L464.6,143c0-1.5-0.5-3-1.4-4.2c-0.6-0.8-1.3-1.5-2.2-2L326.5,60.1
				C321.8,57.4,315.9,60.8,315.9,66.2z"/>
			<path class="st46" d="M457.5,143.5c0-0.4-0.1-0.8-0.4-1.2c-0.2-0.2-0.4-0.4-0.6-0.5L326,67.3c-0.3-0.2-0.6-0.3-1-0.3
				c-0.5,0-1,0.2-1.4,0.6c-0.4,0.4-0.6,0.9-0.6,1.4l0,94.2l134.5,76.9L457.5,143.5z"/>
		</g>
		<g>
			<g class="st49">
				<g>
					<path class="st37" d="M446.1,144.8c0-0.4-0.1-0.7-0.3-1c-0.1-0.2-0.3-0.3-0.5-0.5L335.4,80.7c-0.3-0.2-0.5-0.2-0.8-0.2
						c-0.4,0-0.9,0.2-1.2,0.5c-0.3,0.3-0.5,0.7-0.5,1.2l0,79.3l113.3,64.8L446.1,144.8z"/>
				</g>
			</g>
			<g>
				<path class="st37" d="M446.9,227.5l-114.7-65.6l0-79.7c0-0.7,0.3-1.3,0.7-1.7c0.8-0.7,1.9-0.9,2.9-0.4l109.9,62.7
					c0.3,0.2,0.5,0.4,0.7,0.7c0.3,0.4,0.5,0.9,0.5,1.4L446.9,227.5z M333.6,161L445.4,225l-0.1-80.1c0-0.2-0.1-0.4-0.2-0.6
					c-0.1-0.1-0.2-0.2-0.3-0.3L335,81.3c-0.4-0.2-0.8-0.1-1.1,0.2c-0.2,0.2-0.3,0.4-0.3,0.7L333.6,161z"/>
			</g>
			<g>
				<path class="st39" d="M354,159.9c-0.5,0.7-1,1.3-1.3,1.5c-2.8,2-3.9-11.5-10.7-8C349.9,146.3,351.6,158.7,354,159.9z"/>
			</g>
			<g>
				<path class="st39" d="M407.7,181.9c-1.2,1.1-2.2,1.8-3.3,1.9c-5.4,0.6-7.4-48-21.3-51.4c-2.9-0.7-5.7,0.1-8.5,1.8
					c3.5-2.8,7.1-4.4,10.8-3.5c13.9,3.4,15.9,52,21.3,51.4C407.1,182.2,407.4,182.1,407.7,181.9z"/>
			</g>
			<g>
				<path class="st39" d="M443.3,218.5l-2.3,1.6c-0.1-1.4-1.8-38.3-12.9-46.4c-4.2-3-7.8-2.5-10.9-0.7c3.6-3,7.9-4.8,13.2-1
					C441.8,180.3,443.3,218.5,443.3,218.5z"/>
			</g>
			<g>
				<path class="st50" d="M441.1,220.1C441.1,220.2,441.1,220.2,441.1,220.1l-105.7-59.9c2.7-3.8,4.8-5.8,6.6-6.7
					c6.8-3.5,8,10,10.7,8c0.4-0.3,0.8-0.8,1.3-1.5c3.7-5.1,11.7-20.1,20.6-25.6c2.8-1.7,5.6-2.5,8.5-1.8c13.9,3.4,15.9,52,21.3,51.4
					c1-0.1,2.1-0.9,3.3-1.9c2.7-2.4,5.7-6.6,9.5-8.8c3.1-1.9,6.7-2.4,10.9,0.7C439.3,181.8,441,218.8,441.1,220.1z"/>
			</g>
		</g>
	</g>
	<g>
		<g>
			<polygon class="st43" points="478.4,292.5 478.4,294.6 504,279.9 504,277.4 			"/>
			<polygon class="st44" points="453.2,277.4 453.2,279.5 478.4,294.6 478.4,292.1 			"/>
			<polygon class="st45" points="453.2,277.4 478.4,262.7 504,277.4 478.8,292.5 			"/>
		</g>
		<g>
			<polygon class="st43" points="443.7,312.3 443.7,314.4 469.2,299.7 469.2,297.3 			"/>
			<polygon class="st44" points="418.5,297.3 418.5,299.4 443.7,314.4 443.7,312 			"/>
			<polygon class="st45" points="418.5,297.3 443.7,282.5 469.2,297.3 444,312.3 			"/>
		</g>
		<g>
			<polygon class="st43" points="409.6,332.9 409.6,335 435.2,320.3 435.2,317.8 			"/>
			<polygon class="st44" points="384.5,317.8 384.5,320 409.6,335 409.6,332.5 			"/>
			<polygon class="st45" points="384.5,317.8 409.6,303.1 435.2,317.8 410,332.9 			"/>
		</g>
		<g>
			<polygon class="st43" points="478.1,211.8 478.1,287.5 494.1,278.3 494.1,202.4 			"/>
			<polygon class="st44" points="462.4,202.4 462.4,278.1 478.1,287.5 478.1,211.6 			"/>
			<polygon class="st45" points="462.4,202.4 478.1,193.2 494.1,202.4 478.4,211.8 			"/>
		</g>
		<g>
			<polygon class="st43" points="443.8,247.2 443.8,307.8 459.8,298.6 459.8,237.8 			"/>
			<polygon class="st44" points="428.1,237.8 428.1,298.4 443.8,307.8 443.8,247 			"/>
			<polygon class="st45" points="428.1,237.8 443.8,228.6 459.8,237.8 444,247.2 			"/>
		</g>
		<g>
			<polygon class="st43" points="409.5,279.1 409.5,327.5 425.5,318.3 425.5,269.7 			"/>
			<polygon class="st44" points="393.8,269.7 393.8,318.1 409.5,327.5 409.5,278.9 			"/>
			<polygon class="st45" points="393.8,269.7 409.5,260.5 425.5,269.7 409.7,279.1 			"/>
		</g>
	</g>
	<g>
		<path class="st51" d="M308.3,223c2.1-0.2,3.9,0.8,4.4,6.3c0.6,5.5,0.4,15.1,0.4,15.1l-3.7,17.3l-4.1-0.6l1.8-17.5l-1.9-13.7
			C305.1,230,304.2,223.4,308.3,223z"/>
		<path class="st39" d="M299.1,307.7c0.4-1.3,6.2-1.7,6.2-1.7l5.4,2.4c-0.2,3-0.7,3.7-2.1,3.7c-8.6-0.9-9.6-2.6-9.6-2.6
			S298.8,309,299.1,307.7z"/>
		<path class="st46" d="M298.6,262.4l3.4,24.9l2.8,20.2c0,0,1.3,1.5,6.6,0.7l-1.3-22.7l0.6-27.2L298.6,262.4z"/>
		<path class="st39" d="M286.4,313.9c0.4-1.3,6.2-1.7,6.2-1.7l5.4,2.4c-0.2,3-0.7,3.7-2.1,3.7c-8.6-0.9-9.6-2.6-9.6-2.6
			S286,315.2,286.4,313.9z"/>
		<path class="st41" d="M291.6,265.4l-0.9,23.2l0.9,25.7c0,0,1.3,1.5,6.6,0.7l1.1-22.1l6.1-34L291.6,265.4z"/>
		<path class="st50" d="M311,248.4l0.8,10.9c-1.2,2.7-2.8,4.6-4.8,5.9c-6.7,4.6-16.2,2-16.2,2v-33.9c0-0.1,0-0.2,0-0.3
			c0.1-1.1,0.5-2.2,1.1-3.1c0.5-0.7,1.1-1.2,1.9-1.6l11.4-6.2c0.8-0.5,1.8-0.6,2.6-0.5c0.9,0.1,1.7,0.5,2.4,1.2
			c1.3,1.3,1.6,2.9,1.6,2.9L311,248.4z"/>
		<path class="st52" d="M293.2,209.8c0,0-1.3,14.4,4.3,13.1c5.6-1.3,7.1-8.1,7.1-8.1l-3.9-5.1H293.2z"/>
		<path class="st52" d="M298.9,219.6l-0.6,6c0,0,4.3,1.3,6.2-0.7v-5.2H298.9z"/>
		<path class="st46" d="M296.6,215.2c-2.4-0.6-1.5-2.8-1.5-2.8s-3.2-1.3-3.2-3.9c0-2.6,2.4-4.3,2.4-4.3l1.3,0.9c0,0,7.3-0.6,9.6,3.7
			c2.2,4.3-0.7,12-0.7,12h-3.2l-2.8-4.5L296.6,215.2z"/>
		<circle class="st52" cx="297.4" cy="216.1" r="2.1"/>
		<path class="st51" d="M307,265.2c-6.7,4.6-16.2,2-16.2,2v-33.9c0-0.1,0-0.2,0-0.3c4.7-0.5,8-1.2,8-1.2
			C300.4,242.1,281.6,260.5,307,265.2z"/>
		<path class="st52" d="M269,232.6c-0.3-2.2,1.6-1.8,2.5,2.6l-2.3,1.3C260.4,236.6,262.3,232,269,232.6z"/>
		<path class="st50" d="M297.9,228.3c-3.6-2.6-7.6,3.2-7.6,3.2l-6.6,8.4l-12.4-6.4l-2.5,3.6c0,0,3.8,3.5,10.1,8.1
			c3,2.2,7.5,3.1,10.1,0.4c3.6-3.6,6.4-7.1,7.8-9C300.4,231.8,299.7,229.6,297.9,228.3z"/>
	</g>
	<g>
		<path class="st53" d="M265.8,214.1c0,0,1.5-0.8,2.5-0.2c1,0.6-0.2,1.5-0.2,1.5c2.6,2.4,1.6,3.1,1.6,3.1c-1.1,2-2.1,1.4-2.1,1.4
			c-1.4-0.3-3.8-3.5-3.8-3.5L265.8,214.1z"/>
		<path class="st54" d="M266.6,213.6l-1.3,2.1l-1.1,1.7c0,0,0,0,0,0c0,0,0,0,0,0c0,0,0,0,0,0c-1.3-0.7-13-6.5-14.7-7.5
			c-1.9-1-8.1-14.3-8.1-14.3l1.4-1.3l1.3-1.2l2.8-2.6c2.9,4,6.7,14.8,6.7,14.8L266.6,213.6z"/>
		<path class="st55" d="M265.3,215.7l-1.1,1.7c0,0,0,0,0,0c0,0,0,0,0,0c0,0,0,0,0,0c-1.3-0.7-13-6.5-14.7-7.5
			c-1.9-1-8.1-14.3-8.1-14.3l1.4-1.3l1.3-1.2C247,207.2,257.5,215.1,265.3,215.7z"/>
		<path class="st54" d="M254.6,270.7c0.3-1.2-4.1-4.1-4.1-4.1l-5.4-0.5c-1.2,2.5-1.1,3.3,0,3.9c7.2,3.1,8.7,2.2,8.7,2.2
			S254.3,271.9,254.6,270.7z"/>
		<path class="st54" d="M237.4,274.7c0.3-1.2-4-4.3-4-4.3l-5.4-0.7c-1.3,2.4-1.2,3.3-0.2,3.9c7.1,3.4,8.6,2.6,8.6,2.6
			S237.1,275.9,237.4,274.7z"/>
		<path class="st46" d="M247.9,219.8l2.2,22.3l0.5,24.7c0,0-1.2,1.5-6.3,1.1l-2.3-21.2l-7.7-32.3L247.9,219.8z"/>
		<path class="st41" d="M239.7,222.5l-5.9,48c0,0-1.3,1.4-6.3,0.3l0.5-49.1L239.7,222.5z"/>
		<path class="st54" d="M248.3,222.1c-2.5,3.5-5.8,5.1-9.1,5.5c-6,0.9-11.7-1.7-11.7-1.7v-26.5c0-0.7,0.1-1.3,0.3-1.9
			c0.2-0.5,0.4-1,0.7-1.4c0.5-0.6,1.1-1.2,1.8-1.6l11-6c0.8-0.4,1.7-0.6,2.5-0.5c0.9,0.1,1.7,0.5,2.3,1.1c1.3,1.3,1.5,2.8,1.5,2.8
			L248.3,222.1z"/>
		<path class="st53" d="M240.5,193.2c0,0-4.2,1.3-6-0.7V182l0.8,0.8l4.6,4.6l0.4,4.4L240.5,193.2z"/>
		<path class="st52" d="M240.4,191.9c-3.1-1.2-4.9-3.8-5-9l4.6,4.6L240.4,191.9z"/>
		<path class="st53" d="M242.8,176.8c0,0,4.9,13.1-0.7,13.3c-5.6,0.2-8.7-5.7-8.7-5.7l2.4-5.7L242.8,176.8z"/>
		<path class="st56" d="M243.8,174.6c-2.6-2.9-5.5,0-5.5,0c-6.2,0.3-12.6,7.6-3.8,13.2v-1.4l0.9-1.2c1.9-0.4,1.1-3.8,1.1-3.8
			C243.7,181.9,246.5,177.5,243.8,174.6z"/>
		<path class="st53" d="M235.9,184.2c0.8,0.8,1,1.8,0.4,2.4c-0.6,0.6-1.7,0.4-2.4-0.3c-0.8-0.8-1-1.8-0.4-2.4
			C234,183.3,235.1,183.4,235.9,184.2z"/>
		<path class="st55" d="M239.2,227.6c-6,0.9-11.7-1.7-11.7-1.7v-26.5c0-0.7,0.1-1.3,0.3-1.9c3.4-0.2,6.4-0.4,6.4-0.4
			c1,9.9-3.9,13.1-3.5,21.6C231,223.7,234.6,227.3,239.2,227.6z"/>
		<path class="st53" d="M221.3,223.6c0,0-1.7,0.3-2.1,1.3c-0.5,1,1,1.1,1,1.1c-0.7,3.5,0.5,3.5,0.5,3.5c2.1,0.9,2.6-0.1,2.6-0.1
			c0.9-1,1-5.1,1-5.1L221.3,223.6z"/>
		<path class="st54" d="M220.4,223.7l5.6-14.4c0,0,0.6-6.9,1.6-11.6c0.4-1.9,2.3-3.1,4.3-2.7l0,0c0.9,0.2,1.7,0.8,2.2,1.5
			c0.5,0.7,0.7,1.7,0.5,2.6c-0.7,4-1.9,10.2-2.5,11.5c-0.9,1.8-6.8,13.5-7.5,14.8c0,0,0,0,0,0c0,0,0,0,0,0c0,0,0,0,0,0L220.4,223.7z
			"/>
		<path class="st56" d="M241.7,175l-7.3,5.7c4.9,2.8,8.9,1.6,8.3-0.4C247,180.2,246.6,173.7,241.7,175z"/>
		<path class="st53" d="M240.5,193.2l-4.9-0.4l-1.2-0.4c0,0,2,2.8,5.7,2.8C240.9,194,240.5,193.2,240.5,193.2z"/>
	</g>
</g>
</svg>
