<?xml version="1.0" encoding="utf-8"?>
<!-- Generator: Adobe Illustrator 22.1.0, SVG Export Plug-In . SVG Version: 6.00 Build 0)  -->
<svg version="1.1" id="Ñëîé_1" xmlns="http://www.w3.org/2000/svg" xmlns:xlink="http://www.w3.org/1999/xlink" x="0px" y="0px"
	 viewBox="0 0 600 450" style="enable-background:new 0 0 600 450;" xml:space="preserve">
<style type="text/css">
	.st0{display:none;fill:url(#SVGID_1_);}
	.st1{fill:url(#SVGID_2_);}
	.st2{display:none;}
	.st3{display:inline;fill:url(#SVGID_3_);}
	.st4{display:inline;fill:url(#SVGID_4_);}
	.st5{display:inline;fill:url(#SVGID_5_);}
	.st6{display:inline;opacity:0.6;fill:#020230;}
	.st7{display:inline;fill:url(#SVGID_6_);}
	.st8{display:inline;fill:url(#SVGID_7_);}
	.st9{display:inline;fill:url(#SVGID_8_);}
	.st10{display:inline;fill:url(#SVGID_9_);}
	.st11{display:inline;fill:#FFFFFF;}
	.st12{display:inline;opacity:0.4;}
	.st13{fill:#06033E;}
	.st14{display:inline;fill:url(#SVGID_10_);}
	.st15{display:inline;fill:url(#SVGID_11_);}
	.st16{display:inline;opacity:0.4;fill:#06033E;}
	.st17{display:inline;opacity:0.5;fill:#06033E;}
	.st18{display:inline;}
	.st19{fill:url(#SVGID_12_);}
	.st20{display:inline;opacity:0.5;}
	.st21{fill:#FFFFFF;}
	.st22{display:inline;fill:#E8975B;}
	.st23{display:inline;fill:#F8359E;}
	.st24{display:inline;fill:url(#SVGID_13_);}
	.st25{display:inline;fill:url(#SVGID_14_);}
	.st26{display:inline;fill:url(#SVGID_15_);}
	.st27{display:inline;fill:url(#SVGID_16_);}
	.st28{display:inline;fill:url(#SVGID_17_);}
	.st29{display:inline;fill:url(#SVGID_18_);}
	.st30{display:inline;fill:url(#SVGID_19_);}
	.st31{display:inline;fill:#0C0A78;}
	.st32{display:inline;fill:url(#SVGID_20_);}
	.st33{fill:#E8975B;}
	.st34{display:inline;opacity:0.5;fill:#FFFFFF;}
</style>
<radialGradient id="SVGID_1_" cx="171.4004" cy="135.2401" r="733.4801" gradientTransform="matrix(1.0858 0 0 1.088 -119.9181 -249.2813)" gradientUnits="userSpaceOnUse">
	<stop  offset="3.968250e-03" style="stop-color:#4C02F1"/>
	<stop  offset="8.168010e-03" style="stop-color:#4B02EF"/>
	<stop  offset="0.1263" style="stop-color:#3903C4"/>
	<stop  offset="0.2487" style="stop-color:#29039E"/>
	<stop  offset="0.3765" style="stop-color:#1D0380"/>
	<stop  offset="0.5099" style="stop-color:#130468"/>
	<stop  offset="0.6513" style="stop-color:#0C0457"/>
	<stop  offset="0.8062" style="stop-color:#07044D"/>
	<stop  offset="1" style="stop-color:#06044A"/>
</radialGradient>
<rect x="0" class="st0" width="600" height="450"/>
<radialGradient id="SVGID_2_" cx="171.4004" cy="135.2401" r="733.4801" gradientTransform="matrix(1.0858 0 0 1.088 -119.9181 -249.2813)" gradientUnits="userSpaceOnUse">
	<stop  offset="3.968250e-03" style="stop-color:#4C02F1"/>
	<stop  offset="8.168010e-03" style="stop-color:#4B02EF"/>
	<stop  offset="0.1263" style="stop-color:#3903C4"/>
	<stop  offset="0.2487" style="stop-color:#29039E"/>
	<stop  offset="0.3765" style="stop-color:#1D0380"/>
	<stop  offset="0.5099" style="stop-color:#130468"/>
	<stop  offset="0.6513" style="stop-color:#0C0457"/>
	<stop  offset="0.8062" style="stop-color:#07044D"/>
	<stop  offset="1" style="stop-color:#06044A"/>
</radialGradient>
<rect x="0" class="st1" width="600" height="450"/>
<g class="st2">
	<linearGradient id="SVGID_3_" gradientUnits="userSpaceOnUse" x1="550.8366" y1="368.7768" x2="594.6669" y2="368.7768">
		<stop  offset="0" style="stop-color:#E39A65"/>
		<stop  offset="1" style="stop-color:#E95F8D"/>
	</linearGradient>
	<path class="st3" d="M572.8,381.7c-1.6,0-3.2-0.4-4.7-1.3l-15.8-9.1c-0.9-0.5-1.5-1.5-1.5-2.5c0-1.1,0.5-2,1.5-2.5l15.8-9.1
		c2.9-1.7,6.5-1.7,9.4,0l15.8,9.1c0.9,0.5,1.5,1.5,1.5,2.5c0,1.1-0.5,2-1.5,2.5l-15.8,9.1C576,381.2,574.4,381.7,572.8,381.7z
		 M572.8,358.4c-1.2,0-2.4,0.3-3.4,0.9l-15.8,9.1c-0.2,0.1-0.2,0.3-0.2,0.4c0,0.1,0,0.3,0.2,0.4l15.8,9.1c0,0,0,0,0,0
		c2.1,1.2,4.7,1.2,6.9,0l15.8-9.1c0.2-0.1,0.2-0.3,0.2-0.4c0-0.1,0-0.3-0.2-0.4l-15.8-9.1C575.1,358.7,573.9,358.4,572.8,358.4z"/>
	<linearGradient id="SVGID_4_" gradientUnits="userSpaceOnUse" x1="490.8242" y1="308.7083" x2="564.4475" y2="308.7083">
		<stop  offset="0" style="stop-color:#E39A65"/>
		<stop  offset="1" style="stop-color:#E95F8D"/>
	</linearGradient>
	<path class="st4" d="M527.6,330c-2.6,0-5.3-0.7-7.6-2l-27.1-15.7c-1.3-0.7-2.1-2.1-2.1-3.6c0-1.5,0.8-2.8,2.1-3.6l27.1-15.7
		c4.7-2.7,10.5-2.7,15.2,0l27.1,15.7c1.3,0.7,2.1,2.1,2.1,3.6c0,1.5-0.8,2.8-2.1,3.6L535.2,328C532.9,329.3,530.3,330,527.6,330z
		 M521.3,325.8c3.9,2.3,8.8,2.3,12.7,0l27.1-15.7c0.7-0.4,0.8-1.1,0.8-1.4c0-0.3-0.1-1-0.8-1.4L534,291.6c-3.9-2.3-8.8-2.3-12.7,0
		l-27.1,15.7c-0.7,0.4-0.8,1.1-0.8,1.4c0,0.3,0.1,1,0.8,1.4L521.3,325.8z"/>
	<linearGradient id="SVGID_5_" gradientUnits="userSpaceOnUse" x1="5.3331" y1="333.3742" x2="78.9563" y2="333.3742">
		<stop  offset="0" style="stop-color:#E39A65"/>
		<stop  offset="1" style="stop-color:#E95F8D"/>
	</linearGradient>
	<path class="st5" d="M42.1,354.7c-2.6,0-5.3-0.7-7.6-2L7.4,336.9c-1.3-0.7-2.1-2.1-2.1-3.6c0-1.5,0.8-2.8,2.1-3.6l27.1-15.7
		c4.7-2.7,10.5-2.7,15.2,0l27.1,15.7c1.3,0.7,2.1,2.1,2.1,3.6c0,1.5-0.8,2.8-2.1,3.6l-27.1,15.7C47.4,354,44.8,354.7,42.1,354.7z
		 M42.1,314.6c-2.2,0-4.4,0.6-6.4,1.7L8.6,332c-0.7,0.4-0.8,1.1-0.8,1.4c0,0.3,0.1,1,0.8,1.4l27.1,15.7l0,0c3.9,2.3,8.8,2.3,12.7,0
		l27.1-15.7c0.7-0.4,0.8-1.1,0.8-1.4c0-0.3-0.1-1-0.8-1.4l-27.1-15.7C46.5,315.2,44.3,314.6,42.1,314.6z"/>
	<path class="st6" d="M317.1,423L122.9,311c-2.8-1.6-2.5-4.5,0.8-6.4l124.6-71.9c3.3-1.9,8.2-2.1,11-0.5l194.1,112.1
		c2.8,1.6,2.5,4.5-0.8,6.4l-124.6,71.9C324.8,424.5,319.9,424.7,317.1,423z"/>
	<linearGradient id="SVGID_6_" gradientUnits="userSpaceOnUse" x1="91.0473" y1="328.6517" x2="483.9834" y2="328.6517">
		<stop  offset="0" style="stop-color:#E39A65"/>
		<stop  offset="1" style="stop-color:#E95F8D"/>
	</linearGradient>
	<path class="st7" d="M321.5,443.3c-2.3,0-4.4-0.5-6.1-1.4h0L93.9,313.9c-1.8-1-2.8-2.6-2.8-4.2c0-1.9,1.4-3.8,3.7-5.2l151-88.5
		c4.1-2.4,10.2-2.6,13.9-0.5l221.5,127.9c1.8,1,2.8,2.6,2.8,4.2c0,1.9-1.4,3.8-3.7,5.2l-151,88.5C327,442.6,324.2,443.3,321.5,443.3
		z M253.6,216.6c-2.3,0-4.7,0.5-6.5,1.6L96,306.6c-1.5,0.9-2.5,2-2.5,3c0,1,0.8,1.7,1.6,2.1l221.5,127.9c0,0,0,0,0,0
		c2.8,1.6,8,1.4,11.3-0.5l151-88.5c1.5-0.9,2.5-2,2.5-3c0-1-0.8-1.7-1.6-2.1L258.4,217.6C257.1,216.9,255.4,216.6,253.6,216.6z"/>
	<radialGradient id="SVGID_7_" cx="308.0886" cy="37.7322" r="300.1148" gradientUnits="userSpaceOnUse">
		<stop  offset="0" style="stop-color:#E39A65"/>
		<stop  offset="0.4742" style="stop-color:#A92FFB"/>
		<stop  offset="0.5947" style="stop-color:#891CFB"/>
		<stop  offset="0.7421" style="stop-color:#6507FA"/>
		<stop  offset="0.8016" style="stop-color:#0D0C6F"/>
	</radialGradient>
	<path class="st8" d="M505,156.4L311.7,44.7c-1.3-0.8-2.7-0.9-3.9-0.6v0l0,0c0,0,0,0,0,0l-3.6,1.2l1.3,0.3c-0.5,0.6-0.9,1.3-1.2,2.2
		l-43.7,142c-1.1,3.5,0.5,7.8,3.5,9.6l193.4,111.6c0.5,0.3,0.9,0.5,1.4,0.6l-0.5,1l3.4-1.2l0,0c1.4-0.6,2.6-1.8,3.1-3.6l43.7-142
		C509.7,162.4,508.1,158.1,505,156.4z"/>
	<radialGradient id="SVGID_8_" cx="124.532" cy="278.7462" r="328.1729" gradientUnits="userSpaceOnUse">
		<stop  offset="0" style="stop-color:#E39A65"/>
		<stop  offset="0.4742" style="stop-color:#A92FFB"/>
		<stop  offset="0.5679" style="stop-color:#891CFB"/>
		<stop  offset="0.6825" style="stop-color:#6507FA"/>
		<stop  offset="0.7381" style="stop-color:#0D0C6F"/>
	</radialGradient>
	<path class="st9" d="M450.5,316.4L450.5,316.4L259.6,206.2c-2.8-1.6-7.7-1.4-11,0.5l-123.4,71.2l-4.1-1.6l1.2,5.8l0,0
		c0.2,0.9,0.8,1.7,1.9,2.3l192.7,111.3c2.8,1.6,7.7,1.4,11-0.5l123.7-71.4c1.5-0.9,2.4-2,2.6-3.1l0,0l1.2-5.6L450.5,316.4z"/>
	<radialGradient id="SVGID_9_" cx="154.7151" cy="212.8764" r="294.287" gradientUnits="userSpaceOnUse">
		<stop  offset="0" style="stop-color:#E39A65"/>
		<stop  offset="0.4742" style="stop-color:#A92FFB"/>
		<stop  offset="0.5875" style="stop-color:#891CFB"/>
		<stop  offset="0.7262" style="stop-color:#6507FA"/>
		<stop  offset="1" style="stop-color:#3919BB"/>
	</radialGradient>
	<path class="st10" d="M317.1,390.6L122.9,278.5c-2.8-1.6-2.5-4.5,0.8-6.4l124.6-71.9c3.3-1.9,8.2-2.1,11-0.5l194.1,112.1
		c2.8,1.6,2.5,4.5-0.8,6.4l-124.6,71.9C324.8,392.1,319.9,392.3,317.1,390.6z"/>
	<path class="st11" d="M452.7,316.7l-124.6,71.9c-3.3,1.9-8.2,2.1-11,0.5L122.9,277c-1-0.6-1.5-1.3-1.8-2c-0.4,1.3,0.2,2.6,1.8,3.5
		l194.1,112.1c2.8,1.6,7.8,1.4,11-0.5l124.6-71.9c2.2-1.2,3-2.9,2.6-4.4C455,314.9,454.1,315.9,452.7,316.7z"/>
	<g class="st12">
		<path class="st13" d="M215.5,260.4l-6.6-3.8c-0.5-0.3-0.5-0.8,0.1-1.2l7.7-4.5c0.6-0.4,1.5-0.4,2.1-0.1l6.6,3.8
			c0.5,0.3,0.5,0.8-0.1,1.2l-7.7,4.5C217,260.6,216.1,260.7,215.5,260.4z"/>
		<path class="st13" d="M225.7,266.2l-6.6-3.8c-0.5-0.3-0.5-0.8,0.1-1.2l7.7-4.5c0.6-0.4,1.5-0.4,2.1-0.1l6.6,3.8
			c0.5,0.3,0.5,0.8-0.1,1.2l-7.7,4.5C227.1,266.5,226.2,266.5,225.7,266.2z"/>
		<path class="st13" d="M235.8,272l-6.6-3.8c-0.5-0.3-0.5-0.8,0.1-1.2l7.7-4.5c0.6-0.4,1.5-0.4,2.1-0.1l6.6,3.8
			c0.5,0.3,0.5,0.8-0.1,1.2l-7.7,4.5C237.2,272.3,236.3,272.4,235.8,272z"/>
		<path class="st13" d="M249.8,267.2l-6.6-3.8c-0.5-0.3-0.5-0.8,0.1-1.2l6.5-3.7c0.6-0.4,1.5-0.4,2.1-0.1l6.6,3.8
			c0.5,0.3,0.5,0.8-0.1,1.2l-6.5,3.7C251.2,267.5,250.3,267.5,249.8,267.2z"/>
		<path class="st13" d="M259.9,273.1l-6.6-3.8c-0.5-0.3-0.5-0.8,0.1-1.2l6.5-3.7c0.6-0.4,1.5-0.4,2.1-0.1l6.6,3.8
			c0.5,0.3,0.5,0.8-0.1,1.2l-6.5,3.7C261.3,273.3,260.4,273.4,259.9,273.1z"/>
		<path class="st13" d="M270,278.9l-6.6-3.8c-0.5-0.3-0.5-0.8,0.1-1.2l6.5-3.7c0.6-0.4,1.5-0.4,2.1-0.1l6.6,3.8
			c0.5,0.3,0.5,0.8-0.1,1.2l-6.5,3.7C271.5,279.2,270.5,279.2,270,278.9z"/>
		<path class="st13" d="M280.1,284.8l-6.6-3.8c-0.5-0.3-0.5-0.8,0.1-1.2l6.5-3.7c0.6-0.4,1.5-0.4,2.1-0.1l6.6,3.8
			c0.5,0.3,0.5,0.8-0.1,1.2l-6.5,3.7C281.6,285,280.7,285.1,280.1,284.8z"/>
		<path class="st13" d="M290.3,290.6l-6.6-3.8c-0.5-0.3-0.5-0.8,0.1-1.2l6.5-3.7c0.6-0.4,1.5-0.4,2.1-0.1l6.6,3.8
			c0.5,0.3,0.5,0.8-0.1,1.2l-6.5,3.7C291.7,290.9,290.8,290.9,290.3,290.6z"/>
		<path class="st13" d="M300.4,296.4l-6.6-3.8c-0.5-0.3-0.5-0.8,0.1-1.2l6.5-3.7c0.6-0.4,1.5-0.4,2.1-0.1l6.6,3.8
			c0.5,0.3,0.5,0.8-0.1,1.2l-6.5,3.7C301.8,296.7,300.9,296.7,300.4,296.4z"/>
		<path class="st13" d="M310.5,302.3l-6.6-3.8c-0.5-0.3-0.5-0.8,0.1-1.2l6.5-3.7c0.6-0.4,1.5-0.4,2.1-0.1l6.6,3.8
			c0.5,0.3,0.5,0.8-0.1,1.2l-6.5,3.7C311.9,302.5,311,302.6,310.5,302.3z"/>
		<path class="st13" d="M320.6,308.1l-6.6-3.8c-0.5-0.3-0.5-0.8,0.1-1.2l6.5-3.7c0.6-0.4,1.5-0.4,2.1-0.1l6.6,3.8
			c0.5,0.3,0.5,0.8-0.1,1.2l-6.5,3.7C322.1,308.4,321.1,308.4,320.6,308.1z"/>
		<path class="st13" d="M330.7,314l-6.6-3.8c-0.5-0.3-0.5-0.8,0.1-1.2l6.5-3.7c0.6-0.4,1.5-0.4,2.1-0.1l6.6,3.8
			c0.5,0.3,0.5,0.8-0.1,1.2l-6.5,3.7C332.2,314.2,331.3,314.3,330.7,314z"/>
		<path class="st13" d="M340.9,319.8l-6.6-3.8c-0.5-0.3-0.5-0.8,0.1-1.2l6.5-3.7c0.6-0.4,1.5-0.4,2.1-0.1l6.6,3.8
			c0.5,0.3,0.5,0.8-0.1,1.2l-6.5,3.7C342.3,320.1,341.4,320.1,340.9,319.8z"/>
		<path class="st13" d="M264.7,264.5l-6.6-3.8c-0.5-0.3-0.5-0.8,0.1-1.2l6.5-3.7c0.6-0.4,1.5-0.4,2.1-0.1l6.6,3.8
			c0.5,0.3,0.5,0.8-0.1,1.2l-6.5,3.7C266.1,264.7,265.2,264.8,264.7,264.5z"/>
		<path class="st13" d="M254.4,258.5l-6.6-3.8c-0.5-0.3-0.5-0.8,0.1-1.2l6.5-3.7c0.6-0.4,1.5-0.4,2.1-0.1l6.6,3.8
			c0.5,0.3,0.5,0.8-0.1,1.2l-6.5,3.7C255.9,258.8,254.9,258.8,254.4,258.5z"/>
		<path class="st13" d="M244.1,252.6l-14.1-8.1c-0.5-0.3-0.5-0.8,0.1-1.2l6.5-3.7c0.6-0.4,1.5-0.4,2.1-0.1l14.1,8.1
			c0.5,0.3,0.5,0.8-0.1,1.2l-6.5,3.7C245.6,252.9,244.7,252.9,244.1,252.6z"/>
		<path class="st13" d="M251.3,245.4l-11.5-6.6c-0.5-0.3-0.5-0.8,0.1-1.2l6.5-3.7c0.6-0.4,1.5-0.4,2.1-0.1l11.5,6.6
			c0.5,0.3,0.5,0.8-0.1,1.2l-6.5,3.7C252.8,245.6,251.8,245.7,251.3,245.4z"/>
		<path class="st13" d="M274.8,270.3l-6.6-3.8c-0.5-0.3-0.5-0.8,0.1-1.2l6.5-3.7c0.6-0.4,1.5-0.4,2.1-0.1l6.6,3.8
			c0.5,0.3,0.5,0.8-0.1,1.2l-6.5,3.7C276.3,270.6,275.3,270.6,274.8,270.3z"/>
		<path class="st13" d="M284.9,276.1l-6.6-3.8c-0.5-0.3-0.5-0.8,0.1-1.2l6.5-3.7c0.6-0.4,1.5-0.4,2.1-0.1l6.6,3.8
			c0.5,0.3,0.5,0.8-0.1,1.2l-6.5,3.7C286.4,276.4,285.5,276.4,284.9,276.1z"/>
		<path class="st13" d="M295,282l-6.6-3.8c-0.5-0.3-0.5-0.8,0.1-1.2l6.5-3.7c0.6-0.4,1.5-0.4,2.1-0.1l6.6,3.8
			c0.5,0.3,0.5,0.8-0.1,1.2l-6.5,3.7C296.5,282.3,295.6,282.3,295,282z"/>
		<path class="st13" d="M305.2,287.8l-6.6-3.8c-0.5-0.3-0.5-0.8,0.1-1.2l6.5-3.7c0.6-0.4,1.5-0.4,2.1-0.1l6.6,3.8
			c0.5,0.3,0.5,0.8-0.1,1.2l-6.5,3.7C306.6,288.1,305.7,288.1,305.2,287.8z"/>
		<path class="st13" d="M315.3,293.7l-6.6-3.8c-0.5-0.3-0.5-0.8,0.1-1.2l6.5-3.7c0.6-0.4,1.5-0.4,2.1-0.1l6.6,3.8
			c0.5,0.3,0.5,0.8-0.1,1.2l-6.5,3.7C316.7,293.9,315.8,294,315.3,293.7z"/>
		<path class="st13" d="M325.4,299.5l-6.6-3.8c-0.5-0.3-0.5-0.8,0.1-1.2l6.5-3.7c0.6-0.4,1.5-0.4,2.1-0.1l6.6,3.8
			c0.5,0.3,0.5,0.8-0.1,1.2l-6.5,3.7C326.9,299.8,325.9,299.8,325.4,299.5z"/>
		<path class="st13" d="M335.5,305.4l-6.6-3.8c-0.5-0.3-0.5-0.8,0.1-1.2l6.5-3.7c0.6-0.4,1.5-0.4,2.1-0.1l6.6,3.8
			c0.5,0.3,0.5,0.8-0.1,1.2l-6.5,3.7C337,305.6,336.1,305.7,335.5,305.4z"/>
		<path class="st13" d="M345.7,311.2l-6.6-3.8c-0.5-0.3-0.5-0.8,0.1-1.2l6.5-3.7c0.6-0.4,1.5-0.4,2.1-0.1l6.6,3.8
			c0.5,0.3,0.5,0.8-0.1,1.2l-6.5,3.7C347.1,311.5,346.2,311.5,345.7,311.2z"/>
		<path class="st13" d="M355.8,317l-6.6-3.8c-0.5-0.3-0.5-0.8,0.1-1.2l6.5-3.7c0.6-0.4,1.5-0.4,2.1-0.1l6.6,3.8
			c0.5,0.3,0.5,0.8-0.1,1.2l-6.5,3.7C357.2,317.3,356.3,317.3,355.8,317z"/>
		<path class="st13" d="M373.8,327.4l-14.3-8.3c-0.5-0.3-0.5-0.8,0.1-1.2l6.5-3.7c0.6-0.4,1.5-0.4,2.1-0.1l14.3,8.3
			c0.5,0.3,0.5,0.8-0.1,1.2l-6.5,3.7C375.2,327.7,374.3,327.7,373.8,327.4z"/>
		<path class="st13" d="M393.5,316.1l-12.1-7c-0.5-0.3-0.5-0.8,0.1-1.2l6.5-3.7c0.6-0.4,1.5-0.4,2.1-0.1l12.1,7
			c0.5,0.3,0.5,0.8-0.1,1.2l-6.5,3.7C394.9,316.3,394,316.4,393.5,316.1z"/>
		<path class="st13" d="M292.5,269.2l-6.6-3.8c-0.5-0.3-0.5-0.8,0.1-1.2l6.5-3.7c0.6-0.4,1.5-0.4,2.1-0.1l6.6,3.8
			c0.5,0.3,0.5,0.8-0.1,1.2l-6.5,3.7C294,269.4,293.1,269.5,292.5,269.2z"/>
		<path class="st13" d="M282.2,263.2l-6.6-3.8c-0.5-0.3-0.5-0.8,0.1-1.2l6.5-3.7c0.6-0.4,1.5-0.4,2.1-0.1l6.6,3.8
			c0.5,0.3,0.5,0.8-0.1,1.2l-6.5,3.7C283.6,263.4,282.7,263.5,282.2,263.2z"/>
		<path class="st13" d="M271.8,257.2l-6.6-3.8c-0.5-0.3-0.5-0.8,0.1-1.2l6.5-3.7c0.6-0.4,1.5-0.4,2.1-0.1l6.6,3.8
			c0.5,0.3,0.5,0.8-0.1,1.2l-6.5,3.7C273.2,257.4,272.3,257.5,271.8,257.2z"/>
		<path class="st13" d="M261.4,251.2l-6.6-3.8c-0.5-0.3-0.5-0.8,0.1-1.2l6.5-3.7c0.6-0.4,1.5-0.4,2.1-0.1l6.6,3.8
			c0.5,0.3,0.5,0.8-0.1,1.2l-6.5,3.7C262.9,251.5,261.9,251.5,261.4,251.2z"/>
		<path class="st13" d="M302.7,275l-6.6-3.8c-0.5-0.3-0.5-0.8,0.1-1.2l6.5-3.7c0.6-0.4,1.5-0.4,2.1-0.1l6.6,3.8
			c0.5,0.3,0.5,0.8-0.1,1.2l-6.5,3.7C304.1,275.3,303.2,275.3,302.7,275z"/>
		<path class="st13" d="M312.8,280.8l-6.6-3.8c-0.5-0.3-0.5-0.8,0.1-1.2l6.5-3.7c0.6-0.4,1.5-0.4,2.1-0.1l6.6,3.8
			c0.5,0.3,0.5,0.8-0.1,1.2l-6.5,3.7C314.2,281.1,313.3,281.1,312.8,280.8z"/>
		<path class="st13" d="M322.9,286.7l-6.6-3.8c-0.5-0.3-0.5-0.8,0.1-1.2l6.5-3.7c0.6-0.4,1.5-0.4,2.1-0.1l6.6,3.8
			c0.5,0.3,0.5,0.8-0.1,1.2l-6.5,3.7C324.3,287,323.4,287,322.9,286.7z"/>
		<path class="st13" d="M333,292.5l-6.6-3.8c-0.5-0.3-0.5-0.8,0.1-1.2l6.5-3.7c0.6-0.4,1.5-0.4,2.1-0.1l6.6,3.8
			c0.5,0.3,0.5,0.8-0.1,1.2l-6.5,3.7C334.5,292.8,333.5,292.8,333,292.5z"/>
		<path class="st13" d="M343.1,298.4l-6.6-3.8c-0.5-0.3-0.5-0.8,0.1-1.2l6.5-3.7c0.6-0.4,1.5-0.4,2.1-0.1l6.6,3.8
			c0.5,0.3,0.5,0.8-0.1,1.2l-6.5,3.7C344.6,298.6,343.7,298.7,343.1,298.4z"/>
		<path class="st13" d="M353.3,304.2l-6.6-3.8c-0.5-0.3-0.5-0.8,0.1-1.2l6.5-3.7c0.6-0.4,1.5-0.4,2.1-0.1l6.6,3.8
			c0.5,0.3,0.5,0.8-0.1,1.2l-6.5,3.7C354.7,304.5,353.8,304.5,353.3,304.2z"/>
		<path class="st13" d="M363.4,310.1l-6.6-3.8c-0.5-0.3-0.5-0.8,0.1-1.2l6.5-3.7c0.6-0.4,1.5-0.4,2.1-0.1l6.6,3.8
			c0.5,0.3,0.5,0.8-0.1,1.2l-6.5,3.7C364.8,310.3,363.9,310.4,363.4,310.1z"/>
		<path class="st13" d="M373.5,315.9l-6.6-3.8c-0.5-0.3-0.5-0.8,0.1-1.2l6.5-3.7c0.6-0.4,1.5-0.4,2.1-0.1l6.6,3.8
			c0.5,0.3,0.5,0.8-0.1,1.2l-6.5,3.7C374.9,316.2,374,316.2,373.5,315.9z"/>
		<path class="st13" d="M383.6,321.7l-6.6-3.8c-0.5-0.3-0.5-0.8,0.1-1.2l6.5-3.7c0.6-0.4,1.5-0.4,2.1-0.1l6.6,3.8
			c0.5,0.3,0.5,0.8-0.1,1.2l-6.5,3.7C385.1,322,384.1,322,383.6,321.7z"/>
		<path class="st13" d="M287.2,254.7l-6.6-3.8c-0.5-0.3-0.5-0.8,0.1-1.2l6.5-3.7c0.6-0.4,1.5-0.4,2.1-0.1l6.6,3.8
			c0.5,0.3,0.5,0.8-0.1,1.2l-6.5,3.7C288.6,255,287.7,255,287.2,254.7z"/>
		<path class="st13" d="M277.1,248.9l-6.6-3.8c-0.5-0.3-0.5-0.8,0.1-1.2l6.5-3.7c0.6-0.4,1.5-0.4,2.1-0.1l6.6,3.8
			c0.5,0.3,0.5,0.8-0.1,1.2l-6.5,3.7C278.6,249.2,277.7,249.2,277.1,248.9z"/>
		<path class="st13" d="M267.1,243.1l-6.6-3.8c-0.5-0.3-0.5-0.8,0.1-1.2l6.5-3.7c0.6-0.4,1.5-0.4,2.1-0.1l6.6,3.8
			c0.5,0.3,0.5,0.8-0.1,1.2l-6.5,3.7C268.5,243.3,267.6,243.4,267.1,243.1z"/>
		<path class="st13" d="M257,237.3l-6.6-3.8c-0.5-0.3-0.5-0.8,0.1-1.2l6.5-3.7c0.6-0.4,1.5-0.4,2.1-0.1l6.6,3.8
			c0.5,0.3,0.5,0.8-0.1,1.2l-6.5,3.7C258.4,237.5,257.5,237.6,257,237.3z"/>
		<path class="st13" d="M267.3,231.3l-6.6-3.8c-0.5-0.3-0.5-0.8,0.1-1.2l2.1-1.2c0.6-0.4,1.5-0.4,2.1-0.1l6.6,3.8
			c0.5,0.3,0.5,0.8-0.1,1.2l-2.1,1.2C268.8,231.5,267.9,231.6,267.3,231.3z"/>
		<path class="st13" d="M280.5,238.9l-6.6-3.8c-0.5-0.3-0.5-0.8,0.1-1.2l2.1-1.2c0.6-0.4,1.5-0.4,2.1-0.1l6.6,3.8
			c0.5,0.3,0.5,0.8-0.1,1.2l-2.1,1.2C281.9,239.1,281,239.2,280.5,238.9z"/>
		<path class="st13" d="M290.5,244.7l-6.6-3.8c-0.5-0.3-0.5-0.8,0.1-1.2l2.1-1.2c0.6-0.4,1.5-0.4,2.1-0.1l6.6,3.8
			c0.5,0.3,0.5,0.8-0.1,1.2l-2.1,1.2C292,244.9,291,245,290.5,244.7z"/>
		<path class="st13" d="M300.5,250.4l-6.6-3.8c-0.5-0.3-0.5-0.8,0.1-1.2l2.1-1.2c0.6-0.4,1.5-0.4,2.1-0.1l6.6,3.8
			c0.5,0.3,0.5,0.8-0.1,1.2l-2.1,1.2C302,250.7,301.1,250.8,300.5,250.4z"/>
		<path class="st13" d="M310.6,256.2l-6.6-3.8c-0.5-0.3-0.5-0.8,0.1-1.2l2.1-1.2c0.6-0.4,1.5-0.4,2.1-0.1l6.6,3.8
			c0.5,0.3,0.5,0.8-0.1,1.2l-2.1,1.2C312,256.5,311.1,256.5,310.6,256.2z"/>
		<path class="st13" d="M366.6,288.6l-6.6-3.8c-0.5-0.3-0.5-0.8,0.1-1.2l2.1-1.2c0.6-0.4,1.5-0.4,2.1-0.1l6.6,3.8
			c0.5,0.3,0.5,0.8-0.1,1.2l-2.1,1.2C368,288.8,367.1,288.9,366.6,288.6z"/>
		<path class="st13" d="M376.6,294.4l-6.6-3.8c-0.5-0.3-0.5-0.8,0.1-1.2l2.1-1.2c0.6-0.4,1.5-0.4,2.1-0.1l6.6,3.8
			c0.5,0.3,0.5,0.8-0.1,1.2l-2.1,1.2C378,294.6,377.1,294.7,376.6,294.4z"/>
		<path class="st13" d="M386.6,300.1l-6.6-3.8c-0.5-0.3-0.5-0.8,0.1-1.2l2.1-1.2c0.6-0.4,1.5-0.4,2.1-0.1l6.6,3.8
			c0.5,0.3,0.5,0.8-0.1,1.2l-2.1,1.2C388.1,300.4,387.1,300.4,386.6,300.1z"/>
		<path class="st13" d="M396.6,305.9l-6.6-3.8c-0.5-0.3-0.5-0.8,0.1-1.2l2.1-1.2c0.6-0.4,1.5-0.4,2.1-0.1l6.6,3.8
			c0.5,0.3,0.5,0.8-0.1,1.2l-2.1,1.2C398.1,306.2,397.2,306.2,396.6,305.9z"/>
		<path class="st13" d="M297.3,260.5l-6.6-3.8c-0.5-0.3-0.5-0.8,0.1-1.2l6.5-3.7c0.6-0.4,1.5-0.4,2.1-0.1l6.6,3.8
			c0.5,0.3,0.5,0.8-0.1,1.2l-6.5,3.7C298.8,260.8,297.8,260.8,297.3,260.5z"/>
		<path class="st13" d="M307.4,266.4l-6.6-3.8c-0.5-0.3-0.5-0.8,0.1-1.2l6.5-3.7c0.6-0.4,1.5-0.4,2.1-0.1l6.6,3.8
			c0.5,0.3,0.5,0.8-0.1,1.2l-6.5,3.7C308.9,266.7,308,266.7,307.4,266.4z"/>
		<path class="st13" d="M317.6,272.2l-6.6-3.8c-0.5-0.3-0.5-0.8,0.1-1.2l6.5-3.7c0.6-0.4,1.5-0.4,2.1-0.1l6.6,3.8
			c0.5,0.3,0.5,0.8-0.1,1.2l-6.5,3.7C319,272.5,318.1,272.5,317.6,272.2z"/>
		<path class="st13" d="M327.7,278.1l-6.6-3.8c-0.5-0.3-0.5-0.8,0.1-1.2l6.5-3.7c0.6-0.4,1.5-0.4,2.1-0.1l6.6,3.8
			c0.5,0.3,0.5,0.8-0.1,1.2l-6.5,3.7C329.1,278.3,328.2,278.4,327.7,278.1z"/>
		<path class="st13" d="M337.8,283.9l-6.6-3.8c-0.5-0.3-0.5-0.8,0.1-1.2l6.5-3.7c0.6-0.4,1.5-0.4,2.1-0.1l6.6,3.8
			c0.5,0.3,0.5,0.8-0.1,1.2l-6.5,3.7C339.2,284.2,338.3,284.2,337.8,283.9z"/>
		<path class="st13" d="M347.9,289.8l-6.6-3.8c-0.5-0.3-0.5-0.8,0.1-1.2l6.5-3.7c0.6-0.4,1.5-0.4,2.1-0.1l6.6,3.8
			c0.5,0.3,0.5,0.8-0.1,1.2l-6.5,3.7C349.4,290,348.5,290.1,347.9,289.8z"/>
		<path class="st13" d="M358,295.6l-6.6-3.8c-0.5-0.3-0.5-0.8,0.1-1.2l6.5-3.7c0.6-0.4,1.5-0.4,2.1-0.1l6.6,3.8
			c0.5,0.3,0.5,0.8-0.1,1.2l-6.5,3.7C359.5,295.9,358.6,295.9,358,295.6z"/>
		<path class="st13" d="M368.2,301.4l-6.6-3.8c-0.5-0.3-0.5-0.8,0.1-1.2l6.5-3.7c0.6-0.4,1.5-0.4,2.1-0.1l6.6,3.8
			c0.5,0.3,0.5,0.8-0.1,1.2l-6.5,3.7C369.6,301.7,368.7,301.8,368.2,301.4z"/>
		<path class="st13" d="M378.3,307.3l-6.6-3.8c-0.5-0.3-0.5-0.8,0.1-1.2l6.5-3.7c0.6-0.4,1.5-0.4,2.1-0.1l6.6,3.8
			c0.5,0.3,0.5,0.8-0.1,1.2l-6.5,3.7C379.7,307.6,378.8,307.6,378.3,307.3z"/>
		<path class="st13" d="M239.5,261.3l-19.3-11.1c-0.5-0.3-0.5-0.8,0.1-1.2l6.5-3.7c0.6-0.4,1.5-0.4,2.1-0.1l19.3,11.1
			c0.5,0.3,0.5,0.8-0.1,1.2l-6.5,3.7C240.9,261.5,240,261.6,239.5,261.3z"/>
		<path class="st13" d="M363.8,333.1l-19.3-11.1c-0.5-0.3-0.5-0.8,0.1-1.2l6.5-3.7c0.6-0.4,1.5-0.4,2.1-0.1l19.3,11.1
			c0.5,0.3,0.5,0.8-0.1,1.2l-6.5,3.7C365.2,333.3,364.3,333.4,363.8,333.1z"/>
		<path class="st13" d="M323.3,322.6l-6.6-3.8c-0.5-0.3-0.5-0.8,0.1-1.2l7.7-4.5c0.6-0.4,1.5-0.4,2.1-0.1l6.6,3.8
			c0.5,0.3,0.5,0.8-0.1,1.2l-7.7,4.5C324.8,322.9,323.8,322.9,323.3,322.6z"/>
		<path class="st13" d="M249.8,280.2l-10.5-6.1c-0.5-0.3-0.5-0.8,0.1-1.2l7.7-4.5c0.6-0.4,1.5-0.4,2.1-0.1l10.5,6.1
			c0.5,0.3,0.5,0.8-0.1,1.2l-7.7,4.5C251.3,280.4,250.3,280.5,249.8,280.2z"/>
		<path class="st13" d="M313.6,317l-10.5-6.1c-0.5-0.3-0.5-0.8,0.1-1.2l7.7-4.5c0.6-0.4,1.5-0.4,2.1-0.1l10.5,6.1
			c0.5,0.3,0.5,0.8-0.1,1.2l-7.7,4.5C315,317.2,314.1,317.3,313.6,317z"/>
		<path class="st13" d="M264.4,288.6l-10.5-6.1c-0.5-0.3-0.5-0.8,0.1-1.2l7.7-4.5c0.6-0.4,1.5-0.4,2.1-0.1l10.5,6.1
			c0.5,0.3,0.5,0.8-0.1,1.2l-7.7,4.5C265.9,288.9,265,288.9,264.4,288.6z"/>
		<path class="st13" d="M264,276.8l45.6,26.3c0.6,0.3,0.6,0.9,0,1.2l-7.9,4.6c-0.6,0.3-1.5,0.3-2,0L254,282.6L264,276.8z"/>
		<path class="st13" d="M351.6,333.2l7.3,4.2c0.4,0.2,0.4,0.7-0.1,1l-3.2,1.8c-0.5,0.3-1.3,0.3-1.7,0.1l-7.3-4.2
			c-0.4-0.2-0.4-0.7,0.1-1l3.2-1.8C350.4,333,351.2,332.9,351.6,333.2z"/>
		<path class="st13" d="M341.4,327.3l7.3,4.2c0.4,0.2,0.4,0.7-0.1,1l-3.2,1.8c-0.5,0.3-1.3,0.3-1.7,0.1l-7.3-4.2
			c-0.4-0.2-0.4-0.7,0.1-1l3.2-1.8C340.2,327.1,341,327,341.4,327.3z"/>
		<path class="st13" d="M331.3,321.5l7.3,4.2c0.4,0.2,0.4,0.7-0.1,1l-3.2,1.8c-0.5,0.3-1.3,0.3-1.7,0.1l-7.3-4.2
			c-0.4-0.2-0.4-0.7,0.1-1l3.2-1.8C330.1,321.2,330.9,321.2,331.3,321.5z"/>
		<path class="st13" d="M347,324.1l7.3,4.2c0.4,0.2,0.4,0.7-0.1,1l-3.2,1.8c-0.5,0.3-1.3,0.3-1.7,0.1l-7.3-4.2
			c-0.4-0.2-0.4-0.7,0.1-1l3.2-1.8C345.8,323.9,346.6,323.8,347,324.1z"/>
	</g>
	<g class="st12">
		<path class="st13" d="M215.5,260.4l-6.6-3.8c-0.5-0.3-0.5-0.8,0.1-1.2l7.7-4.5c0.6-0.4,1.5-0.4,2.1-0.1l6.6,3.8
			c0.5,0.3,0.5,0.8-0.1,1.2l-7.7,4.5C217,260.6,216.1,260.7,215.5,260.4z"/>
		<path class="st13" d="M225.7,266.2l-6.6-3.8c-0.5-0.3-0.5-0.8,0.1-1.2l7.7-4.5c0.6-0.4,1.5-0.4,2.1-0.1l6.6,3.8
			c0.5,0.3,0.5,0.8-0.1,1.2l-7.7,4.5C227.1,266.5,226.2,266.5,225.7,266.2z"/>
		<path class="st13" d="M235.8,272l-6.6-3.8c-0.5-0.3-0.5-0.8,0.1-1.2l7.7-4.5c0.6-0.4,1.5-0.4,2.1-0.1l6.6,3.8
			c0.5,0.3,0.5,0.8-0.1,1.2l-7.7,4.5C237.2,272.3,236.3,272.4,235.8,272z"/>
		<path class="st13" d="M249.8,267.2l-6.6-3.8c-0.5-0.3-0.5-0.8,0.1-1.2l6.5-3.7c0.6-0.4,1.5-0.4,2.1-0.1l6.6,3.8
			c0.5,0.3,0.5,0.8-0.1,1.2l-6.5,3.7C251.2,267.5,250.3,267.5,249.8,267.2z"/>
		<path class="st13" d="M259.9,273.1l-6.6-3.8c-0.5-0.3-0.5-0.8,0.1-1.2l6.5-3.7c0.6-0.4,1.5-0.4,2.1-0.1l6.6,3.8
			c0.5,0.3,0.5,0.8-0.1,1.2l-6.5,3.7C261.3,273.3,260.4,273.4,259.9,273.1z"/>
		<path class="st13" d="M270,278.9l-6.6-3.8c-0.5-0.3-0.5-0.8,0.1-1.2l6.5-3.7c0.6-0.4,1.5-0.4,2.1-0.1l6.6,3.8
			c0.5,0.3,0.5,0.8-0.1,1.2l-6.5,3.7C271.5,279.2,270.5,279.2,270,278.9z"/>
		<path class="st13" d="M280.1,284.8l-6.6-3.8c-0.5-0.3-0.5-0.8,0.1-1.2l6.5-3.7c0.6-0.4,1.5-0.4,2.1-0.1l6.6,3.8
			c0.5,0.3,0.5,0.8-0.1,1.2l-6.5,3.7C281.6,285,280.7,285.1,280.1,284.8z"/>
		<path class="st13" d="M290.3,290.6l-6.6-3.8c-0.5-0.3-0.5-0.8,0.1-1.2l6.5-3.7c0.6-0.4,1.5-0.4,2.1-0.1l6.6,3.8
			c0.5,0.3,0.5,0.8-0.1,1.2l-6.5,3.7C291.7,290.9,290.8,290.9,290.3,290.6z"/>
		<path class="st13" d="M300.4,296.4l-6.6-3.8c-0.5-0.3-0.5-0.8,0.1-1.2l6.5-3.7c0.6-0.4,1.5-0.4,2.1-0.1l6.6,3.8
			c0.5,0.3,0.5,0.8-0.1,1.2l-6.5,3.7C301.8,296.7,300.9,296.7,300.4,296.4z"/>
		<path class="st13" d="M310.5,302.3l-6.6-3.8c-0.5-0.3-0.5-0.8,0.1-1.2l6.5-3.7c0.6-0.4,1.5-0.4,2.1-0.1l6.6,3.8
			c0.5,0.3,0.5,0.8-0.1,1.2l-6.5,3.7C311.9,302.5,311,302.6,310.5,302.3z"/>
		<path class="st13" d="M320.6,308.1l-6.6-3.8c-0.5-0.3-0.5-0.8,0.1-1.2l6.5-3.7c0.6-0.4,1.5-0.4,2.1-0.1l6.6,3.8
			c0.5,0.3,0.5,0.8-0.1,1.2l-6.5,3.7C322.1,308.4,321.1,308.4,320.6,308.1z"/>
		<path class="st13" d="M330.7,314l-6.6-3.8c-0.5-0.3-0.5-0.8,0.1-1.2l6.5-3.7c0.6-0.4,1.5-0.4,2.1-0.1l6.6,3.8
			c0.5,0.3,0.5,0.8-0.1,1.2l-6.5,3.7C332.2,314.2,331.3,314.3,330.7,314z"/>
		<path class="st13" d="M340.9,319.8l-6.6-3.8c-0.5-0.3-0.5-0.8,0.1-1.2l6.5-3.7c0.6-0.4,1.5-0.4,2.1-0.1l6.6,3.8
			c0.5,0.3,0.5,0.8-0.1,1.2l-6.5,3.7C342.3,320.1,341.4,320.1,340.9,319.8z"/>
		<path class="st13" d="M264.7,264.5l-6.6-3.8c-0.5-0.3-0.5-0.8,0.1-1.2l6.5-3.7c0.6-0.4,1.5-0.4,2.1-0.1l6.6,3.8
			c0.5,0.3,0.5,0.8-0.1,1.2l-6.5,3.7C266.1,264.7,265.2,264.8,264.7,264.5z"/>
		<path class="st13" d="M254.4,258.5l-6.6-3.8c-0.5-0.3-0.5-0.8,0.1-1.2l6.5-3.7c0.6-0.4,1.5-0.4,2.1-0.1l6.6,3.8
			c0.5,0.3,0.5,0.8-0.1,1.2l-6.5,3.7C255.9,258.8,254.9,258.8,254.4,258.5z"/>
		<path class="st13" d="M244.1,252.6l-14.1-8.1c-0.5-0.3-0.5-0.8,0.1-1.2l6.5-3.7c0.6-0.4,1.5-0.4,2.1-0.1l14.1,8.1
			c0.5,0.3,0.5,0.8-0.1,1.2l-6.5,3.7C245.6,252.9,244.7,252.9,244.1,252.6z"/>
		<path class="st13" d="M251.3,245.4l-11.5-6.6c-0.5-0.3-0.5-0.8,0.1-1.2l6.5-3.7c0.6-0.4,1.5-0.4,2.1-0.1l11.5,6.6
			c0.5,0.3,0.5,0.8-0.1,1.2l-6.5,3.7C252.8,245.6,251.8,245.7,251.3,245.4z"/>
		<path class="st13" d="M274.8,270.3l-6.6-3.8c-0.5-0.3-0.5-0.8,0.1-1.2l6.5-3.7c0.6-0.4,1.5-0.4,2.1-0.1l6.6,3.8
			c0.5,0.3,0.5,0.8-0.1,1.2l-6.5,3.7C276.3,270.6,275.3,270.6,274.8,270.3z"/>
		<path class="st13" d="M284.9,276.1l-6.6-3.8c-0.5-0.3-0.5-0.8,0.1-1.2l6.5-3.7c0.6-0.4,1.5-0.4,2.1-0.1l6.6,3.8
			c0.5,0.3,0.5,0.8-0.1,1.2l-6.5,3.7C286.4,276.4,285.5,276.4,284.9,276.1z"/>
		<path class="st13" d="M295,282l-6.6-3.8c-0.5-0.3-0.5-0.8,0.1-1.2l6.5-3.7c0.6-0.4,1.5-0.4,2.1-0.1l6.6,3.8
			c0.5,0.3,0.5,0.8-0.1,1.2l-6.5,3.7C296.5,282.3,295.6,282.3,295,282z"/>
		<path class="st13" d="M305.2,287.8l-6.6-3.8c-0.5-0.3-0.5-0.8,0.1-1.2l6.5-3.7c0.6-0.4,1.5-0.4,2.1-0.1l6.6,3.8
			c0.5,0.3,0.5,0.8-0.1,1.2l-6.5,3.7C306.6,288.1,305.7,288.1,305.2,287.8z"/>
		<path class="st13" d="M315.3,293.7l-6.6-3.8c-0.5-0.3-0.5-0.8,0.1-1.2l6.5-3.7c0.6-0.4,1.5-0.4,2.1-0.1l6.6,3.8
			c0.5,0.3,0.5,0.8-0.1,1.2l-6.5,3.7C316.7,293.9,315.8,294,315.3,293.7z"/>
		<path class="st13" d="M325.4,299.5l-6.6-3.8c-0.5-0.3-0.5-0.8,0.1-1.2l6.5-3.7c0.6-0.4,1.5-0.4,2.1-0.1l6.6,3.8
			c0.5,0.3,0.5,0.8-0.1,1.2l-6.5,3.7C326.9,299.8,325.9,299.8,325.4,299.5z"/>
		<path class="st13" d="M335.5,305.4l-6.6-3.8c-0.5-0.3-0.5-0.8,0.1-1.2l6.5-3.7c0.6-0.4,1.5-0.4,2.1-0.1l6.6,3.8
			c0.5,0.3,0.5,0.8-0.1,1.2l-6.5,3.7C337,305.6,336.1,305.7,335.5,305.4z"/>
		<path class="st13" d="M345.7,311.2l-6.6-3.8c-0.5-0.3-0.5-0.8,0.1-1.2l6.5-3.7c0.6-0.4,1.5-0.4,2.1-0.1l6.6,3.8
			c0.5,0.3,0.5,0.8-0.1,1.2l-6.5,3.7C347.1,311.5,346.2,311.5,345.7,311.2z"/>
		<path class="st13" d="M355.8,317l-6.6-3.8c-0.5-0.3-0.5-0.8,0.1-1.2l6.5-3.7c0.6-0.4,1.5-0.4,2.1-0.1l6.6,3.8
			c0.5,0.3,0.5,0.8-0.1,1.2l-6.5,3.7C357.2,317.3,356.3,317.3,355.8,317z"/>
		<path class="st13" d="M373.8,327.4l-14.3-8.3c-0.5-0.3-0.5-0.8,0.1-1.2l6.5-3.7c0.6-0.4,1.5-0.4,2.1-0.1l14.3,8.3
			c0.5,0.3,0.5,0.8-0.1,1.2l-6.5,3.7C375.2,327.7,374.3,327.7,373.8,327.4z"/>
		<path class="st13" d="M393.5,316.1l-12.1-7c-0.5-0.3-0.5-0.8,0.1-1.2l6.5-3.7c0.6-0.4,1.5-0.4,2.1-0.1l12.1,7
			c0.5,0.3,0.5,0.8-0.1,1.2l-6.5,3.7C394.9,316.3,394,316.4,393.5,316.1z"/>
		<path class="st13" d="M292.5,269.2l-6.6-3.8c-0.5-0.3-0.5-0.8,0.1-1.2l6.5-3.7c0.6-0.4,1.5-0.4,2.1-0.1l6.6,3.8
			c0.5,0.3,0.5,0.8-0.1,1.2l-6.5,3.7C294,269.4,293.1,269.5,292.5,269.2z"/>
		<path class="st13" d="M282.2,263.2l-6.6-3.8c-0.5-0.3-0.5-0.8,0.1-1.2l6.5-3.7c0.6-0.4,1.5-0.4,2.1-0.1l6.6,3.8
			c0.5,0.3,0.5,0.8-0.1,1.2l-6.5,3.7C283.6,263.4,282.7,263.5,282.2,263.2z"/>
		<path class="st13" d="M271.8,257.2l-6.6-3.8c-0.5-0.3-0.5-0.8,0.1-1.2l6.5-3.7c0.6-0.4,1.5-0.4,2.1-0.1l6.6,3.8
			c0.5,0.3,0.5,0.8-0.1,1.2l-6.5,3.7C273.2,257.4,272.3,257.5,271.8,257.2z"/>
		<path class="st13" d="M261.4,251.2l-6.6-3.8c-0.5-0.3-0.5-0.8,0.1-1.2l6.5-3.7c0.6-0.4,1.5-0.4,2.1-0.1l6.6,3.8
			c0.5,0.3,0.5,0.8-0.1,1.2l-6.5,3.7C262.9,251.5,261.9,251.5,261.4,251.2z"/>
		<path class="st13" d="M302.7,275l-6.6-3.8c-0.5-0.3-0.5-0.8,0.1-1.2l6.5-3.7c0.6-0.4,1.5-0.4,2.1-0.1l6.6,3.8
			c0.5,0.3,0.5,0.8-0.1,1.2l-6.5,3.7C304.1,275.3,303.2,275.3,302.7,275z"/>
		<path class="st13" d="M312.8,280.8l-6.6-3.8c-0.5-0.3-0.5-0.8,0.1-1.2l6.5-3.7c0.6-0.4,1.5-0.4,2.1-0.1l6.6,3.8
			c0.5,0.3,0.5,0.8-0.1,1.2l-6.5,3.7C314.2,281.1,313.3,281.1,312.8,280.8z"/>
		<path class="st13" d="M322.9,286.7l-6.6-3.8c-0.5-0.3-0.5-0.8,0.1-1.2l6.5-3.7c0.6-0.4,1.5-0.4,2.1-0.1l6.6,3.8
			c0.5,0.3,0.5,0.8-0.1,1.2l-6.5,3.7C324.3,287,323.4,287,322.9,286.7z"/>
		<path class="st13" d="M333,292.5l-6.6-3.8c-0.5-0.3-0.5-0.8,0.1-1.2l6.5-3.7c0.6-0.4,1.5-0.4,2.1-0.1l6.6,3.8
			c0.5,0.3,0.5,0.8-0.1,1.2l-6.5,3.7C334.5,292.8,333.5,292.8,333,292.5z"/>
		<path class="st13" d="M343.1,298.4l-6.6-3.8c-0.5-0.3-0.5-0.8,0.1-1.2l6.5-3.7c0.6-0.4,1.5-0.4,2.1-0.1l6.6,3.8
			c0.5,0.3,0.5,0.8-0.1,1.2l-6.5,3.7C344.6,298.6,343.7,298.7,343.1,298.4z"/>
		<path class="st13" d="M353.3,304.2l-6.6-3.8c-0.5-0.3-0.5-0.8,0.1-1.2l6.5-3.7c0.6-0.4,1.5-0.4,2.1-0.1l6.6,3.8
			c0.5,0.3,0.5,0.8-0.1,1.2l-6.5,3.7C354.7,304.5,353.8,304.5,353.3,304.2z"/>
		<path class="st13" d="M363.4,310.1l-6.6-3.8c-0.5-0.3-0.5-0.8,0.1-1.2l6.5-3.7c0.6-0.4,1.5-0.4,2.1-0.1l6.6,3.8
			c0.5,0.3,0.5,0.8-0.1,1.2l-6.5,3.7C364.8,310.3,363.9,310.4,363.4,310.1z"/>
		<path class="st13" d="M373.5,315.9l-6.6-3.8c-0.5-0.3-0.5-0.8,0.1-1.2l6.5-3.7c0.6-0.4,1.5-0.4,2.1-0.1l6.6,3.8
			c0.5,0.3,0.5,0.8-0.1,1.2l-6.5,3.7C374.9,316.2,374,316.2,373.5,315.9z"/>
		<path class="st13" d="M383.6,321.7l-6.6-3.8c-0.5-0.3-0.5-0.8,0.1-1.2l6.5-3.7c0.6-0.4,1.5-0.4,2.1-0.1l6.6,3.8
			c0.5,0.3,0.5,0.8-0.1,1.2l-6.5,3.7C385.1,322,384.1,322,383.6,321.7z"/>
		<path class="st13" d="M287.2,254.7l-6.6-3.8c-0.5-0.3-0.5-0.8,0.1-1.2l6.5-3.7c0.6-0.4,1.5-0.4,2.1-0.1l6.6,3.8
			c0.5,0.3,0.5,0.8-0.1,1.2l-6.5,3.7C288.6,255,287.7,255,287.2,254.7z"/>
		<path class="st13" d="M277.1,248.9l-6.6-3.8c-0.5-0.3-0.5-0.8,0.1-1.2l6.5-3.7c0.6-0.4,1.5-0.4,2.1-0.1l6.6,3.8
			c0.5,0.3,0.5,0.8-0.1,1.2l-6.5,3.7C278.6,249.2,277.7,249.2,277.1,248.9z"/>
		<path class="st13" d="M267.1,243.1l-6.6-3.8c-0.5-0.3-0.5-0.8,0.1-1.2l6.5-3.7c0.6-0.4,1.5-0.4,2.1-0.1l6.6,3.8
			c0.5,0.3,0.5,0.8-0.1,1.2l-6.5,3.7C268.5,243.3,267.6,243.4,267.1,243.1z"/>
		<path class="st13" d="M257,237.3l-6.6-3.8c-0.5-0.3-0.5-0.8,0.1-1.2l6.5-3.7c0.6-0.4,1.5-0.4,2.1-0.1l6.6,3.8
			c0.5,0.3,0.5,0.8-0.1,1.2l-6.5,3.7C258.4,237.5,257.5,237.6,257,237.3z"/>
		<path class="st13" d="M267.3,231.3l-6.6-3.8c-0.5-0.3-0.5-0.8,0.1-1.2l2.1-1.2c0.6-0.4,1.5-0.4,2.1-0.1l6.6,3.8
			c0.5,0.3,0.5,0.8-0.1,1.2l-2.1,1.2C268.8,231.5,267.9,231.6,267.3,231.3z"/>
		<path class="st13" d="M280.5,238.9l-6.6-3.8c-0.5-0.3-0.5-0.8,0.1-1.2l2.1-1.2c0.6-0.4,1.5-0.4,2.1-0.1l6.6,3.8
			c0.5,0.3,0.5,0.8-0.1,1.2l-2.1,1.2C281.9,239.1,281,239.2,280.5,238.9z"/>
		<path class="st13" d="M290.5,244.7l-6.6-3.8c-0.5-0.3-0.5-0.8,0.1-1.2l2.1-1.2c0.6-0.4,1.5-0.4,2.1-0.1l6.6,3.8
			c0.5,0.3,0.5,0.8-0.1,1.2l-2.1,1.2C292,244.9,291,245,290.5,244.7z"/>
		<path class="st13" d="M300.5,250.4l-6.6-3.8c-0.5-0.3-0.5-0.8,0.1-1.2l2.1-1.2c0.6-0.4,1.5-0.4,2.1-0.1l6.6,3.8
			c0.5,0.3,0.5,0.8-0.1,1.2l-2.1,1.2C302,250.7,301.1,250.8,300.5,250.4z"/>
		<path class="st13" d="M310.6,256.2l-6.6-3.8c-0.5-0.3-0.5-0.8,0.1-1.2l2.1-1.2c0.6-0.4,1.5-0.4,2.1-0.1l6.6,3.8
			c0.5,0.3,0.5,0.8-0.1,1.2l-2.1,1.2C312,256.5,311.1,256.5,310.6,256.2z"/>
		<path class="st13" d="M366.6,288.6l-6.6-3.8c-0.5-0.3-0.5-0.8,0.1-1.2l2.1-1.2c0.6-0.4,1.5-0.4,2.1-0.1l6.6,3.8
			c0.5,0.3,0.5,0.8-0.1,1.2l-2.1,1.2C368,288.8,367.1,288.9,366.6,288.6z"/>
		<path class="st13" d="M376.6,294.4l-6.6-3.8c-0.5-0.3-0.5-0.8,0.1-1.2l2.1-1.2c0.6-0.4,1.5-0.4,2.1-0.1l6.6,3.8
			c0.5,0.3,0.5,0.8-0.1,1.2l-2.1,1.2C378,294.6,377.1,294.7,376.6,294.4z"/>
		<path class="st13" d="M386.6,300.1l-6.6-3.8c-0.5-0.3-0.5-0.8,0.1-1.2l2.1-1.2c0.6-0.4,1.5-0.4,2.1-0.1l6.6,3.8
			c0.5,0.3,0.5,0.8-0.1,1.2l-2.1,1.2C388.1,300.4,387.1,300.4,386.6,300.1z"/>
		<path class="st13" d="M396.6,305.9l-6.6-3.8c-0.5-0.3-0.5-0.8,0.1-1.2l2.1-1.2c0.6-0.4,1.5-0.4,2.1-0.1l6.6,3.8
			c0.5,0.3,0.5,0.8-0.1,1.2l-2.1,1.2C398.1,306.2,397.2,306.2,396.6,305.9z"/>
		<path class="st13" d="M297.3,260.5l-6.6-3.8c-0.5-0.3-0.5-0.8,0.1-1.2l6.5-3.7c0.6-0.4,1.5-0.4,2.1-0.1l6.6,3.8
			c0.5,0.3,0.5,0.8-0.1,1.2l-6.5,3.7C298.8,260.8,297.8,260.8,297.3,260.5z"/>
		<path class="st13" d="M307.4,266.4l-6.6-3.8c-0.5-0.3-0.5-0.8,0.1-1.2l6.5-3.7c0.6-0.4,1.5-0.4,2.1-0.1l6.6,3.8
			c0.5,0.3,0.5,0.8-0.1,1.2l-6.5,3.7C308.9,266.7,308,266.7,307.4,266.4z"/>
		<path class="st13" d="M317.6,272.2l-6.6-3.8c-0.5-0.3-0.5-0.8,0.1-1.2l6.5-3.7c0.6-0.4,1.5-0.4,2.1-0.1l6.6,3.8
			c0.5,0.3,0.5,0.8-0.1,1.2l-6.5,3.7C319,272.5,318.1,272.5,317.6,272.2z"/>
		<path class="st13" d="M327.7,278.1l-6.6-3.8c-0.5-0.3-0.5-0.8,0.1-1.2l6.5-3.7c0.6-0.4,1.5-0.4,2.1-0.1l6.6,3.8
			c0.5,0.3,0.5,0.8-0.1,1.2l-6.5,3.7C329.1,278.3,328.2,278.4,327.7,278.1z"/>
		<path class="st13" d="M337.8,283.9l-6.6-3.8c-0.5-0.3-0.5-0.8,0.1-1.2l6.5-3.7c0.6-0.4,1.5-0.4,2.1-0.1l6.6,3.8
			c0.5,0.3,0.5,0.8-0.1,1.2l-6.5,3.7C339.2,284.2,338.3,284.2,337.8,283.9z"/>
		<path class="st13" d="M347.9,289.8l-6.6-3.8c-0.5-0.3-0.5-0.8,0.1-1.2l6.5-3.7c0.6-0.4,1.5-0.4,2.1-0.1l6.6,3.8
			c0.5,0.3,0.5,0.8-0.1,1.2l-6.5,3.7C349.4,290,348.5,290.1,347.9,289.8z"/>
		<path class="st13" d="M358,295.6l-6.6-3.8c-0.5-0.3-0.5-0.8,0.1-1.2l6.5-3.7c0.6-0.4,1.5-0.4,2.1-0.1l6.6,3.8
			c0.5,0.3,0.5,0.8-0.1,1.2l-6.5,3.7C359.5,295.9,358.6,295.9,358,295.6z"/>
		<path class="st13" d="M368.2,301.4l-6.6-3.8c-0.5-0.3-0.5-0.8,0.1-1.2l6.5-3.7c0.6-0.4,1.5-0.4,2.1-0.1l6.6,3.8
			c0.5,0.3,0.5,0.8-0.1,1.2l-6.5,3.7C369.6,301.7,368.7,301.8,368.2,301.4z"/>
		<path class="st13" d="M378.3,307.3l-6.6-3.8c-0.5-0.3-0.5-0.8,0.1-1.2l6.5-3.7c0.6-0.4,1.5-0.4,2.1-0.1l6.6,3.8
			c0.5,0.3,0.5,0.8-0.1,1.2l-6.5,3.7C379.7,307.6,378.8,307.6,378.3,307.3z"/>
		<path class="st13" d="M239.5,261.3l-19.3-11.1c-0.5-0.3-0.5-0.8,0.1-1.2l6.5-3.7c0.6-0.4,1.5-0.4,2.1-0.1l19.3,11.1
			c0.5,0.3,0.5,0.8-0.1,1.2l-6.5,3.7C240.9,261.5,240,261.6,239.5,261.3z"/>
		<path class="st13" d="M363.8,333.1l-19.3-11.1c-0.5-0.3-0.5-0.8,0.1-1.2l6.5-3.7c0.6-0.4,1.5-0.4,2.1-0.1l19.3,11.1
			c0.5,0.3,0.5,0.8-0.1,1.2l-6.5,3.7C365.2,333.3,364.3,333.4,363.8,333.1z"/>
		<path class="st13" d="M323.3,322.6l-6.6-3.8c-0.5-0.3-0.5-0.8,0.1-1.2l7.7-4.5c0.6-0.4,1.5-0.4,2.1-0.1l6.6,3.8
			c0.5,0.3,0.5,0.8-0.1,1.2l-7.7,4.5C324.8,322.9,323.8,322.9,323.3,322.6z"/>
		<path class="st13" d="M249.8,280.2l-10.5-6.1c-0.5-0.3-0.5-0.8,0.1-1.2l7.7-4.5c0.6-0.4,1.5-0.4,2.1-0.1l10.5,6.1
			c0.5,0.3,0.5,0.8-0.1,1.2l-7.7,4.5C251.3,280.4,250.3,280.5,249.8,280.2z"/>
		<path class="st13" d="M313.6,317l-10.5-6.1c-0.5-0.3-0.5-0.8,0.1-1.2l7.7-4.5c0.6-0.4,1.5-0.4,2.1-0.1l10.5,6.1
			c0.5,0.3,0.5,0.8-0.1,1.2l-7.7,4.5C315,317.2,314.1,317.3,313.6,317z"/>
		<path class="st13" d="M264.4,288.6l-10.5-6.1c-0.5-0.3-0.5-0.8,0.1-1.2l7.7-4.5c0.6-0.4,1.5-0.4,2.1-0.1l10.5,6.1
			c0.5,0.3,0.5,0.8-0.1,1.2l-7.7,4.5C265.9,288.9,265,288.9,264.4,288.6z"/>
		<path class="st13" d="M264,276.8l45.6,26.3c0.6,0.3,0.6,0.9,0,1.2l-7.9,4.6c-0.6,0.3-1.5,0.3-2,0L254,282.6L264,276.8z"/>
		<path class="st13" d="M351.6,333.2l7.3,4.2c0.4,0.2,0.4,0.7-0.1,1l-3.2,1.8c-0.5,0.3-1.3,0.3-1.7,0.1l-7.3-4.2
			c-0.4-0.2-0.4-0.7,0.1-1l3.2-1.8C350.4,333,351.2,332.9,351.6,333.2z"/>
		<path class="st13" d="M341.4,327.3l7.3,4.2c0.4,0.2,0.4,0.7-0.1,1l-3.2,1.8c-0.5,0.3-1.3,0.3-1.7,0.1l-7.3-4.2
			c-0.4-0.2-0.4-0.7,0.1-1l3.2-1.8C340.2,327.1,341,327,341.4,327.3z"/>
		<path class="st13" d="M331.3,321.5l7.3,4.2c0.4,0.2,0.4,0.7-0.1,1l-3.2,1.8c-0.5,0.3-1.3,0.3-1.7,0.1l-7.3-4.2
			c-0.4-0.2-0.4-0.7,0.1-1l3.2-1.8C330.1,321.2,330.9,321.2,331.3,321.5z"/>
		<path class="st13" d="M347,324.1l7.3,4.2c0.4,0.2,0.4,0.7-0.1,1l-3.2,1.8c-0.5,0.3-1.3,0.3-1.7,0.1l-7.3-4.2
			c-0.4-0.2-0.4-0.7,0.1-1l3.2-1.8C345.8,323.9,346.6,323.8,347,324.1z"/>
	</g>
	<radialGradient id="SVGID_10_" cx="228.028" cy="100.3334" r="300.175" gradientUnits="userSpaceOnUse">
		<stop  offset="0" style="stop-color:#E39A65"/>
		<stop  offset="0.4742" style="stop-color:#A92FFB"/>
		<stop  offset="0.5875" style="stop-color:#891CFB"/>
		<stop  offset="0.7262" style="stop-color:#6507FA"/>
		<stop  offset="1" style="stop-color:#3919BB"/>
	</radialGradient>
	<path class="st14" d="M454.1,312.2L260.8,200.6c-3-1.8-4.6-6-3.5-9.6l43.7-142c1.1-3.5,4.4-5,7.5-3.2l193.4,111.6
		c3,1.8,4.6,6,3.5,9.6l-43.7,142C460.5,312.6,457.1,314,454.1,312.2z"/>
	<linearGradient id="SVGID_11_" gradientUnits="userSpaceOnUse" x1="261.0207" y1="179.1299" x2="501.5553" y2="179.1299">
		<stop  offset="0" style="stop-color:#3919BB"/>
		<stop  offset="1" style="stop-color:#6507FA"/>
	</linearGradient>
	<path class="st15" d="M452.3,307.3L264.7,198.9c-2.9-1.7-4.4-5.8-3.4-9.1L303.2,54c1-3.4,4.2-4.7,7.1-3.1l187.5,108.4
		c2.9,1.7,4.4,5.8,3.4,9.1l-41.8,135.7C458.4,307.6,455.2,309,452.3,307.3z"/>
	<path class="st16" d="M452.3,307.3L264.7,198.9c-2.9-1.7-4.4-5.8-3.4-9.1L303.2,54c1-3.4,4.2-4.7,7.1-3.1l187.5,108.4
		c2.9,1.7,4.4,5.8,3.4,9.1l-41.8,135.7C458.4,307.6,455.2,309,452.3,307.3z"/>
	<path class="st16" d="M452.3,307.3L264.7,198.9c-2.9-1.7-4.4-5.8-3.4-9.1L303.2,54c1-3.4,4.2-4.7,7.1-3.1l187.5,108.4
		c2.9,1.7,4.4,5.8,3.4,9.1l-41.8,135.7C458.4,307.6,455.2,309,452.3,307.3z"/>
	<path class="st17" d="M442.2,265.8l-127-73.3c-2-1.2-3-4-2.3-6.3L341.6,93c0.7-2.3,2.9-3.3,4.9-2.1l127,73.3c2,1.2,3,4,2.3,6.3
		l-28.7,93.2C446.4,266,444.2,267,442.2,265.8z"/>
	<g class="st18">
		<radialGradient id="SVGID_12_" cx="118.4476" cy="36.2325" r="467.5147" gradientUnits="userSpaceOnUse">
			<stop  offset="0" style="stop-color:#E39A65"/>
			<stop  offset="0.4742" style="stop-color:#A92FFB"/>
			<stop  offset="0.5875" style="stop-color:#891CFB"/>
			<stop  offset="0.7262" style="stop-color:#6507FA"/>
			<stop  offset="1" style="stop-color:#3919BB"/>
		</radialGradient>
		<path class="st19" d="M425.1,268l-127-73.3c-2-1.2-3-4-2.3-6.3l28.7-93.2c0.7-2.3,2.9-3.3,4.9-2.1l127,73.3c2,1.2,3,4,2.3,6.3
			L430,266C429.2,268.3,427,269.2,425.1,268z"/>
	</g>
	<g class="st20">
		<path class="st13" d="M425.1,268l-127-73.3c-2-1.2-3-4-2.3-6.3l28.7-93.2c0.7-2.3,2.9-3.3,4.9-2.1l127,73.3c2,1.2,3,4,2.3,6.3
			L430,266C429.2,268.3,427,269.2,425.1,268z"/>
	</g>
	<path class="st11" d="M456.3,166.5l-127-73.3c-1.3-0.7-2.6-0.6-3.6,0.1c0.6,0,1.2,0.1,1.8,0.5l127,73.3c2,1.2,3,4,2.3,6.3
		l-28.7,93.2c-0.3,0.9-0.7,1.5-1.3,2c1.4,0,2.6-1,3.1-2.6l28.7-93.2C459.4,170.4,458.3,167.6,456.3,166.5z"/>
	<path class="st16" d="M264.9,344.2c-1.7,0-3.4-0.4-4.7-1.1v0l-50.9-29.4c-1.3-0.8-2.1-1.9-2.1-3.1c0-1.4,1-2.9,2.8-3.9l26.2-15.1
		c3.2-1.8,7.9-2,10.7-0.4l50.9,29.4c1.3,0.8,2.1,1.9,2.1,3.1c0,1.4-1,2.9-2.8,3.9l-26.2,15.1C269.2,343.7,267,344.2,264.9,344.2z
		 M242.3,291.5c-1.8,0-3.8,0.4-5.3,1.3L210.8,308c-1.3,0.8-2.1,1.7-2.1,2.6c0,0.9,0.7,1.5,1.4,1.9l50.9,29.4
		c2.3,1.3,6.5,1.1,9.2-0.4l26.2-15.1c1.3-0.8,2.1-1.7,2.1-2.6c0-0.9-0.7-1.5-1.4-1.9l-50.9-29.4
		C245.2,291.8,243.8,291.5,242.3,291.5z"/>
	<g class="st18">
		<path class="st21" d="M360.3,142.1l-7.8-4.5c-0.7-0.4-1.1-1.4-0.9-2.3l0,0c0.2-0.8,1-1.2,1.8-0.7l7.8,4.5c0.7,0.4,1.1,1.4,0.9,2.3
			l0,0C361.8,142.2,361,142.5,360.3,142.1z"/>
		<path class="st21" d="M379,152.9l-11.6-6.7c-0.7-0.4-1.1-1.4-0.9-2.3l0,0c0.2-0.8,1-1.2,1.8-0.7l11.6,6.7c0.7,0.4,1.1,1.4,0.9,2.3
			l0,0C380.5,153,379.7,153.3,379,152.9z"/>
		<path class="st21" d="M344.5,177l-7.8-4.5c-0.7-0.4-1.1-1.4-0.9-2.3l0,0c0.2-0.8,1-1.2,1.8-0.7l7.8,4.5c0.7,0.4,1.1,1.4,0.9,2.3
			l0,0C346,177.1,345.2,177.4,344.5,177z"/>
		<path class="st21" d="M361.1,186.6l-11.6-6.7c-0.7-0.4-1.1-1.4-0.9-2.3l0,0c0.2-0.8,1-1.2,1.8-0.7l11.6,6.7
			c0.7,0.4,1.1,1.4,0.9,2.3l0,0C362.7,186.7,361.9,187.1,361.1,186.6z"/>
		<path class="st21" d="M336.8,135.8l-4.9-2.8c-0.7-0.4-1.1-1.4-0.9-2.3l0,0c0.2-0.8,1-1.2,1.8-0.7l4.9,2.8c0.7,0.4,1.1,1.4,0.9,2.3
			l0,0C338.3,135.9,337.5,136.3,336.8,135.8z"/>
		<path class="st21" d="M351.5,151.7l-15-8.6c-0.7-0.4-1.1-1.4-0.9-2.3l0,0c0.2-0.8,1-1.2,1.8-0.7l15,8.6c0.7,0.4,1.1,1.4,0.9,2.3
			l0,0C353.1,151.8,352.3,152.1,351.5,151.7z"/>
		<path class="st21" d="M337.7,158.4l-4.9-2.8c-0.7-0.4-1.1-1.4-0.9-2.3l0,0c0.2-0.8,1-1.2,1.8-0.7l4.9,2.8c0.7,0.4,1.1,1.4,0.9,2.3
			h0C339.2,158.5,338.5,158.8,337.7,158.4z"/>
		<path class="st21" d="M362.9,202.4l-13.1-7.6c-0.7-0.4-1.1-1.4-0.9-2.3l0,0c0.2-0.8,1-1.2,1.8-0.7l13.1,7.6
			c0.7,0.4,1.1,1.4,0.9,2.3l0,0C364.5,202.5,363.7,202.8,362.9,202.4z"/>
		<path class="st21" d="M332.2,169.9l-3.1-1.8c-0.7-0.4-1.1-1.4-0.9-2.3l0,0c0.2-0.8,1-1.2,1.8-0.7l3.1,1.8c0.7,0.4,1.1,1.4,0.9,2.3
			l0,0C333.8,170,333,170.4,332.2,169.9z"/>
		<path class="st21" d="M329.3,182.9l-3.9-2.3c-0.7-0.4-1.1-1.4-0.9-2.3v0c0.2-0.8,1-1.2,1.8-0.7l3.9,2.3c0.7,0.4,1.1,1.4,0.9,2.3
			l0,0C330.8,183,330,183.3,329.3,182.9z"/>
		<path class="st21" d="M344.5,191.7l-10.3-5.9c-0.7-0.4-1.1-1.4-0.9-2.3l0,0c0.2-0.8,1-1.2,1.8-0.7l10.3,5.9
			c0.7,0.4,1.1,1.4,0.9,2.3l0,0C346,191.8,345.2,192.1,344.5,191.7z"/>
		<path class="st21" d="M330.9,191.2l-7.4-4.3c-0.7-0.4-1.1-1.4-0.9-2.3l0,0c0.2-0.8,1-1.2,1.8-0.7l7.4,4.3c0.7,0.4,1.1,1.4,0.9,2.3
			l0,0C332.4,191.3,331.6,191.6,330.9,191.2z"/>
		<path class="st21" d="M374.2,208.9l-4.8-2.7c-0.7-0.4-1.1-1.4-0.9-2.3l0,0c0.2-0.8,1-1.2,1.8-0.7l4.8,2.7c0.7,0.4,1.1,1.4,0.9,2.3
			l0,0C375.7,209,374.9,209.3,374.2,208.9z"/>
		<path class="st21" d="M356,169l-13.1-7.6c-0.7-0.4-1.1-1.4-0.9-2.3l0,0c0.2-0.8,1-1.2,1.8-0.7l13.1,7.6c0.7,0.4,1.1,1.4,0.9,2.3
			l0,0C357.5,169,356.7,169.4,356,169z"/>
	</g>
	<path class="st22" d="M357.5,162.5l-22.8-13.2c-0.7-0.4-1.1-1.4-0.9-2.3l0,0c0.2-0.8,1-1.2,1.8-0.7l22.8,13.2
		c0.7,0.4,1.1,1.4,0.9,2.3l0,0C359,162.6,358.2,162.9,357.5,162.5z"/>
	<path class="st22" d="M344.1,169.4l-13.1-7.6c-0.7-0.4-1.1-1.4-0.9-2.3l0,0c0.2-0.8,1-1.2,1.8-0.7l13.1,7.6
		c0.7,0.4,1.1,1.4,0.9,2.3l0,0C345.6,169.5,344.8,169.8,344.1,169.4z"/>
	<path class="st22" d="M365.9,174.7l-4.8-2.7c-0.7-0.4-1.1-1.4-0.9-2.3l0,0c0.2-0.8,1-1.2,1.8-0.7l4.8,2.7c0.7,0.4,1.1,1.4,0.9,2.3
		l0,0C367.4,174.8,366.6,175.1,365.9,174.7z"/>
	<path class="st22" d="M414.3,173.2L386.1,157c-0.7-0.4-1.1-1.4-0.9-2.3l0,0c0.2-0.8,1-1.2,1.8-0.7l28.2,16.3
		c0.7,0.4,1.1,1.4,0.9,2.3l0,0C415.8,173.3,415,173.7,414.3,173.2z"/>
	<path class="st23" d="M343,183.5l-15.7-9.1c-0.7-0.4-1.1-1.4-0.9-2.3l0,0c0.2-0.8,1-1.2,1.8-0.7l15.7,9.1c0.7,0.4,1.1,1.4,0.9,2.3
		l0,0C344.5,183.6,343.7,183.9,343,183.5z"/>
	<path class="st23" d="M345.3,133.4l-11.6-6.7c-0.7-0.4-1.1-1.4-0.9-2.3l0,0c0.2-0.8,1-1.2,1.8-0.7l11.6,6.7
		c0.7,0.4,1.1,1.4,0.9,2.3l0,0C346.8,133.5,346.1,133.8,345.3,133.4z"/>
	<path class="st22" d="M328.5,197.2l-13.4-7.7c-0.7-0.4-1.1-1.4-0.9-2.3l0,0c0.2-0.8,1-1.2,1.8-0.7l13.4,7.7
		c0.7,0.4,1.1,1.4,0.9,2.3l0,0C330,197.2,329.2,197.6,328.5,197.2z"/>
	<path class="st11" d="M417.5,158.7l-5.7-3.3c-0.5-0.3-0.8-1-0.6-1.6l0,0c0.2-0.6,0.8-0.8,1.3-0.5l5.7,3.3c0.5,0.3,0.8,1,0.6,1.6
		l0,0C418.6,158.8,418,159.1,417.5,158.7z"/>
	<path class="st11" d="M428.4,165.1l-5.7-3.3c-0.5-0.3-0.8-1-0.6-1.6l0,0c0.2-0.6,0.8-0.8,1.3-0.5l5.7,3.3c0.5,0.3,0.8,1,0.6,1.6
		l0,0C429.5,165.1,428.9,165.4,428.4,165.1z"/>
	<path class="st11" d="M439.3,171.4l-5.7-3.3c-0.5-0.3-0.8-1-0.6-1.6l0,0c0.2-0.6,0.8-0.8,1.3-0.5l5.7,3.3c0.5,0.3,0.8,1,0.6,1.6
		l0,0C440.5,171.5,439.9,171.7,439.3,171.4z"/>
	<path class="st23" d="M444.7,174.5l-0.2-0.1c-0.5-0.3-0.8-1-0.6-1.6l0,0c0.2-0.6,0.8-0.8,1.3-0.5l0.2,0.1c0.5,0.3,0.8,1,0.6,1.6
		l0,0C445.8,174.6,445.3,174.8,444.7,174.5z"/>
	<linearGradient id="SVGID_13_" gradientUnits="userSpaceOnUse" x1="97.0285" y1="212.0335" x2="200.2163" y2="212.0335">
		<stop  offset="0" style="stop-color:#E39A65"/>
		<stop  offset="1" style="stop-color:#E95F8D"/>
	</linearGradient>
	<path class="st24" d="M148.6,241.6c-3.6,0-7.3-0.9-10.5-2.8l0,0l-38.4-22.2c-1.7-1-2.7-2.7-2.7-4.6c0-1.9,1-3.6,2.7-4.6l38.4-22.2
		c6.5-3.7,14.5-3.7,21,0l38.4,22.2c1.7,1,2.7,2.7,2.7,4.6c0,1.9-1,3.6-2.7,4.6l-38.4,22.2C155.9,240.7,152.3,241.6,148.6,241.6z
		 M139.4,236.7c5.7,3.3,12.8,3.3,18.5,0l38.4-22.2c0.9-0.5,1.4-1.4,1.4-2.4c0-1-0.5-1.9-1.4-2.4l-38.4-22.2
		c-5.7-3.3-12.8-3.3-18.5,0l-38.4,22.2c-0.9,0.5-1.4,1.4-1.4,2.4c0,1,0.5,1.9,1.4,2.4L139.4,236.7z"/>
	<ellipse class="st6" cx="148.4" cy="212.6" rx="26.4" ry="15.2"/>
	<radialGradient id="SVGID_14_" cx="106.1767" cy="127.8634" r="222.2327" gradientUnits="userSpaceOnUse">
		<stop  offset="0" style="stop-color:#E39A65"/>
		<stop  offset="0.1528" style="stop-color:#A92FFB"/>
		<stop  offset="0.4087" style="stop-color:#3919BB"/>
		<stop  offset="0.9311" style="stop-color:#3919BB"/>
	</radialGradient>
	<path class="st25" d="M187.6,103.9h-75.2l7,81.4l0,0c0,4.5,3,9,9,12.5c12,6.9,31.3,6.9,43.3,0c6-3.4,9-8,9-12.5L187.6,103.9z"/>
	<path class="st16" d="M187.6,103.9h-75.2l1.2,13.4c1.7,2.2,4,4.3,7,6.3c14.4,9.5,38.1,11.4,54.2,4.5l-2.5,59.5
		c-0.1,2.6-1,5.1-2.7,7.1c-2.4,2.9-7.1,6.2-16.1,8.1c6.6-0.4,13.1-2.1,18.2-5.1c6-3.4,9-8,9-12.5l5.6-65.3l0,0L187.6,103.9z"/>
	<ellipse class="st16" cx="150" cy="103.9" rx="37.6" ry="21.7"/>
	<ellipse class="st16" cx="150" cy="96.3" rx="32.4" ry="18.7"/>
	<linearGradient id="SVGID_15_" gradientUnits="userSpaceOnUse" x1="110.1098" y1="100.3333" x2="189.8229" y2="100.3333">
		<stop  offset="0" style="stop-color:#E39A65"/>
		<stop  offset="0.252" style="stop-color:#A92FFB"/>
		<stop  offset="0.5556" style="stop-color:#3919BB"/>
	</linearGradient>
	<path class="st26" d="M189.8,102.9L189.8,102.9L189.8,102.9c0-0.1,0-0.1,0-0.2l-0.7-7.3l0,0.1c-0.3-5.5-4.1-11-11.4-15.2
		c-15.3-8.8-40-8.8-55.3,0c-7.5,4.3-11.3,9.9-11.4,15.6l0,0l-0.7,6.5c0,0.2,0,0.3-0.1,0.5l0,0.1l0,0c-0.4,6.2,3.5,12.4,11.6,17.2
		c15.6,9,40.8,9,56.4,0C186.4,115.4,190.3,109.1,189.8,102.9z"/>
	<linearGradient id="SVGID_16_" gradientUnits="userSpaceOnUse" x1="117.5842" y1="96.2829" x2="182.3449" y2="96.2829">
		<stop  offset="0" style="stop-color:#4F1FEC"/>
		<stop  offset="1" style="stop-color:#A92FFB"/>
	</linearGradient>
	<ellipse class="st27" cx="150" cy="96.3" rx="32.4" ry="18.7"/>
	<linearGradient id="SVGID_17_" gradientUnits="userSpaceOnUse" x1="116.0478" y1="96.2829" x2="180.8085" y2="96.2829">
		<stop  offset="0" style="stop-color:#4F1FEC"/>
		<stop  offset="1" style="stop-color:#A92FFB"/>
	</linearGradient>
	<ellipse class="st28" cx="148.4" cy="96.3" rx="32.4" ry="18.7"/>
	<path class="st16" d="M130.9,85.8c12.6-7.3,33.1-7.3,45.8,0c0.2,0.1,0.3,0.2,0.5,0.3c-1.2-1.1-2.6-2.1-4.3-3.1
		c-12.6-7.3-33.1-7.3-45.8,0c-12.5,7.2-12.6,18.8-0.5,26.1C118.5,102,119.9,92.2,130.9,85.8z"/>
	<linearGradient id="SVGID_18_" gradientUnits="userSpaceOnUse" x1="117.5895" y1="87.7469" x2="199.2418" y2="87.7469">
		<stop  offset="0" style="stop-color:#131060"/>
		<stop  offset="0.1857" style="stop-color:#141062"/>
		<stop  offset="0.2823" style="stop-color:#19106A"/>
		<stop  offset="0.3584" style="stop-color:#221078"/>
		<stop  offset="0.4238" style="stop-color:#2E0F8B"/>
		<stop  offset="0.4823" style="stop-color:#3E0FA3"/>
		<stop  offset="0.5359" style="stop-color:#510EC2"/>
		<stop  offset="0.5847" style="stop-color:#680DE5"/>
		<stop  offset="0.6071" style="stop-color:#740DF8"/>
		<stop  offset="0.6179" style="stop-color:#7A14F0"/>
		<stop  offset="0.6826" style="stop-color:#9B3CC3"/>
		<stop  offset="0.7477" style="stop-color:#B75D9D"/>
		<stop  offset="0.8123" style="stop-color:#CC7680"/>
		<stop  offset="0.8762" style="stop-color:#DC886C"/>
		<stop  offset="0.9391" style="stop-color:#E5935F"/>
		<stop  offset="1" style="stop-color:#E8975B"/>
	</linearGradient>
	<path class="st29" d="M127.1,86.3c12.6-7.3,33.1-7.3,45.8,0c5.6,3.2,8.7,7.4,9.4,11.6c0.8-5.3-2.3-10.8-9.4-14.8
		c-12.6-7.3-33.1-7.3-45.8,0c-7,4.1-10.2,9.5-9.4,14.8C118.3,93.7,121.5,89.5,127.1,86.3z"/>
	<radialGradient id="SVGID_19_" cx="100.1604" cy="77.7804" r="145.3755" gradientUnits="userSpaceOnUse">
		<stop  offset="0" style="stop-color:#E39A65"/>
		<stop  offset="0.252" style="stop-color:#A92FFB"/>
		<stop  offset="0.7357" style="stop-color:#3919BB"/>
	</radialGradient>
	<path class="st30" d="M177.8,80.5c-15.2-9-40.1-9.2-55.5-0.5s-15.5,23-0.3,32c15.2,9,40.1,9.2,55.5,0.5
		C193,103.8,193.1,89.5,177.8,80.5z M172.9,109.5c-4.2,2.4-9.3,4-14.7,4.9l-0.6-1.9c-0.2-0.8-1-1.3-1.8-1.3h-11.6
		c-0.8,0-1.5,0.5-1.8,1.3l-0.6,1.9c-5.4-0.8-10.5-2.4-14.7-4.9c-12.6-7.3-12.6-19.1,0-26.4c12.6-7.3,33.1-7.3,45.8,0
		C185.5,90.4,185.5,102.2,172.9,109.5z"/>
	<g class="st18">
		<path class="st21" d="M172.9,81.7c-12.6-7.3-33.1-7.3-45.8,0c-6.6,3.8-9.8,8.9-9.5,13.9c0.3-4.6,3.4-9.1,9.5-12.5
			c12.6-7.3,33.1-7.3,45.8,0c6,3.5,9.2,8,9.5,12.5C182.6,90.6,179.5,85.5,172.9,81.7z"/>
		<path class="st21" d="M177.6,111.2c-15.4,8.7-40.2,8.5-55.5-0.5c-7.3-4.3-11-9.8-11.3-15.3c-0.3,6,3.5,12,11.3,16.7
			c15.2,9,40.1,9.2,55.5,0.5c8.1-4.6,11.9-10.7,11.6-16.8C188.9,101.4,185,106.9,177.6,111.2z"/>
	</g>
	<path class="st31" d="M153.9,115.4H146c-0.2,0-0.4-0.2-0.4-0.4v-1c0-0.2,0.2-0.4,0.4-0.4h7.8c0.2,0,0.4,0.2,0.4,0.4v1
		C154.3,115.2,154.1,115.4,153.9,115.4z"/>
	<linearGradient id="SVGID_20_" gradientUnits="userSpaceOnUse" x1="144.8394" y1="114.0994" x2="156.1354" y2="114.0994">
		<stop  offset="0" style="stop-color:#131060"/>
		<stop  offset="0.1857" style="stop-color:#141062"/>
		<stop  offset="0.2823" style="stop-color:#19106A"/>
		<stop  offset="0.3584" style="stop-color:#221078"/>
		<stop  offset="0.4238" style="stop-color:#2E0F8B"/>
		<stop  offset="0.4823" style="stop-color:#3E0FA3"/>
		<stop  offset="0.5359" style="stop-color:#510EC2"/>
		<stop  offset="0.5847" style="stop-color:#680DE5"/>
		<stop  offset="0.6071" style="stop-color:#740DF8"/>
		<stop  offset="0.6179" style="stop-color:#7A14F0"/>
		<stop  offset="0.6826" style="stop-color:#9B3CC3"/>
		<stop  offset="0.7477" style="stop-color:#B75D9D"/>
		<stop  offset="0.8123" style="stop-color:#CC7680"/>
		<stop  offset="0.8762" style="stop-color:#DC886C"/>
		<stop  offset="0.9391" style="stop-color:#E5935F"/>
		<stop  offset="1" style="stop-color:#E8975B"/>
	</linearGradient>
	<path class="st32" d="M153.4,113.5h-6.9c-0.5,0-0.9,0.4-0.9,0.9v0.1c0,0.1,0,0.2,0,0.2c0.1-0.4,0.4-0.6,0.8-0.6h6.9
		c0.4,0,0.7,0.3,0.8,0.6c0-0.1,0-0.2,0-0.2v-0.1C154.3,113.9,153.9,113.5,153.4,113.5z"/>
	<g class="st18">
		<path class="st33" d="M151,177c-0.9,3.2-4.1,5.1-7.3,4.3c-3.2-0.9-5.1-4.1-4.3-7.3c0.9-3.2,3.9-4.1,7.1-3.3
			C149.7,171.5,151.9,173.8,151,177z"/>
		<path class="st33" d="M155.8,170.6c-1.2,1.2-2.8,1-3.8,0s-1.1-2.6,0.1-3.8c1.2-1.2,3.5-1.8,4.5-0.7
			C157.6,167.2,157,169.5,155.8,170.6z"/>
		<path class="st33" d="M149.5,165.6c-0.3,1.7-1.6,2.4-3.1,2.2c-1.4-0.3-2.4-1.5-2.1-3.1c0.3-1.7,1.8-3.5,3.3-3.2
			C149,161.7,149.8,164,149.5,165.6z"/>
		<path class="st33" d="M141.7,164.9c0.6,1.6-0.1,2.9-1.4,3.5c-1.4,0.6-2.8,0.1-3.5-1.5c-0.6-1.6-0.3-3.9,1-4.5
			C139.2,161.8,141.1,163.3,141.7,164.9z"/>
	</g>
	<path class="st34" d="M152.4,114.4c0,0,21-7,12.5-31.2s-25.1-31.5-18.4-50.8c0,0-10.5,15.6-0.7,36.8s11.9,18.7,11.8,28.9
		c-0.1,12-9.9,16.4-9.9,16.4H152.4z"/>
	<path class="st34" d="M154.3,35.7c0,0-2.2-14.4,11.4-29c0,0-12,26.8-8.1,40C157.6,46.7,154.4,38.3,154.3,35.7z"/>
</g>
<g>
	<g>
		
			<image style="overflow:visible;" width="512" height="512" xlink:href="../../../Vector Resources/publisher.png"  transform="matrix(0.2605 0 0 0.2605 233.7836 257.135)">
		</image>
		
			<image style="overflow:visible;" width="512" height="512" xlink:href="../../../Vector Resources/word.png"  transform="matrix(0.2853 0 0 0.2925 33.913 251.5651)">
		</image>
		
			<image style="overflow:visible;" width="512" height="512" xlink:href="../../../Vector Resources/excel.png"  transform="matrix(0.2816 0 0 0.2816 421.8895 254.3501)">
		</image>
	</g>
	
		<image style="overflow:visible;" width="512" height="512" xlink:href="../../../Vector Resources/office.png"  transform="matrix(0.3189 0 0 0.3189 218.3659 48.6675)">
	</image>
</g>
</svg>
